**ABCDEFGHIJKLMNOPQRSTUVWXYZabcdefghijklmnopqrstuvwxyz**************************
**PARASOLID !"#$%&'()*+,-./:;<=>?@[\]^_`{|}~0123456789**************************
**PART1;
MC=AMD64;
MC_MODEL=Intel64 Family 6 Model 58 Stepping 9, GenuineIntel;
MC_ID=unknown;
OS=Windows_NT;
OS_RELEASE=unknown;
FRU=CAD Exchanger 3.13.0 (cadexchanger.com);
APPL=unknown;
SITE=unknown;
USER=unknown;
FORMAT=text;
GUISE=transmit;
KEY=Piso 2;
FILE=Piso 2.x_t;
DATE=Sat Sep  9 16:23:17 2023;
**PART2;
SCH=SCH_1200000_12103;
USFLD_SIZE=0;
**PART3;
**END_OF_HEADER*****************************************************************
T51 : TRANSMIT FILE created by modeller version 120000017 SCH_1200000_121030 10
 1 5 2 6 0 0 0 0 0 1000.0 1.0e-08 0 0 0 1 0 1 8 81 1 2 1 3 1 0 0 0 0 5 80 1 3 0
 4 8017 0 0 0 0 0 0 0 0 0 TTTTTTTTTTTTTF3 79 13 4 SDL/TYSA_NAME84 3 5 PCB70 6 0
 1 0 0 4 1 20 0 7 7 1 T74 20 7 1 0 2 0 0 0 0 0 0 0 0 0 0 0 0 0 0 0 0 0 0 0 11 8
 2 0 1 9 0 1 395 0 0 0 10 9 3 10 12 0 0 0 0 0 1000.0 1.0e-08 8 0 0 1 0 1 14 81 1
 10 1 3 9 0 0 0 0 11 84 5 11 Board70 12 0 9 0 0 4 1 20 0 13 13 1 T74 20 13 1 0 1
0 0 0 0 0 0 0 0 0 0 0 0 0 0 0 0 0 0 0 0 11 14 2 0 1 16 15 9 0 0 0 0 100 15 3 14
 0 0 1.0 0.0 0.0 0.0 1.0 0.0 0.0 0.0 1.0 0.0 0.0 -4.1148000000000007e-04 1.0 3 ?
12 16 260 0 17 0 0 0 0 1000.0 1.0e-08 14 0 0 1 0 1 1 26 28 34 32 23 33 31 70 17
 0 16 0 0 4 1 20 0 18 18 1 T74 20 18 1 0 19 0 0 0 0 0 0 0 0 0 0 0 0 0 0 0 0 0 0
 0 81 1 19 7 20 27 0 0 56 0 22 80 1 20 0 21 8001 0 0 0 0 3 5 0 0 0 FFFFTFTFFFFFF
F2 79 15 21 SDL/TYSA_COLOUR83 3 22 0.0 0.501960813999176 0.0 19 23 1 0 16 25 0 2
4 V13 24 2 0 16 0 0 0 0 23 27 19 25 3 0 16 0 23 26 S13 26 4 0 16 0 27 0 0 25 0 1
4 27 5 19 1.0e-08 54 0 29 26 28 -0 0 54 0 24 50 28 6 0 27 55 0 0 +0.0 1.27e-04 0
.0 0.0 1.0 0.0 1.0 0.0 0.0 15 29 8 0 30 27 0 17 30 0 29 38 50 31 35 33 0 104 -18
 31 9 0 43 0 36 32 ?16 29 32 10 0 31 37 0 0.0 1.27e-04 4.1148000000000007e-04 16
 33 11 0 ?35 0 41 34 0 0 16 30 34 12 0 33 42 0 0 +0.0 1.27e-04 4.114800000000000
7e-04 1.0 0.0 0.0 17 35 0 382 62 104 36 30 33 0 59 +18 36 13 0 50 31 39 37 ?16 2
9 37 14 0 36 40 32 0.030099 1.27e-04 4.1148000000000007e-04 17 38 0 29 44 30 39
 43 41 0 49 -18 39 15 0 38 36 45 40 ?16 29 40 16 0 39 46 37 0.0 1.27e-04 0.0 16
 41 17 0 ?43 33 47 42 0 0 16 30 42 18 0 41 48 34 0 +0.0 1.27e-04 0.0 0.0 0.0 1.0
 17 43 0 100 101 105 31 38 41 0 30 +17 44 0 29 50 38 45 49 47 0 70 +18 45 19 0 5
3 39 63 46 ?16 29 46 20 0 45 64 40 0.030099 1.27e-04 0.0 16 47 21 0 ?44 41 51 48
 0 0 16 30 48 22 0 47 52 42 0 +0.0 1.27e-04 0.0 1.0 0.0 0.0 17 49 0 365 108 70 3
9 44 47 0 105 -17 50 0 29 30 44 36 53 51 0 35 +16 51 23 0 ?50 47 60 52 0 0 16 30
 52 24 0 51 61 48 0 +0.030099 1.27e-04 0.0 0.0 0.0 1.0 17 53 0 58 65 59 45 50 51
 0 44 -14 54 25 56 1.0e-08 75 27 58 26 55 -0 0 75 27 24 50 55 26 0 54 76 28 0 +0
.030099 1.27e-04 0.0 -1.0 0.0 0.0 0.0 1.0 0.0 81 1 56 27 20 54 0 0 77 19 57 83 3
 57 0.0 0.501960813999176 0.0 15 58 28 0 59 54 0 17 59 0 58 53 71 36 62 60 0 0 -
16 60 29 0 ?62 51 68 61 0 0 16 30 61 30 0 60 69 52 0 +0.030099 1.27e-04 4.114800
0000000007e-04 0.0 1.0 0.0 17 62 0 382 83 35 63 59 60 0 80 +18 63 31 0 71 45 66
 64 ?16 29 64 32 0 63 67 46 0.030099 0.06477 4.1148000000000007e-04 17 65 0 58 7
1 53 66 70 68 0 91 +18 66 33 0 74 63 84 67 ?16 29 67 34 0 66 85 64 0.030099 0.06
477 0.0 16 68 35 0 ?65 60 72 69 0 0 16 30 69 36 0 68 73 61 0 +0.030099 1.27e-04
 0.0 0.0 1.0 0.0 17 70 0 365 49 91 45 65 68 0 0 -17 71 0 58 59 65 63 74 72 0 62
 +16 72 37 0 ?71 68 81 73 0 0 16 30 73 38 0 72 82 69 0 +0.030099 0.06477 0.0 0.0
 0.0 1.0 17 74 0 79 86 80 66 71 72 0 65 -14 75 39 77 1.0e-08 96 54 79 26 76 -0 0
 96 54 24 50 76 40 0 75 97 55 0 +0.030099 0.06477 0.0 0.0 -1.0 0.0 -1.0 0.0 0.0
 81 1 77 41 20 75 0 0 98 56 78 83 3 78 0.0 0.501960813999176 0.0 15 79 42 0 80 7
5 0 17 80 0 79 74 92 63 83 81 0 0 -16 81 43 0 ?83 72 89 82 0 0 16 30 82 44 0 81
 90 73 0 +0.030099 0.06477 4.1148000000000007e-04 -1.0 0.0 0.0 17 83 0 382 104 6
2 84 80 81 0 101 +18 84 45 0 92 66 87 85 ?16 29 85 46 0 84 88 67 0.0 0.06477 4.1
148000000000007e-04 17 86 0 79 92 74 87 91 89 0 108 +18 87 47 0 95 84 115 88 ?16
 29 88 48 0 87 116 85 0.0 0.06477 0.0 16 89 49 0 ?86 81 93 90 0 0 16 30 90 50 0
 89 94 82 0 +0.030099 0.06477 0.0 -1.0 0.0 0.0 17 91 0 365 70 108 66 86 89 0 0 -
17 92 0 79 80 86 84 95 93 0 83 +16 93 51 0 ?92 89 102 94 0 0 16 30 94 52 0 93 10
3 90 0 +0.0 0.06477 0.0 0.0 0.0 1.0 17 95 0 100 105 101 87 92 93 0 86 -14 96 53
 98 1.0e-08 109 75 100 26 97 -0 0 109 75 24 50 97 54 0 96 110 76 0 +0.0 0.06477
 0.0 1.0 0.0 0.0 0.0 -1.0 0.0 81 1 98 55 20 96 0 0 111 77 99 83 3 99 0.0 0.50196
0813999176 0.0 15 100 56 0 101 96 0 17 101 0 100 95 43 84 104 102 0 0 -16 102 57
 0 ?104 93 106 103 0 0 16 30 103 58 0 102 107 94 0 +0.0 0.06477 4.11480000000000
07e-04 0.0 -1.0 0.0 17 104 0 382 35 83 31 101 102 0 0 +17 105 0 100 43 95 39 108
 106 0 0 +16 106 59 0 ?105 102 117 107 0 0 16 30 107 60 0 106 118 103 0 +0.0 0.0
6477 0.0 0.0 -1.0 0.0 17 108 0 365 91 49 87 105 106 0 0 -14 109 61 111 1.0e-08 1
30 96 113 26 110 -0 0 130 96 24 51 110 62 0 109 131 97 0 +0.003556 0.003468 0.0
 0.0 0.0 -1.0 0.0014 1.0 0.0 0.0 81 1 111 63 20 109 0 0 132 98 112 83 3 112 0.0
 0.501960813999176 0.0 15 113 64 0 114 109 0 17 114 0 113 122 126 115 119 117 0
 122 +18 115 65 0 114 87 120 116 ?16 29 116 66 0 115 121 88 0.004956 0.003468 4.
1148000000000007e-04 16 117 67 0 ?114 106 123 118 0 0 16 30 118 68 0 117 124 107
 0 +0.004956 0.003468 0.0 0.0 0.0 1.0 17 119 0 113 126 122 120 114 117 0 129 -18
 120 69 0 119 115 136 121 ?16 29 121 70 0 120 137 116 0.004956 0.003468 0.0 17 1
22 0 113 119 114 115 125 123 0 125 +16 123 71 0 ?122 117 127 124 0 0 16 31 124 7
2 0 123 128 118 0 +0.003556 0.003468 4.1148000000000007e-04 0.0 0.0 1.0 1.0 0.0
 0.0 0.0014 17 125 0 383 125 125 115 122 123 0 0 -17 126 0 113 114 119 120 129 1
27 0 0 -16 127 73 0 ?129 123 138 128 0 0 16 31 128 74 0 127 139 124 0 +0.003556
 0.003468 0.0 0.0 0.0 1.0 1.0 0.0 0.0 0.0014 17 129 0 366 129 129 120 126 127 0
 126 +14 130 75 132 1.0e-08 151 109 134 26 131 -0 0 151 109 24 51 131 76 0 130 1
52 110 0 +0.017907 0.020955 0.0 0.0 0.0 -1.0 3.8100000000000002e-04 1.0 0.0 0.0
 81 1 132 77 20 130 0 0 153 111 133 83 3 133 0.0 0.501960813999176 0.0 15 134 78
 0 135 130 0 17 135 0 134 143 147 136 140 138 0 143 +18 136 79 0 135 120 141 137
 ?16 29 137 80 0 136 142 121 0.018288 0.020955 4.1148000000000007e-04 16 138 81
 0 ?135 127 144 139 0 0 16 30 139 82 0 138 145 128 0 +0.018288 0.020955 0.0 0.0
 0.0 1.0 17 140 0 134 147 143 141 135 138 0 150 -18 141 83 0 140 136 157 142 ?16
 29 142 84 0 141 158 137 0.018288 0.020955 0.0 17 143 0 134 140 135 136 146 144
 0 146 +16 144 85 0 ?143 138 148 145 0 0 16 31 145 86 0 144 149 139 0 +0.017907
 0.020955 4.1148000000000007e-04 0.0 0.0 1.0 1.0 0.0 0.0 3.8100000000000002e-04
 17 146 0 384 146 146 136 143 144 0 0 -17 147 0 134 135 140 141 150 148 0 0 -16
 148 87 0 ?150 144 159 149 0 0 16 31 149 88 0 148 160 145 0 +0.017907 0.020955 0
.0 0.0 0.0 1.0 1.0 0.0 0.0 3.8100000000000002e-04 17 150 0 367 150 150 141 147 1
48 0 147 +14 151 89 153 1.0e-08 172 130 155 26 152 -0 0 172 130 24 51 152 90 0 1
51 173 131 0 +0.011303 0.0254 0.0 0.0 0.0 -1.0 3.8100000000000002e-04 1.0 0.0 0.
0 81 1 153 91 20 151 0 0 174 132 154 83 3 154 0.0 0.501960813999176 0.0 15 155 9
2 0 156 151 0 17 156 0 155 164 168 157 161 159 0 164 +18 157 93 0 156 141 162 15
8 ?16 29 158 94 0 157 163 142 0.011684 0.0254 4.1148000000000007e-04 16 159 95 0
 ?156 148 165 160 0 0 16 30 160 96 0 159 166 149 0 +0.011684 0.0254 0.0 0.0 0.0
 1.0 17 161 0 155 168 164 162 156 159 0 171 -18 162 97 0 161 157 178 163 ?16 29
 163 98 0 162 179 158 0.011684 0.0254 0.0 17 164 0 155 161 156 157 167 165 0 167
 +16 165 99 0 ?164 159 169 166 0 0 16 31 166 100 0 165 170 160 0 +0.011303 0.025
4 4.1148000000000007e-04 0.0 0.0 1.0 1.0 0.0 0.0 3.8100000000000002e-04 17 167 0
 385 167 167 157 164 165 0 0 -17 168 0 155 156 161 162 171 169 0 0 -16 169 101 0
 ?171 165 180 170 0 0 16 31 170 102 0 169 181 166 0 +0.011303 0.0254 0.0 0.0 0.0
 1.0 1.0 0.0 0.0 3.8100000000000002e-04 17 171 0 368 171 171 162 168 169 0 168 +
14 172 103 174 1.0e-08 193 151 176 26 173 -0 0 193 151 24 51 173 104 0 172 194 1
52 0 +0.003556 0.061468 0.0 0.0 0.0 -1.0 0.0014 1.0 0.0 0.0 81 1 174 105 20 172
 0 0 195 153 175 83 3 175 0.0 0.501960813999176 0.0 15 176 106 0 177 172 0 17 17
7 0 176 185 189 178 182 180 0 185 +18 178 107 0 177 162 183 179 ?16 29 179 108 0
 178 184 163 0.004956 0.061468 4.1148000000000007e-04 16 180 109 0 ?177 169 186
 181 0 0 16 30 181 110 0 180 187 170 0 +0.004956 0.061468 0.0 0.0 0.0 1.0 17 182
 0 176 189 185 183 177 180 0 192 -18 183 111 0 182 178 199 184 ?16 29 184 112 0
 183 200 179 0.004956 0.061468 0.0 17 185 0 176 182 177 178 188 186 0 188 +16 18
6 113 0 ?185 180 190 187 0 0 16 31 187 114 0 186 191 181 0 +0.003556 0.061468 4.
1148000000000007e-04 0.0 0.0 1.0 1.0 0.0 0.0 0.0014 17 188 0 386 188 188 178 185
 186 0 0 -17 189 0 176 177 182 183 192 190 0 0 -16 190 115 0 ?192 186 201 191 0
 0 16 31 191 116 0 190 202 187 0 +0.003556 0.061468 0.0 0.0 0.0 1.0 1.0 0.0 0.0
 0.0014 17 192 0 369 192 192 183 189 190 0 189 +14 193 117 195 1.0e-08 214 172 1
97 26 194 -0 0 214 172 24 51 194 118 0 193 215 173 0 +0.016383 0.0254 0.0 0.0 0.
0 -1.0 3.8100000000000002e-04 1.0 0.0 0.0 81 1 195 119 20 193 0 0 216 174 196 83
 3 196 0.0 0.501960813999176 0.0 15 197 120 0 198 193 0 17 198 0 197 206 210 199
 203 201 0 206 +18 199 121 0 198 183 204 200 ?16 29 200 122 0 199 205 184 0.0167
64 0.0254 4.1148000000000007e-04 16 201 123 0 ?198 190 207 202 0 0 16 30 202 124
 0 201 208 191 0 +0.016764 0.0254 0.0 0.0 0.0 1.0 17 203 0 197 210 206 204 198 2
01 0 213 -18 204 125 0 203 199 220 205 ?16 29 205 126 0 204 221 200 0.016764 0.0
254 0.0 17 206 0 197 203 198 199 209 207 0 209 +16 207 127 0 ?206 201 211 208 0
 0 16 31 208 128 0 207 212 202 0 +0.016383 0.0254 4.1148000000000007e-04 0.0 0.0
 1.0 1.0 0.0 0.0 3.8100000000000002e-04 17 209 0 387 209 209 199 206 207 0 0 -17
 210 0 197 198 203 204 213 211 0 0 -16 211 129 0 ?213 207 222 212 0 0 16 31 212
 130 0 211 223 208 0 +0.016383 0.0254 0.0 0.0 0.0 1.0 1.0 0.0 0.0 3.810000000000
0002e-04 17 213 0 370 213 213 204 210 211 0 210 +14 214 131 216 1.0e-08 235 193
 218 26 215 -0 0 235 193 24 51 215 132 0 214 236 194 0 +0.013843 0.0254 0.0 0.0
 0.0 -1.0 3.8100000000000002e-04 1.0 0.0 0.0 81 1 216 133 20 214 0 0 237 195 217
 83 3 217 0.0 0.501960813999176 0.0 15 218 134 0 219 214 0 17 219 0 218 227 231
 220 224 222 0 227 +18 220 135 0 219 204 225 221 ?16 29 221 136 0 220 226 205 0.
014224 0.0254 4.1148000000000007e-04 16 222 137 0 ?219 211 228 223 0 0 16 30 223
 138 0 222 229 212 0 +0.014224 0.0254 0.0 0.0 0.0 1.0 17 224 0 218 231 227 225 2
19 222 0 234 -18 225 139 0 224 220 241 226 ?16 29 226 140 0 225 242 221 0.014224
 0.0254 0.0 17 227 0 218 224 219 220 230 228 0 230 +16 228 141 0 ?227 222 232 22
9 0 0 16 31 229 142 0 228 233 223 0 +0.013843 0.0254 4.1148000000000007e-04 0.0
 0.0 1.0 1.0 0.0 0.0 3.8100000000000002e-04 17 230 0 388 230 230 220 227 228 0 0
 -17 231 0 218 219 224 225 234 232 0 0 -16 232 143 0 ?234 228 243 233 0 0 16 31
 233 144 0 232 244 229 0 +0.013843 0.0254 0.0 0.0 0.0 1.0 1.0 0.0 0.0 3.81000000
00000002e-04 17 234 0 371 234 234 225 231 232 0 231 +14 235 145 237 1.0e-08 256
 214 239 26 236 -0 0 256 214 24 51 236 146 0 235 257 215 0 +0.020447 0.020955 0.
0 0.0 0.0 -1.0 3.8100000000000002e-04 1.0 0.0 0.0 81 1 237 147 20 235 0 0 258 21
6 238 83 3 238 0.0 0.501960813999176 0.0 15 239 148 0 240 235 0 17 240 0 239 248
 252 241 245 243 0 248 +18 241 149 0 240 225 246 242 ?16 29 242 150 0 241 247 22
6 0.020828 0.020955 4.1148000000000007e-04 16 243 151 0 ?240 232 249 244 0 0 16
 30 244 152 0 243 250 233 0 +0.020828 0.020955 0.0 0.0 0.0 1.0 17 245 0 239 252
 248 246 240 243 0 255 -18 246 153 0 245 241 262 247 ?16 29 247 154 0 246 263 24
2 0.020828 0.020955 0.0 17 248 0 239 245 240 241 251 249 0 251 +16 249 155 0 ?24
8 243 253 250 0 0 16 31 250 156 0 249 254 244 0 +0.020447 0.020955 4.11480000000
00007e-04 0.0 0.0 1.0 1.0 0.0 0.0 3.8100000000000002e-04 17 251 0 389 251 251 24
1 248 249 0 0 -17 252 0 239 240 245 246 255 253 0 0 -16 253 157 0 ?255 249 264 2
54 0 0 16 31 254 158 0 253 265 250 0 +0.020447 0.020955 0.0 0.0 0.0 1.0 1.0 0.0
 0.0 3.8100000000000002e-04 17 255 0 372 255 255 246 252 253 0 252 +14 256 159 2
58 1.0e-08 277 235 260 26 257 -0 0 277 235 24 51 257 160 0 256 278 236 0 +0.0265
56 0.003468 0.0 0.0 0.0 -1.0 0.0014 1.0 0.0 0.0 81 1 258 161 20 256 0 0 279 237
 259 83 3 259 0.0 0.501960813999176 0.0 15 260 162 0 261 256 0 17 261 0 260 269
 273 262 266 264 0 269 +18 262 163 0 261 246 267 263 ?16 29 263 164 0 262 268 24
7 0.027956 0.003468 4.1148000000000007e-04 16 264 165 0 ?261 253 270 265 0 0 16
 30 265 166 0 264 271 254 0 +0.027956 0.003468 0.0 0.0 0.0 1.0 17 266 0 260 273
 269 267 261 264 0 276 -18 267 167 0 266 262 283 268 ?16 29 268 168 0 267 284 26
3 0.027956 0.003468 0.0 17 269 0 260 266 261 262 272 270 0 272 +16 270 169 0 ?26
9 264 274 271 0 0 16 31 271 170 0 270 275 265 0 +0.026556 0.003468 4.11480000000
00007e-04 0.0 0.0 1.0 1.0 0.0 0.0 0.0014 17 272 0 390 272 272 262 269 270 0 0 -1
7 273 0 260 261 266 267 276 274 0 0 -16 274 171 0 ?276 270 285 275 0 0 16 31 275
 172 0 274 286 271 0 +0.026556 0.003468 0.0 0.0 0.0 1.0 1.0 0.0 0.0 0.0014 17 27
6 0 373 276 276 267 273 274 0 273 +14 277 173 279 1.0e-08 298 256 281 26 278 -0
 0 298 256 24 51 278 174 0 277 299 257 0 +0.022987 0.020955 0.0 0.0 0.0 -1.0 3.8
100000000000002e-04 1.0 0.0 0.0 81 1 279 175 20 277 0 0 300 258 280 83 3 280 0.0
 0.501960813999176 0.0 15 281 176 0 282 277 0 17 282 0 281 290 294 283 287 285 0
 290 +18 283 177 0 282 267 288 284 ?16 29 284 178 0 283 289 268 0.023368 0.02095
5 4.1148000000000007e-04 16 285 179 0 ?282 274 291 286 0 0 16 30 286 180 0 285 2
92 275 0 +0.023368 0.020955 0.0 0.0 0.0 1.0 17 287 0 281 294 290 288 282 285 0 2
97 -18 288 181 0 287 283 304 289 ?16 29 289 182 0 288 305 284 0.023368 0.020955
 0.0 17 290 0 281 287 282 283 293 291 0 293 +16 291 183 0 ?290 285 295 292 0 0 1
6 31 292 184 0 291 296 286 0 +0.022987 0.020955 4.1148000000000007e-04 0.0 0.0 1
.0 1.0 0.0 0.0 3.8100000000000002e-04 17 293 0 391 293 293 283 290 291 0 0 -17 2
94 0 281 282 287 288 297 295 0 0 -16 295 185 0 ?297 291 306 296 0 0 16 31 296 18
6 0 295 307 292 0 +0.022987 0.020955 0.0 0.0 0.0 1.0 1.0 0.0 0.0 3.8100000000000
002e-04 17 297 0 374 297 297 288 294 295 0 294 +14 298 187 300 1.0e-08 319 277 3
02 26 299 -0 0 319 277 24 51 299 188 0 298 320 278 0 +0.018923 0.0254 0.0 0.0 0.
0 -1.0 3.8100000000000002e-04 1.0 0.0 0.0 81 1 300 189 20 298 0 0 321 279 301 83
 3 301 0.0 0.501960813999176 0.0 15 302 190 0 303 298 0 17 303 0 302 311 315 304
 308 306 0 311 +18 304 191 0 303 288 309 305 ?16 29 305 192 0 304 310 289 0.0193
04 0.0254 4.1148000000000007e-04 16 306 193 0 ?303 295 312 307 0 0 16 30 307 194
 0 306 313 296 0 +0.019304 0.0254 0.0 0.0 0.0 1.0 17 308 0 302 315 311 309 303 3
06 0 318 -18 309 195 0 308 304 325 310 ?16 29 310 196 0 309 326 305 0.019304 0.0
254 0.0 17 311 0 302 308 303 304 314 312 0 314 +16 312 197 0 ?311 306 316 313 0
 0 16 31 313 198 0 312 317 307 0 +0.018923 0.0254 4.1148000000000007e-04 0.0 0.0
 1.0 1.0 0.0 0.0 3.8100000000000002e-04 17 314 0 392 314 314 304 311 312 0 0 -17
 315 0 302 303 308 309 318 316 0 0 -16 316 199 0 ?318 312 327 317 0 0 16 31 317
 200 0 316 328 313 0 +0.018923 0.0254 0.0 0.0 0.0 1.0 1.0 0.0 0.0 3.810000000000
0002e-04 17 318 0 375 318 318 309 315 316 0 315 +14 319 201 321 1.0e-08 340 298
 323 26 320 -0 0 340 298 24 51 320 202 0 319 341 299 0 +0.025527 0.020955 0.0 0.
0 0.0 -1.0 3.8100000000000002e-04 1.0 0.0 0.0 81 1 321 203 20 319 0 0 342 300 32
2 83 3 322 0.0 0.501960813999176 0.0 15 323 204 0 324 319 0 17 324 0 323 332 336
 325 329 327 0 332 +18 325 205 0 324 309 330 326 ?16 29 326 206 0 325 331 310 0.
025908 0.020955 4.1148000000000007e-04 16 327 207 0 ?324 316 333 328 0 0 16 30 3
28 208 0 327 334 317 0 +0.025908 0.020955 0.0 0.0 0.0 1.0 17 329 0 323 336 332 3
30 324 327 0 339 -18 330 209 0 329 325 346 331 ?16 29 331 210 0 330 347 326 0.02
5908 0.020955 0.0 17 332 0 323 329 324 325 335 333 0 335 +16 333 211 0 ?332 327
 337 334 0 0 16 31 334 212 0 333 338 328 0 +0.025527 0.020955 4.1148000000000007
e-04 0.0 0.0 1.0 1.0 0.0 0.0 3.8100000000000002e-04 17 335 0 393 335 335 325 332
 333 0 0 -17 336 0 323 324 329 330 339 337 0 0 -16 337 213 0 ?339 333 348 338 0
 0 16 31 338 214 0 337 349 334 0 +0.025527 0.020955 0.0 0.0 0.0 1.0 1.0 0.0 0.0
 3.8100000000000002e-04 17 339 0 376 339 339 330 336 337 0 336 +14 340 215 342 1
.0e-08 361 319 344 26 341 -0 0 361 319 24 51 341 216 0 340 362 320 0 +0.026556 0
.061468 0.0 0.0 0.0 -1.0 0.0014 1.0 0.0 0.0 81 1 342 217 20 340 0 0 363 321 343
 83 3 343 0.0 0.501960813999176 0.0 15 344 218 0 345 340 0 17 345 0 344 353 357
 346 350 348 0 353 +18 346 219 0 345 330 351 347 ?16 29 347 220 0 346 352 331 0.
027956 0.061468 4.1148000000000007e-04 16 348 221 0 ?345 337 354 349 0 0 16 30 3
49 222 0 348 355 338 0 +0.027956 0.061468 0.0 0.0 0.0 1.0 17 350 0 344 357 353 3
51 345 348 0 360 -18 351 223 0 350 346 0 352 ?16 29 352 224 0 351 0 347 0.027956
 0.061468 0.0 17 353 0 344 350 345 346 356 354 0 356 +16 354 225 0 ?353 348 358
 355 0 0 16 31 355 226 0 354 359 349 0 +0.026556 0.061468 4.1148000000000007e-04
 0.0 0.0 1.0 1.0 0.0 0.0 0.0014 17 356 0 394 356 356 346 353 354 0 0 -17 357 0 3
44 345 350 351 360 358 0 0 -16 358 227 0 ?360 354 0 359 0 0 16 31 359 228 0 358
 0 355 0 +0.026556 0.061468 0.0 0.0 0.0 1.0 1.0 0.0 0.0 0.0014 17 360 0 377 360
 360 351 357 358 0 357 +14 361 229 363 1.0e-08 378 340 365 26 362 -0 0 378 340 2
4 50 362 230 0 361 379 341 0 +0.0150495 0.0324485 0.0 0.0 0.0 1.0 1.0 0.0 0.0 81
 1 363 231 20 361 0 0 380 342 364 83 3 364 0.0 0.501960813999176 0.0 15 365 232
 0 108 361 366 15 366 233 0 129 361 367 15 367 234 0 150 361 368 15 368 235 0 17
1 361 369 15 369 236 0 192 361 370 15 370 237 0 213 361 371 15 371 238 0 234 361
 372 15 372 239 0 255 361 373 15 373 240 0 276 361 374 15 374 241 0 297 361 375
 15 375 242 0 318 361 376 15 376 243 0 339 361 377 15 377 244 0 360 361 0 14 378
 245 380 1.0e-08 0 361 382 26 379 +0 0 0 361 24 50 379 246 0 378 0 362 0 +0.0150
495 0.0324485 4.1148000000000007e-04 0.0 0.0 1.0 1.0 0.0 0.0 81 1 380 247 20 378
 0 0 0 363 381 83 3 381 0.0 0.501960813999176 0.0 15 382 248 0 35 378 383 15 383
 249 0 125 378 384 15 384 250 0 146 378 385 15 385 251 0 167 378 386 15 386 252
 0 188 378 387 15 387 253 0 209 378 388 15 388 254 0 230 378 389 15 389 255 0 25
1 378 390 15 390 256 0 272 378 391 15 391 257 0 293 378 392 15 392 258 0 314 378
 393 15 393 259 0 335 378 394 15 394 260 0 356 378 0 11 395 3 0 1 396 0 1 514 8
 0 0 10 396 3 397 399 0 0 0 0 0 1000.0 1.0e-08 395 0 0 1 0 1 401 81 1 397 1 3 39
6 0 0 0 0 398 84 5 398 SHT3070 399 0 396 0 0 4 1 20 0 400 400 1 T74 20 400 1 0 3
97 0 0 0 0 0 0 0 0 0 0 0 0 0 0 0 0 0 0 0 11 401 2 0 1 403 402 396 0 0 0 0 100 40
2 3 401 0 0 1.0 0.0 0.0 0.0 1.0 0.0 0.0 0.0 1.0 0.021717000579834 0.015938498260
498 0.0 1.0 3 ?10 403 3 404 406 0 0 0 0 0 1000.0 1.0e-08 401 0 0 1 0 1 408 81 1
 404 1 3 403 0 0 0 0 405 84 10 405 605849355270 406 0 403 0 0 4 1 20 0 407 407 1
 T74 20 407 1 0 404 0 0 0 0 0 0 0 0 0 0 0 0 0 0 0 0 0 0 0 11 408 2 409 1 411 0 4
03 0 0 0 0 81 1 409 3 3 408 0 0 0 0 410 84 1 410 112 411 69 412 414 0 0 0 0 1000
.0 1.0e-08 408 0 0 1 0 1 1 421 423 429 427 418 428 426 81 1 412 1 3 411 0 0 0 0
 413 84 8 413 Extruded70 414 0 411 0 0 4 2 20 0 415 415 1 T74 20 415 2 0 412 416
 0 0 0 0 0 0 0 0 0 0 0 0 0 0 0 0 0 0 81 1 416 8 20 422 0 0 451 0 417 83 3 417 0.
501960813999176 0.501960813999176 0.501960813999176 19 418 2 0 411 420 0 419 V13
 419 3 0 411 0 0 0 0 418 422 19 420 4 0 411 0 418 421 S13 421 5 0 411 0 422 0 0
 420 0 14 422 6 416 1.0e-08 449 0 424 421 423 -0 0 449 0 419 50 423 7 0 422 450
 0 0 +0.006477 0.0060325 0.0 0.0 -1.0 0.0 -1.0 0.0 0.0 15 424 9 0 425 422 0 17 4
25 0 424 433 445 426 430 428 0 459 +18 426 10 0 438 0 431 427 ?411 29 427 11 0 4
26 432 0 -0.006477 0.0060325 0.0 16 428 12 0 ?425 0 436 429 0 0 411 30 429 13 0
 428 437 0 0 +0.006477 0.0060325 0.0 -1.0 0.0 0.0 17 430 0 508 499 459 431 425 4
28 0 496 -18 431 14 0 445 426 434 432 ?411 29 432 15 0 431 435 427 0.006477 0.00
60325 0.0 17 433 0 424 439 425 434 438 436 0 466 +18 434 16 0 444 431 440 435 ?4
11 29 435 17 0 434 441 432 -0.006477 0.0060325 0.00100000054 16 436 18 0 ?433 42
8 442 437 0 0 411 30 437 19 0 436 443 429 0 +-0.006477 0.0060325 0.0 0.0 0.0 1.0
 17 438 0 453 454 466 426 433 436 0 425 -17 439 0 424 445 433 440 444 442 0 503
 -18 440 20 0 448 434 455 441 ?411 29 441 21 0 440 456 435 0.006477 0.0060325 0.
00100000054 16 442 22 0 ?444 436 446 443 0 0 411 30 443 23 0 442 447 437 0 +0.00
6477 0.0060325 0.00100000054 -1.0 0.0 0.0 17 444 0 513 469 503 434 439 442 0 433
 +17 445 0 424 425 439 431 448 446 0 430 -16 446 24 0 ?448 442 457 447 0 0 411 3
0 447 25 0 446 458 443 0 +0.006477 0.0060325 0.0 0.0 0.0 1.0 17 448 0 495 500 49
6 440 445 446 0 439 +14 449 26 451 1.0e-08 470 422 453 421 450 -0 0 470 422 419
 50 450 27 0 449 471 423 0 +-0.006477 0.0060325 0.0 1.0 0.0 0.0 0.0 -1.0 0.0 81
 1 451 28 20 449 0 0 472 416 452 83 3 452 0.501960813999176 0.501960813999176 0.
501960813999176 15 453 29 0 454 449 0 17 454 0 453 460 438 455 459 457 0 480 +18
 455 30 0 465 440 461 456 ?411 29 456 31 0 455 462 441 -0.006477 -0.0060325 0.0
 16 457 32 0 ?454 446 463 458 0 0 411 30 458 33 0 457 464 447 0 +-0.006477 0.006
0325 0.0 0.0 -1.0 0.0 17 459 0 508 430 480 426 454 457 0 0 -17 460 0 453 466 454
 461 465 463 0 487 +18 461 34 0 469 455 476 462 ?411 29 462 35 0 461 477 456 -0.
006477 -0.0060325 0.00100000054 16 463 36 0 ?460 457 467 464 0 0 411 30 464 37 0
 463 468 458 0 +-0.006477 -0.0060325 0.0 0.0 0.0 1.0 17 465 0 474 475 487 455 46
0 463 0 454 -17 466 0 453 438 460 434 469 467 0 0 -16 467 38 0 ?469 463 478 468
 0 0 411 30 468 39 0 467 479 464 0 +-0.006477 0.0060325 0.00100000054 0.0 -1.0 0
.0 17 469 0 513 490 444 461 466 467 0 460 +14 470 40 472 1.0e-08 491 449 474 421
 471 -0 0 491 449 419 50 471 41 0 470 492 450 0 +-0.006477 -0.0060325 0.0 0.0 1.
0 0.0 1.0 0.0 0.0 81 1 472 42 20 470 0 0 493 451 473 83 3 473 0.501960813999176
 0.501960813999176 0.501960813999176 15 474 43 0 475 470 0 17 475 0 474 481 465
 476 480 478 0 499 +18 476 44 0 486 461 482 477 ?411 29 477 45 0 476 483 462 0.0
06477 -0.0060325 0.0 16 478 46 0 ?475 467 484 479 0 0 411 30 479 47 0 478 485 46
8 0 +-0.006477 -0.0060325 0.0 1.0 0.0 0.0 17 480 0 508 459 499 455 475 478 0 0 -
17 481 0 474 487 475 482 486 484 0 500 +18 482 48 0 490 476 0 483 ?411 29 483 49
 0 482 0 477 0.006477 -0.0060325 0.00100000054 16 484 50 0 ?481 478 488 485 0 0
 411 30 485 51 0 484 489 479 0 +0.006477 -0.0060325 0.0 0.0 0.0 1.0 17 486 0 495
 496 500 476 481 484 0 475 -17 487 0 474 465 481 461 490 488 0 0 -16 488 52 0 ?4
90 484 497 489 0 0 411 30 489 53 0 488 498 485 0 +-0.006477 -0.0060325 0.0010000
0054 1.0 0.0 0.0 17 490 0 513 503 469 482 487 488 0 481 +14 491 54 493 1.0e-08 5
04 470 495 421 492 -0 0 504 470 419 50 492 55 0 491 505 471 0 +0.006477 -0.00603
25 0.0 -1.0 0.0 0.0 0.0 1.0 0.0 81 1 493 56 20 491 0 0 506 472 494 83 3 494 0.50
1960813999176 0.501960813999176 0.501960813999176 15 495 57 0 496 491 0 17 496 0
 495 448 486 431 499 497 0 0 +16 497 58 0 ?496 488 501 498 0 0 411 30 498 59 0 4
97 502 489 0 +0.006477 -0.0060325 0.0 0.0 1.0 0.0 17 499 0 508 480 430 476 496 4
97 0 0 -17 500 0 495 486 448 482 503 501 0 0 -16 501 60 0 ?503 497 0 502 0 0 411
 30 502 61 0 501 0 498 0 +0.006477 -0.0060325 0.00100000054 0.0 1.0 0.0 17 503 0
 513 444 490 440 500 501 0 0 +14 504 62 506 1.0e-08 509 491 508 421 505 -0 0 509
 491 419 50 505 63 0 504 510 492 0 +3.9760175469210002e-18 -2.8400125335150004e-
19 0.0 0.0 0.0 1.0 1.0 0.0 0.0 81 1 506 64 20 504 0 0 511 493 507 83 3 507 0.501
960813999176 0.501960813999176 0.501960813999176 15 508 65 0 499 504 0 14 509 66
 511 1.0e-08 0 504 513 421 510 +0 0 0 504 419 50 510 67 0 509 0 505 0 +3.9760175
469210002e-18 -2.8400125335150004e-19 0.00100000054 0.0 0.0 1.0 1.0 0.0 0.0 81 1
 511 68 20 509 0 0 0 506 512 83 3 512 0.501960813999176 0.501960813999176 0.5019
60813999176 15 513 69 0 444 509 0 11 514 4 0 1 515 0 1 633 395 0 0 10 515 3 516
 518 0 0 0 0 0 1000.0 1.0e-08 514 0 0 1 0 1 520 81 1 516 1 3 515 0 0 0 0 517 84
 2 517 U_70 518 0 515 0 0 4 1 20 0 519 519 1 T74 20 519 1 0 516 0 0 0 0 0 0 0 0
 0 0 0 0 0 0 0 0 0 0 0 11 520 2 0 1 522 521 515 0 0 0 0 100 521 3 520 0 0 1.0 0.
0 0.0 0.0 1.0 0.0 0.0 0.0 1.0 0.0073019958496094 0.0110489985961914 9.9999755620
95642e-05 1.0 3 ?10 522 3 523 525 0 0 0 0 0 1000.0 1.0e-08 520 0 0 1 0 1 527 81
 1 523 1 3 522 0 0 0 0 524 84 10 524 605849003270 525 0 522 0 0 4 1 20 0 526 526
 1 T74 20 526 1 0 523 0 0 0 0 0 0 0 0 0 0 0 0 0 0 0 0 0 0 0 11 527 2 528 1 530 0
 522 0 0 0 0 81 1 528 3 3 527 0 0 0 0 529 84 1 529 212 530 69 531 533 0 0 0 0 10
00.0 1.0e-08 527 0 0 1 0 1 1 540 542 548 546 537 547 545 81 1 531 1 3 530 0 0 0
 0 532 84 8 532 Extruded70 533 0 530 0 0 4 2 20 0 534 534 1 T74 20 534 2 0 531 5
35 0 0 0 0 0 0 0 0 0 0 0 0 0 0 0 0 0 0 81 1 535 8 20 541 0 0 570 0 536 83 3 536
 0.501960813999176 0.501960813999176 0.501960813999176 19 537 2 0 530 539 0 538
 V13 538 3 0 530 0 0 0 0 537 541 19 539 4 0 530 0 537 540 S13 540 5 0 530 0 541
 0 0 539 0 14 541 6 535 1.0e-08 568 0 543 540 542 -0 0 568 0 538 50 542 7 0 541
 569 0 0 +-0.00199999854 0.00500000016 0.0 1.0 0.0 0.0 0.0 -1.0 0.0 15 543 9 0 5
44 541 0 17 544 0 543 552 564 545 549 547 0 578 +18 545 10 0 557 0 550 546 ?530
 29 546 11 0 545 551 0 -0.00199999854 -0.00500000016 0.0 16 547 12 0 ?544 0 555
 548 0 0 530 30 548 13 0 547 556 0 0 +-0.00199999854 0.00500000016 0.0 0.0 -1.0
 0.0 17 549 0 627 618 578 550 544 547 0 615 -18 550 14 0 564 545 553 551 ?530 29
 551 15 0 550 554 546 -0.00199999854 0.00500000016 0.0 17 552 0 543 558 544 553
 557 555 0 585 +18 553 16 0 563 550 559 554 ?530 29 554 17 0 553 560 551 -0.0019
9999854 -0.00500000016 0.00164999924 16 555 18 0 ?552 547 561 556 0 0 530 30 556
 19 0 555 562 548 0 +-0.00199999854 -0.00500000016 0.0 0.0 0.0 1.0 17 557 0 572
 573 585 545 552 555 0 544 -17 558 0 543 564 552 559 563 561 0 622 -18 559 20 0
 567 553 574 560 ?530 29 560 21 0 559 575 554 -0.00199999854 0.00500000016 0.001
64999924 16 561 22 0 ?563 555 565 562 0 0 530 30 562 23 0 561 566 556 0 +-0.0019
9999854 0.00500000016 0.00164999924 0.0 -1.0 0.0 17 563 0 632 588 622 553 558 56
1 0 552 +17 564 0 543 544 558 550 567 565 0 549 -16 565 24 0 ?567 561 576 566 0
 0 530 30 566 25 0 565 577 562 0 +-0.00199999854 0.00500000016 0.0 0.0 0.0 1.0 1
7 567 0 614 619 615 559 564 565 0 558 +14 568 26 570 1.0e-08 589 541 572 540 569
 -0 0 589 541 538 50 569 27 0 568 590 542 0 +-0.00199999854 -0.00500000016 0.0 0
.0 1.0 0.0 1.0 0.0 0.0 81 1 570 28 20 568 0 0 591 535 571 83 3 571 0.50196081399
9176 0.501960813999176 0.501960813999176 15 572 29 0 573 568 0 17 573 0 572 579
 557 574 578 576 0 599 +18 574 30 0 584 559 580 575 ?530 29 575 31 0 574 581 560
 0.00200000108 -0.00500000016 0.0 16 576 32 0 ?573 565 582 577 0 0 530 30 577 33
 0 576 583 566 0 +-0.00199999854 -0.00500000016 0.0 1.0 0.0 0.0 17 578 0 627 549
 599 545 573 576 0 0 -17 579 0 572 585 573 580 584 582 0 606 +18 580 34 0 588 57
4 595 581 ?530 29 581 35 0 580 596 575 0.00200000108 -0.00500000016 0.0016499992
4 16 582 36 0 ?579 576 586 583 0 0 530 30 583 37 0 582 587 577 0 +0.00200000108
 -0.00500000016 0.0 0.0 0.0 1.0 17 584 0 593 594 606 574 579 582 0 573 -17 585 0
 572 557 579 553 588 586 0 0 -16 586 38 0 ?588 582 597 587 0 0 530 30 587 39 0 5
86 598 583 0 +-0.00199999854 -0.00500000016 0.00164999924 1.0 0.0 0.0 17 588 0 6
32 609 563 580 585 586 0 579 +14 589 40 591 1.0e-08 610 568 593 540 590 -0 0 610
 568 538 50 590 41 0 589 611 569 0 +0.00200000108 -0.00500000016 0.0 -1.0 0.0 0.
0 0.0 1.0 0.0 81 1 591 42 20 589 0 0 612 570 592 83 3 592 0.501960813999176 0.50
1960813999176 0.501960813999176 15 593 43 0 594 589 0 17 594 0 593 600 584 595 5
99 597 0 618 +18 595 44 0 605 580 601 596 ?530 29 596 45 0 595 602 581 0.0020000
0108 0.00500000016 0.0 16 597 46 0 ?594 586 603 598 0 0 530 30 598 47 0 597 604
 587 0 +0.00200000108 -0.00500000016 0.0 0.0 1.0 0.0 17 599 0 627 578 618 574 59
4 597 0 0 -17 600 0 593 606 594 601 605 603 0 619 +18 601 48 0 609 595 0 602 ?53
0 29 602 49 0 601 0 596 0.00200000108 0.00500000016 0.00164999924 16 603 50 0 ?6
00 597 607 604 0 0 530 30 604 51 0 603 608 598 0 +0.00200000108 0.00500000016 0.
0 0.0 0.0 1.0 17 605 0 614 615 619 595 600 603 0 594 -17 606 0 593 584 600 580 6
09 607 0 0 -16 607 52 0 ?609 603 616 608 0 0 530 30 608 53 0 607 617 604 0 +0.00
200000108 -0.00500000016 0.00164999924 0.0 1.0 0.0 17 609 0 632 622 588 601 606
 607 0 600 +14 610 54 612 1.0e-08 623 589 614 540 611 -0 0 623 589 538 50 611 55
 0 610 624 590 0 +0.00200000108 0.00500000016 0.0 0.0 -1.0 0.0 -1.0 0.0 0.0 81 1
 612 56 20 610 0 0 625 591 613 83 3 613 0.501960813999176 0.501960813999176 0.50
1960813999176 15 614 57 0 615 610 0 17 615 0 614 567 605 550 618 616 0 0 +16 616
 58 0 ?615 607 620 617 0 0 530 30 617 59 0 616 621 608 0 +0.00200000108 0.005000
00016 0.0 -1.0 0.0 0.0 17 618 0 627 599 549 595 615 616 0 0 -17 619 0 614 605 56
7 601 622 620 0 0 -16 620 60 0 ?622 616 0 621 0 0 530 30 621 61 0 620 0 617 0 +0
.00200000108 0.00500000016 0.00164999924 -1.0 0.0 0.0 17 622 0 632 563 609 559 6
19 620 0 0 +14 623 62 625 1.0e-08 628 610 627 540 624 -0 0 628 610 538 50 624 63
 0 623 629 611 0 +1.270000003831e-09 -6.978544756123001e-18 0.0 0.0 0.0 1.0 1.0
 0.0 0.0 81 1 625 64 20 623 0 0 630 612 626 83 3 626 0.501960813999176 0.5019608
13999176 0.501960813999176 15 627 65 0 618 623 0 14 628 66 630 1.0e-08 0 623 632
 540 629 +0 0 0 623 538 50 629 67 0 628 0 624 0 +1.270000003831e-09 -6.978544756
123001e-18 0.00164999924 0.0 0.0 1.0 1.0 0.0 0.0 81 1 630 68 20 628 0 0 0 625 63
1 83 3 631 0.501960813999176 0.501960813999176 0.501960813999176 15 632 69 0 563
 628 0 11 633 5 0 1 634 0 1 0 514 0 0 10 634 3 635 637 0 0 0 0 0 1000.0 1.0e-08
 633 0 0 1 0 1 639 81 1 635 1 3 634 0 0 0 0 636 84 3 636 GPS70 637 0 634 0 0 4 1
 20 0 638 638 1 T74 20 638 1 0 635 0 0 0 0 0 0 0 0 0 0 0 0 0 0 0 0 0 0 0 11 639
 2 0 1 641 640 634 0 0 0 0 100 640 3 639 0 0 -0.9999999999999962 8.7422776573475
52e-08 0.0 -8.742277657347552e-08 -0.9999999999999962 0.0 0.0 0.0 1.0 0.01523999
93896484 0.0416560008544922 0.0 1.0 3 ?12 641 141 642 644 0 0 0 0 1000.0 1.0e-08
 639 0 0 1 0 1 1 651 653 661 659 648 660 658 81 1 642 1 3 641 0 0 654 0 643 84 3
 643 gps70 644 0 641 0 0 4 2 20 0 645 645 1 T74 20 645 2 0 642 646 0 0 0 0 0 0 0
 0 0 0 0 0 0 0 0 0 0 0 81 1 646 8 20 652 654 0 683 0 647 83 3 647 0.792156875133
5144 0.8196078538894654 0.9333333373069764 19 648 2 0 641 650 0 649 V13 649 3 0
 641 0 0 0 0 648 652 19 650 4 0 641 0 648 651 S13 651 5 0 641 0 652 0 0 650 0 14
 652 6 646 1.0e-08 681 0 656 651 653 -0 0 681 0 649 50 653 7 0 652 682 0 0 +-0.0
13 -0.01825 0.0015 1.0 0.0 0.0 0.0 0.0 -1.0 81 1 654 9 3 652 0 646 685 642 655 8
4 7 655 unnamed15 656 10 0 657 652 0 17 657 0 656 665 677 658 662 660 0 670 +18
 658 11 0 657 0 663 659 ?641 29 659 12 0 658 664 0 -0.013 -0.01825 0.0 16 660 13
 0 ?657 0 668 661 0 0 641 30 661 14 0 660 669 0 0 +-0.013 -0.01825 0.0 0.0 -1.0
 0.0 17 662 0 780 737 693 663 657 660 0 677 -18 663 15 0 662 658 666 664 ?641 29
 664 16 0 663 667 659 -0.013 0.01825 0.0 17 665 0 656 671 657 666 670 668 0 676
 -18 666 17 0 665 663 672 667 ?641 29 667 18 0 666 673 664 -0.013 -0.01825 0.001
5 16 668 19 0 ?670 660 674 669 0 0 641 30 669 20 0 668 675 661 0 +-0.013 -0.0182
5 0.0015 0.0 0.0 -1.0 17 670 0 687 688 700 658 665 668 0 693 +17 671 0 656 677 6
65 672 676 674 0 680 -18 672 21 0 671 666 689 673 ?641 29 673 22 0 672 690 667 -
0.013 0.01825 0.0015 16 674 23 0 ?676 668 678 675 0 0 641 30 675 24 0 674 679 66
9 0 +-0.013 -0.01825 0.0015 0.0 -1.0 0.0 17 676 0 773 703 741 666 671 674 0 700
 +17 677 0 656 657 671 663 680 678 0 734 +16 678 25 0 ?677 674 691 679 0 0 641 3
0 679 26 0 678 692 675 0 +-0.013 0.01825 0.0015 0.0 0.0 -1.0 17 680 0 733 738 73
4 672 677 678 0 741 -14 681 27 683 1.0e-08 704 652 687 651 682 -0 0 704 652 649
 50 682 28 0 681 705 653 0 +0.013 -0.01825 0.0015 -2.668805347656626e-16 1.0 0.0
 -1.0 -2.668805347656626e-16 0.0 81 1 683 29 20 681 685 0 706 646 684 83 3 684 0
.7921568751335144 0.8196078538894654 0.9333333373069764 81 1 685 30 3 681 0 683
 708 654 686 84 7 686 unnamed15 687 31 0 688 681 0 17 688 0 687 694 670 689 693
 691 0 699 +18 689 32 0 688 672 695 690 ?641 29 690 33 0 689 696 673 0.013 -0.01
825 0.0 16 691 34 0 ?688 678 697 692 0 0 641 30 692 35 0 691 698 679 0 +0.013 -0
.01825 0.0 1.0 2.668805347656626e-16 0.0 17 693 0 780 662 716 658 688 691 0 0 -1
7 694 0 687 700 688 695 699 697 0 703 -18 695 36 0 694 689 712 696 ?641 29 696 3
7 0 695 713 690 0.013 -0.01825 0.0015 16 697 38 0 ?699 691 701 698 0 0 641 30 69
8 39 0 697 702 692 0 +0.013 -0.01825 0.0015 0.0 0.0 -1.0 17 699 0 710 711 723 68
9 694 697 0 716 +17 700 0 687 670 694 666 703 701 0 0 -16 701 40 0 ?703 697 714
 702 0 0 641 30 702 41 0 701 715 698 0 +0.013 -0.01825 0.0015 1.0 2.668805347656
626e-16 0.0 17 703 0 773 726 676 695 700 701 0 723 +14 704 42 706 1.0e-08 727 68
1 710 651 705 -0 0 727 681 649 50 705 43 0 704 728 682 0 +0.013 -0.01825 0.0015
 -1.0 -4.7526670574707054e-17 0.0 4.7526670574707054e-17 -1.0 0.0 81 1 706 44 20
 704 708 0 729 683 707 83 3 707 0.7921568751335144 0.8196078538894654 0.93333333
73069764 81 1 708 45 3 704 0 706 731 685 709 84 7 709 unnamed15 710 46 0 711 704
 0 17 711 0 710 717 699 712 716 714 0 722 +18 712 47 0 711 695 718 713 ?641 29 7
13 48 0 712 719 696 0.013 0.01825 0.0 16 714 49 0 ?711 701 720 715 0 0 641 30 71
5 50 0 714 721 702 0 +0.013 -0.01825 0.0 -4.7526670574707054e-17 1.0 0.0 17 716
 0 780 693 737 689 711 714 0 0 -17 717 0 710 723 711 718 722 720 0 726 -18 718 5
1 0 717 712 750 719 ?641 29 719 52 0 718 751 713 0.013 0.01825 0.0015 16 720 53
 0 ?722 714 724 721 0 0 641 30 721 54 0 720 725 715 0 +0.013 0.01825 0.0015 0.0
 0.0 -1.0 17 722 0 733 734 738 712 717 720 0 737 +17 723 0 710 699 717 695 726 7
24 0 0 -16 724 55 0 ?726 720 735 725 0 0 641 30 725 56 0 724 736 721 0 +0.013 -0
.01825 0.0015 -4.7526670574707054e-17 1.0 0.0 17 726 0 773 741 703 718 723 724 0
 738 +14 727 57 729 1.0e-08 742 704 733 651 728 -0 0 742 704 649 50 728 58 0 727
 743 705 0 +0.013 0.01825 0.0015 2.668805347656626e-16 -1.0 0.0 1.0 2.6688053476
56626e-16 0.0 81 1 729 59 20 727 731 0 744 706 730 83 3 730 0.7921568751335144 0
.8196078538894654 0.9333333373069764 81 1 731 60 3 727 0 729 746 708 732 84 7 73
2 unnamed15 733 61 0 734 727 0 17 734 0 733 680 722 663 737 735 0 0 +16 735 62 0
 ?734 724 739 736 0 0 641 30 736 63 0 735 740 725 0 +0.013 0.01825 0.0 -1.0 -2.6
688053476566266e-16 0.0 17 737 0 780 716 662 712 734 735 0 0 -17 738 0 733 722 6
80 718 741 739 0 0 -16 739 64 0 ?741 735 752 740 0 0 641 30 740 65 0 739 753 736
 0 +0.013 0.01825 0.0015 -1.0 -2.6688053476566266e-16 0.0 17 741 0 773 676 726 6
72 738 739 0 0 +14 742 66 744 1.0e-08 774 727 748 651 743 +0 0 774 727 649 50 74
3 67 0 742 775 728 0 +0.0 0.0 0.0015 0.0 0.0 1.0 1.0 0.0 0.0 81 1 744 68 20 742
 746 0 776 729 745 83 3 745 0.7921568751335144 0.8196078538894654 0.933333337306
9764 81 1 746 69 3 742 0 744 778 731 747 84 7 747 unnamed15 748 70 0 749 742 773
 17 749 0 748 757 769 750 754 752 0 762 -18 750 71 0 749 718 755 751 ?641 29 751
 72 0 750 756 719 -0.0089488134637361 0.0049547102793567 0.0015 16 752 73 0 ?754
 739 760 753 0 0 641 30 753 74 0 752 761 740 0 +-0.0089488134637361 -0.004954710
2793567 0.0015 0.0 -1.0 0.0 17 754 0 787 788 800 755 749 752 0 769 +18 755 75 0
 754 750 758 756 ?641 29 756 76 0 755 759 751 -0.0089488134637361 -0.00495471027
93567 0.0015 17 757 0 748 763 749 758 762 760 0 768 -18 758 77 0 757 755 764 759
 ?641 29 759 78 0 758 765 756 0.0089488134637361 0.0049547102793567 0.0015 16 76
0 79 0 ?762 752 766 761 0 0 641 30 761 80 0 760 767 753 0 +0.0089488134637361 0.
0049547102793567 0.0015 -1.0 0.0 0.0 17 762 0 844 803 833 750 757 760 0 800 +17
 763 0 748 769 757 764 768 766 0 772 -18 764 81 0 763 758 789 765 ?641 29 765 82
 0 764 790 759 0.0089488134637361 -0.0049547102793567 0.0015 16 766 83 0 ?768 76
0 770 767 0 0 641 30 767 84 0 766 771 761 0 +0.0089488134637361 -0.0049547102793
567 0.0015 0.0 1.0 0.0 17 768 0 827 828 816 758 763 766 0 833 +17 769 0 748 749
 763 755 772 770 0 793 -16 770 85 0 ?772 766 791 771 0 0 641 30 771 86 0 770 792
 767 0 +0.0089488134637361 -0.0049547102793567 0.0015 1.0 0.0 0.0 17 772 0 810 8
11 793 764 769 770 0 816 +15 773 87 0 676 742 0 14 774 88 776 1.0e-08 781 742 78
0 651 775 -0 0 781 742 649 50 775 89 0 774 782 743 0 +0.0 0.0 0.0 0.0 0.0 1.0 1.
0 0.0 0.0 81 1 776 90 20 774 778 0 783 744 777 83 3 777 0.7921568751335144 0.819
6078538894654 0.9333333373069764 81 1 778 91 3 774 0 776 785 746 779 84 7 779 un
named15 780 92 0 662 774 0 14 781 93 783 1.0e-08 804 774 787 651 782 -0 0 804 77
4 649 50 782 94 0 781 805 775 0 +-0.0089488134637361 -0.0049547102793567 0.0038
 1.0 0.0 0.0 0.0 0.0 -1.0 81 1 783 95 20 781 785 0 806 776 784 83 3 784 0.792156
8751335144 0.8196078538894654 0.9333333373069764 81 1 785 96 3 781 0 783 808 778
 786 84 7 786 unnamed15 787 97 0 754 781 0 17 788 0 787 794 754 789 793 791 0 79
9 -18 789 98 0 788 764 795 790 ?641 29 790 99 0 789 796 765 -0.0089488134637361
 -0.0049547102793567 0.0038 16 791 100 0 ?793 770 797 792 0 0 641 30 792 101 0 7
91 798 771 0 +-0.0089488134637361 -0.0049547102793567 0.0038 0.0 0.0 -1.0 17 793
 0 810 772 817 755 788 791 0 0 +17 794 0 787 800 788 795 799 797 0 803 -18 795 1
02 0 794 789 812 796 ?641 29 796 103 0 795 813 790 -0.0089488134637361 0.0049547
102793567 0.0038 16 797 104 0 ?799 791 801 798 0 0 641 30 798 105 0 797 802 792
 0 +-0.0089488134637361 -0.0049547102793567 0.0038 0.0 -1.0 0.0 17 799 0 855 820
 848 789 794 797 0 817 +17 800 0 787 754 794 750 803 801 0 0 +16 801 106 0 ?800
 797 814 802 0 0 641 30 802 107 0 801 815 798 0 +-0.0089488134637361 0.004954710
2793567 0.0038 0.0 0.0 -1.0 17 803 0 844 845 762 795 800 801 0 848 -14 804 108 8
06 1.0e-08 821 781 810 651 805 -0 0 821 781 649 50 805 109 0 804 822 782 0 +0.00
89488134637361 -0.0049547102793567 0.0038 0.0 1.0 0.0 0.0 0.0 1.0 81 1 806 110 2
0 804 808 0 823 783 807 83 3 807 0.7921568751335144 0.8196078538894654 0.9333333
373069764 81 1 808 111 3 804 0 806 825 785 809 84 7 809 unnamed15 810 112 0 772
 804 0 17 811 0 810 817 772 812 816 814 0 820 -18 812 113 0 811 795 829 813 ?641
 29 813 114 0 812 830 796 0.0089488134637361 -0.0049547102793567 0.0038 16 814 1
15 0 ?816 801 818 815 0 0 641 30 815 116 0 814 819 802 0 +0.0089488134637361 -0.
0049547102793567 0.0038 0.0 0.0 -1.0 17 816 0 827 768 834 764 811 814 0 0 +17 81
7 0 810 793 811 789 820 818 0 0 -16 818 117 0 ?820 814 831 819 0 0 641 30 819 11
8 0 818 832 815 0 +0.0089488134637361 -0.0049547102793567 0.0038 1.0 0.0 0.0 17
 820 0 855 837 799 812 817 818 0 834 +14 821 119 823 1.0e-08 838 804 827 651 822
 -0 0 838 804 649 50 822 120 0 821 839 805 0 +0.0089488134637361 -0.004954710279
3567 0.0038 -1.0 0.0 0.0 0.0 0.0 1.0 81 1 823 121 20 821 825 0 840 806 824 83 3
 824 0.7921568751335144 0.8196078538894654 0.9333333373069764 81 1 825 122 3 821
 0 823 842 808 826 84 7 826 unnamed15 827 123 0 768 821 0 17 828 0 827 834 768 8
29 833 831 0 837 -18 829 124 0 828 812 0 830 ?641 29 830 125 0 829 0 813 0.00894
88134637361 0.0049547102793567 0.0038 16 831 126 0 ?833 818 835 832 0 0 641 30 8
32 127 0 831 836 819 0 +0.0089488134637361 0.0049547102793567 0.0038 0.0 0.0 -1.
0 17 833 0 844 762 845 758 828 831 0 0 +17 834 0 827 816 828 812 837 835 0 0 -16
 835 128 0 ?837 831 846 836 0 0 641 30 836 129 0 835 847 832 0 +0.00894881346373
61 -0.0049547102793567 0.0038 0.0 1.0 0.0 17 837 0 855 848 820 829 834 835 0 845
 +14 838 130 840 1.0e-08 849 821 844 651 839 -0 0 849 821 649 50 839 131 0 838 8
50 822 0 +0.0089488134637361 0.0049547102793567 0.0038 0.0 -1.0 0.0 0.0 0.0 -1.0
 81 1 840 132 20 838 842 0 851 823 841 83 3 841 0.7921568751335144 0.81960785388
94654 0.9333333373069764 81 1 842 133 3 838 0 840 853 825 843 84 7 843 unnamed15
 844 134 0 762 838 0 17 845 0 844 833 803 829 848 846 0 0 -16 846 135 0 ?848 835
 0 847 0 0 641 30 847 136 0 846 0 836 0 +0.0089488134637361 0.0049547102793567 0
.0038 -1.0 0.0 0.0 17 848 0 855 799 837 795 845 846 0 0 +14 849 137 851 1.0e-08
 0 838 855 651 850 +0 0 0 838 649 50 850 138 0 849 0 839 0 +0.0 0.0 0.0038 0.0 0
.0 1.0 1.0 0.0 0.0 81 1 851 139 20 849 853 0 0 840 852 83 3 852 0.79215687513351
44 0.8196078538894654 0.9333333373069764 81 1 853 140 3 849 0 851 0 842 854 84 7
 854 unnamed15 855 141 0 799 849 0 1 0 
