<?xml version="1.0" standalone="no"?>
 <!DOCTYPE svg PUBLIC "-//W3C//DTD SVG 1.1//EN" 
 "http://www.w3.org/Graphics/SVG/1.1/DTD/svg11.dtd"> 
<svg
  xmlns:svg="http://www.w3.org/2000/svg"
  xmlns="http://www.w3.org/2000/svg"
  xmlns:xlink="http://www.w3.org/1999/xlink"
  version="1.1"
  width="297.0022mm" height="210.0072mm" viewBox="0.0000 0.0000 297.0022 210.0072">
<title>SVG Image created as Piso_12-F_Cu.svg date 2023/10/23 02:48:21 </title>
  <desc>Image generated by PCBNEW </desc>
<g style="fill:#000000; fill-opacity:1.0000;stroke:#000000; stroke-opacity:1.0000;
stroke-linecap:round; stroke-linejoin:round;"
 transform="translate(0 0) scale(1 1)">
</g>
<g style="fill:#000000; fill-opacity:0.0; 
stroke:#000000; stroke-width:0.0000; stroke-opacity:1; 
stroke-linecap:round; stroke-linejoin:round;">
</g>
<g style="fill:#000000; fill-opacity:1.0000; 
stroke:#000000; stroke-width:0.0212; stroke-opacity:1; 
stroke-linecap:round; stroke-linejoin:round;">
<rect x="-10.638250" y="-18.100000" width="81.936500" height="67.778250" rx="0.000000" />
</g>
<g style="fill:#FFFFFF; fill-opacity:1.0000; 
stroke:#FFFFFF; stroke-width:0.0212; stroke-opacity:1; 
stroke-linecap:round; stroke-linejoin:round;">
<g >
</g>
<g style="fill:#37CBCB; fill-opacity:1.0000; 
stroke:#37CBCB; stroke-width:0.0212; stroke-opacity:1; 
stroke-linecap:round; stroke-linejoin:round;">
</g>
<g style="fill:#37CBCB; fill-opacity:1.0000; 
stroke:#37CBCB; stroke-width:0.0000; stroke-opacity:1; 
stroke-linecap:round; stroke-linejoin:round;">
<path style="fill:#37CBCB; fill-opacity:1.0000; 
stroke:#37CBCB; stroke-width:0.0000; stroke-opacity:1; 
stroke-linecap:round; stroke-linejoin:round;fill-rule:evenodd;"
d="M 47.6660,28.7900
45.9660,28.7900
45.9660,27.0900
47.6660,27.0900
Z" /> 
<circle cx="49.3560" cy="27.9400" r="0.8500" /> 
</g>
<g >
</g>
<g style="fill:#37CBCB; fill-opacity:1.0000; 
stroke:#37CBCB; stroke-width:0.0000; stroke-opacity:1; 
stroke-linecap:round; stroke-linejoin:round;">
<circle cx="58.7540" cy="30.9880" r="0.7000" /> 
</g>
<g style="fill:#37CBCB; fill-opacity:1.0000; 
stroke:#37CBCB; stroke-width:0.0212; stroke-opacity:1; 
stroke-linecap:round; stroke-linejoin:round;">
</g>
<g style="fill:#37CBCB; fill-opacity:1.0000; 
stroke:#37CBCB; stroke-width:0.0000; stroke-opacity:1; 
stroke-linecap:round; stroke-linejoin:round;">
<circle cx="58.7540" cy="38.6080" r="0.7000" /> 
</g>
<g >
</g>
<g style="fill:#37CBCB; fill-opacity:1.0000; 
stroke:#37CBCB; stroke-width:0.0000; stroke-opacity:1; 
stroke-linecap:round; stroke-linejoin:round;">
<circle cx="56.4680" cy="38.6080" r="0.7000" /> 
</g>
<g style="fill:#37CBCB; fill-opacity:1.0000; 
stroke:#37CBCB; stroke-width:0.0212; stroke-opacity:1; 
stroke-linecap:round; stroke-linejoin:round;">
</g>
<g style="fill:#37CBCB; fill-opacity:1.0000; 
stroke:#37CBCB; stroke-width:0.0000; stroke-opacity:1; 
stroke-linecap:round; stroke-linejoin:round;">
<circle cx="56.4680" cy="30.9880" r="0.7000" /> 
</g>
<g >
</g>
<g style="fill:#37CBCB; fill-opacity:1.0000; 
stroke:#37CBCB; stroke-width:0.0000; stroke-opacity:1; 
stroke-linecap:round; stroke-linejoin:round;">
<path style="fill:#37CBCB; fill-opacity:1.0000; 
stroke:#37CBCB; stroke-width:0.0000; stroke-opacity:1; 
stroke-linecap:round; stroke-linejoin:round;fill-rule:evenodd;"
d="M 5.3980,37.5285
3.3980,37.5285
3.3980,35.6235
5.3980,35.6235
Z" /> 
</g>
<g style="fill:#37CBCB; fill-opacity:1.0000; 
stroke:#37CBCB; stroke-width:1.9050; stroke-opacity:1; 
stroke-linecap:round; stroke-linejoin:round;">
</g>
<g style="fill:#37CBCB; fill-opacity:0.0; 
stroke:#37CBCB; stroke-width:1.9050; stroke-opacity:1; 
stroke-linecap:round; stroke-linejoin:round;">
<path d="M4.3505 34.0360
L4.4455 34.0360
" />
<path d="M4.3505 31.4960
L4.4455 31.4960
" />
</g>
<g >
</g>
<g style="fill:#37CBCB; fill-opacity:0.0; 
stroke:#37CBCB; stroke-width:1.9050; stroke-opacity:1; 
stroke-linecap:round; stroke-linejoin:round;">
</g>
<g style="fill:#37CBCB; fill-opacity:0.0; 
stroke:#37CBCB; stroke-width:0.0000; stroke-opacity:1; 
stroke-linecap:round; stroke-linejoin:round;">
</g>
<g style="fill:#37CBCB; fill-opacity:1.0000; 
stroke:#37CBCB; stroke-width:0.0000; stroke-opacity:1; 
stroke-linecap:round; stroke-linejoin:round;">
<path style="fill:#37CBCB; fill-opacity:1.0000; 
stroke:#37CBCB; stroke-width:0.0000; stroke-opacity:1; 
stroke-linecap:round; stroke-linejoin:round;fill-rule:evenodd;"
d="M -2.8300,8.1500
-2.8300,6.4500
-1.1300,6.4500
-1.1300,8.1500
Z" /> 
<circle cx="-1.9800" cy="9.8400" r="0.8500" /> 
<circle cx="-1.9800" cy="12.3800" r="0.8500" /> 
<circle cx="-1.9800" cy="14.9200" r="0.8500" /> 
<circle cx="-1.9800" cy="17.4600" r="0.8500" /> 
<circle cx="-1.9800" cy="20.0000" r="0.8500" /> 
<circle cx="-1.9800" cy="22.5400" r="0.8500" /> 
</g>
<g >
</g>
<g style="fill:#37CBCB; fill-opacity:1.0000; 
stroke:#37CBCB; stroke-width:0.0000; stroke-opacity:1; 
stroke-linecap:round; stroke-linejoin:round;">
<circle cx="5.1600" cy="39.8780" r="0.7000" /> 
</g>
<g style="fill:#37CBCB; fill-opacity:1.0000; 
stroke:#37CBCB; stroke-width:0.0212; stroke-opacity:1; 
stroke-linecap:round; stroke-linejoin:round;">
</g>
<g style="fill:#37CBCB; fill-opacity:1.0000; 
stroke:#37CBCB; stroke-width:0.0000; stroke-opacity:1; 
stroke-linecap:round; stroke-linejoin:round;">
<circle cx="-2.4600" cy="39.8780" r="0.7000" /> 
</g>
<g >
</g>
<g style="fill:#37CBCB; fill-opacity:1.0000; 
stroke:#37CBCB; stroke-width:0.0000; stroke-opacity:1; 
stroke-linecap:round; stroke-linejoin:round;">
<circle cx="61.0400" cy="38.6080" r="0.7000" /> 
</g>
<g style="fill:#37CBCB; fill-opacity:1.0000; 
stroke:#37CBCB; stroke-width:0.0212; stroke-opacity:1; 
stroke-linecap:round; stroke-linejoin:round;">
</g>
<g style="fill:#37CBCB; fill-opacity:1.0000; 
stroke:#37CBCB; stroke-width:0.0000; stroke-opacity:1; 
stroke-linecap:round; stroke-linejoin:round;">
<circle cx="61.0400" cy="30.9880" r="0.7000" /> 
</g>
<g >
</g>
<g style="fill:#37CBCB; fill-opacity:1.0000; 
stroke:#37CBCB; stroke-width:0.0000; stroke-opacity:1; 
stroke-linecap:round; stroke-linejoin:round;">
<path style="fill:#37CBCB; fill-opacity:1.0000; 
stroke:#37CBCB; stroke-width:0.0000; stroke-opacity:1; 
stroke-linecap:round; stroke-linejoin:round;fill-rule:evenodd;"
d="M 6.8900,4.3500
5.1900,4.3500
5.1900,2.6500
6.8900,2.6500
Z" /> 
<circle cx="8.5800" cy="3.5000" r="0.8500" /> 
<circle cx="11.1200" cy="3.5000" r="0.8500" /> 
<circle cx="13.6600" cy="3.5000" r="0.8500" /> 
<circle cx="16.2000" cy="3.5000" r="0.8500" /> 
<circle cx="18.7400" cy="3.5000" r="0.8500" /> 
<circle cx="21.2800" cy="3.5000" r="0.8500" /> 
</g>
<g >
</g>
<g style="fill:#37CBCB; fill-opacity:1.0000; 
stroke:#37CBCB; stroke-width:0.0000; stroke-opacity:1; 
stroke-linecap:round; stroke-linejoin:round;">
<path style="fill:#37CBCB; fill-opacity:1.0000; 
stroke:#37CBCB; stroke-width:0.0000; stroke-opacity:1; 
stroke-linecap:round; stroke-linejoin:round;fill-rule:evenodd;"
d="M 9.7700,42.7100
8.1700,42.7100
8.1700,41.1100
9.7700,41.1100
Z" /> 
<circle cx="11.5100" cy="41.9100" r="0.8000" /> 
<circle cx="14.0500" cy="41.9100" r="0.8000" /> 
<circle cx="16.5900" cy="41.9100" r="0.8000" /> 
<circle cx="19.1300" cy="41.9100" r="0.8000" /> 
<circle cx="21.6700" cy="41.9100" r="0.8000" /> 
<circle cx="24.2100" cy="41.9100" r="0.8000" /> 
<circle cx="26.7500" cy="41.9100" r="0.8000" /> 
<circle cx="29.2900" cy="41.9100" r="0.8000" /> 
<circle cx="31.8300" cy="41.9100" r="0.8000" /> 
<circle cx="34.3700" cy="41.9100" r="0.8000" /> 
<circle cx="36.9100" cy="41.9100" r="0.8000" /> 
<circle cx="39.4500" cy="41.9100" r="0.8000" /> 
<circle cx="41.9900" cy="41.9100" r="0.8000" /> 
<circle cx="41.9900" cy="34.2900" r="0.8000" /> 
<circle cx="39.4500" cy="34.2900" r="0.8000" /> 
<circle cx="36.9100" cy="34.2900" r="0.8000" /> 
<circle cx="34.3700" cy="34.2900" r="0.8000" /> 
<circle cx="31.8300" cy="34.2900" r="0.8000" /> 
<circle cx="29.2900" cy="34.2900" r="0.8000" /> 
<circle cx="26.7500" cy="34.2900" r="0.8000" /> 
<circle cx="24.2100" cy="34.2900" r="0.8000" /> 
<circle cx="21.6700" cy="34.2900" r="0.8000" /> 
<circle cx="19.1300" cy="34.2900" r="0.8000" /> 
<circle cx="16.5900" cy="34.2900" r="0.8000" /> 
<circle cx="14.0500" cy="34.2900" r="0.8000" /> 
<circle cx="11.5100" cy="34.2900" r="0.8000" /> 
<circle cx="8.9700" cy="34.2900" r="0.8000" /> 
</g>
<g >
</g>
<g style="fill:#37CBCB; fill-opacity:1.0000; 
stroke:#37CBCB; stroke-width:0.0000; stroke-opacity:1; 
stroke-linecap:round; stroke-linejoin:round;">
<circle cx="49.8640" cy="38.4280" r="0.7500" /> 
</g>
<g style="fill:#37CBCB; fill-opacity:1.0000; 
stroke:#37CBCB; stroke-width:0.0212; stroke-opacity:1; 
stroke-linecap:round; stroke-linejoin:round;">
</g>
<g style="fill:#37CBCB; fill-opacity:1.0000; 
stroke:#37CBCB; stroke-width:0.0000; stroke-opacity:1; 
stroke-linecap:round; stroke-linejoin:round;">
<circle cx="49.8640" cy="33.5280" r="0.7500" /> 
</g>
<g style="fill:#37CBCB; fill-opacity:1.0000; 
stroke:#37CBCB; stroke-width:0.0212; stroke-opacity:1; 
stroke-linecap:round; stroke-linejoin:round;">
</g>
<g >
</g>
<g style="fill:#37CBCB; fill-opacity:1.0000; 
stroke:#37CBCB; stroke-width:0.0212; stroke-opacity:1; 
stroke-linecap:round; stroke-linejoin:round;">
</g>
<g style="fill:#37CBCB; fill-opacity:1.0000; 
stroke:#37CBCB; stroke-width:0.0000; stroke-opacity:1; 
stroke-linecap:round; stroke-linejoin:round;">
<circle cx="53.9280" cy="35.8340" r="0.8000" /> 
</g>
<g style="fill:#37CBCB; fill-opacity:1.0000; 
stroke:#37CBCB; stroke-width:0.0212; stroke-opacity:1; 
stroke-linecap:round; stroke-linejoin:round;">
</g>
<g style="fill:#37CBCB; fill-opacity:1.0000; 
stroke:#37CBCB; stroke-width:0.0000; stroke-opacity:1; 
stroke-linecap:round; stroke-linejoin:round;">
<circle cx="53.9280" cy="38.3340" r="0.8000" /> 
</g>
<g style="fill:#37CBCB; fill-opacity:1.0000; 
stroke:#37CBCB; stroke-width:0.0212; stroke-opacity:1; 
stroke-linecap:round; stroke-linejoin:round;">
</g>
<g >
</g>
<g style="fill:#37CBCB; fill-opacity:1.0000; 
stroke:#37CBCB; stroke-width:0.0212; stroke-opacity:1; 
stroke-linecap:round; stroke-linejoin:round;">
</g>
<g style="fill:#37CBCB; fill-opacity:1.0000; 
stroke:#37CBCB; stroke-width:0.0000; stroke-opacity:1; 
stroke-linecap:round; stroke-linejoin:round;">
<path style="fill:#37CBCB; fill-opacity:1.0000; 
stroke:#37CBCB; stroke-width:0.0000; stroke-opacity:1; 
stroke-linecap:round; stroke-linejoin:round;fill-rule:evenodd;"
d="M 61.9680,26.8360
63.6680,26.8360
63.6680,28.5360
61.9680,28.5360
Z" /> 
<circle cx="60.2780" cy="27.6860" r="0.8500" /> 
</g>
<g >
</g>
<g style="fill:#37CBCB; fill-opacity:1.0000; 
stroke:#37CBCB; stroke-width:0.0000; stroke-opacity:1; 
stroke-linecap:round; stroke-linejoin:round;">
<circle cx="5.1600" cy="41.9100" r="0.7000" /> 
</g>
<g style="fill:#37CBCB; fill-opacity:1.0000; 
stroke:#37CBCB; stroke-width:0.0212; stroke-opacity:1; 
stroke-linecap:round; stroke-linejoin:round;">
</g>
<g style="fill:#37CBCB; fill-opacity:1.0000; 
stroke:#37CBCB; stroke-width:0.0000; stroke-opacity:1; 
stroke-linecap:round; stroke-linejoin:round;">
<circle cx="-2.4600" cy="41.9100" r="0.7000" /> 
</g>
<g >
</g>
<g style="fill:#37CBCB; fill-opacity:1.0000; 
stroke:#37CBCB; stroke-width:0.0000; stroke-opacity:1; 
stroke-linecap:round; stroke-linejoin:round;">
<circle cx="53.9280" cy="31.0080" r="0.8000" /> 
</g>
<g style="fill:#37CBCB; fill-opacity:1.0000; 
stroke:#37CBCB; stroke-width:0.0212; stroke-opacity:1; 
stroke-linecap:round; stroke-linejoin:round;">
</g>
<g style="fill:#37CBCB; fill-opacity:1.0000; 
stroke:#37CBCB; stroke-width:0.0000; stroke-opacity:1; 
stroke-linecap:round; stroke-linejoin:round;">
<circle cx="53.9280" cy="33.5080" r="0.8000" /> 
</g>
<g style="fill:#37CBCB; fill-opacity:1.0000; 
stroke:#37CBCB; stroke-width:0.0212; stroke-opacity:1; 
stroke-linecap:round; stroke-linejoin:round;">
</g>
<g >
</g>
<g style="fill:#37CBCB; fill-opacity:1.0000; 
stroke:#37CBCB; stroke-width:0.0212; stroke-opacity:1; 
stroke-linecap:round; stroke-linejoin:round;">
</g>
<g style="fill:#37CBCB; fill-opacity:1.0000; 
stroke:#37CBCB; stroke-width:0.0000; stroke-opacity:1; 
stroke-linecap:round; stroke-linejoin:round;">
<path style="fill:#37CBCB; fill-opacity:1.0000; 
stroke:#37CBCB; stroke-width:0.0000; stroke-opacity:1; 
stroke-linecap:round; stroke-linejoin:round;fill-rule:evenodd;"
d="M 54.0160,28.5360
52.3160,28.5360
52.3160,26.8360
54.0160,26.8360
Z" /> 
<circle cx="55.7060" cy="27.6860" r="0.8500" /> 
</g>
<g >
</g>
<g >
</g>
<g style="fill:#37CBCB; fill-opacity:1.0000; 
stroke:#37CBCB; stroke-width:0.0000; stroke-opacity:1; 
stroke-linecap:round; stroke-linejoin:round;">
<path style="fill:#37CBCB; fill-opacity:1.0000; 
stroke:#37CBCB; stroke-width:0.0000; stroke-opacity:1; 
stroke-linecap:round; stroke-linejoin:round;fill-rule:evenodd;"
d="M 42.6475,22.0350
42.6475,23.7350
40.9475,23.7350
40.9475,22.0350
Z" /> 
<circle cx="41.7975" cy="20.3450" r="0.8500" /> 
<circle cx="41.7975" cy="17.8050" r="0.8500" /> 
<circle cx="41.7975" cy="15.2650" r="0.8500" /> 
</g>
<g >
</g>
<g style="fill:#37CBCB; fill-opacity:1.0000; 
stroke:#37CBCB; stroke-width:0.0000; stroke-opacity:1; 
stroke-linecap:round; stroke-linejoin:round;">
<path style="fill:#37CBCB; fill-opacity:1.0000; 
stroke:#37CBCB; stroke-width:0.0000; stroke-opacity:1; 
stroke-linecap:round; stroke-linejoin:round;fill-rule:evenodd;"
d="M -1.6100,27.7740
-3.3100,27.7740
-3.3100,26.0740
-1.6100,26.0740
Z" /> 
<circle cx="0.0800" cy="26.9240" r="0.8500" /> 
</g>
<g >
</g>
<g style="fill:#37CBCB; fill-opacity:1.0000; 
stroke:#37CBCB; stroke-width:0.0000; stroke-opacity:1; 
stroke-linecap:round; stroke-linejoin:round;">
<circle cx="63.5300" cy="30.9880" r="0.7000" /> 
</g>
<g style="fill:#37CBCB; fill-opacity:1.0000; 
stroke:#37CBCB; stroke-width:0.0212; stroke-opacity:1; 
stroke-linecap:round; stroke-linejoin:round;">
</g>
<g style="fill:#37CBCB; fill-opacity:1.0000; 
stroke:#37CBCB; stroke-width:0.0000; stroke-opacity:1; 
stroke-linecap:round; stroke-linejoin:round;">
<circle cx="63.5300" cy="38.6080" r="0.7000" /> 
</g>
<g >
</g>
<g style="fill:#37CBCB; fill-opacity:1.0000; 
stroke:#37CBCB; stroke-width:0.0000; stroke-opacity:1; 
stroke-linecap:round; stroke-linejoin:round;">
<path style="fill:#37CBCB; fill-opacity:1.0000; 
stroke:#37CBCB; stroke-width:0.0000; stroke-opacity:1; 
stroke-linecap:round; stroke-linejoin:round;fill-rule:evenodd;"
d="M 59.4280,-10.7560
61.1280,-10.7560
61.1280,-9.0560
59.4280,-9.0560
Z" /> 
<circle cx="57.7380" cy="-9.9060" r="0.8500" /> 
<circle cx="55.1980" cy="-9.9060" r="0.8500" /> 
<circle cx="52.6580" cy="-9.9060" r="0.8500" /> 
</g>
<g >
</g>
<g style="fill:#37CBCB; fill-opacity:1.0000; 
stroke:#37CBCB; stroke-width:0.0000; stroke-opacity:1; 
stroke-linecap:round; stroke-linejoin:round;">
<path style="fill:#37CBCB; fill-opacity:1.0000; 
stroke:#37CBCB; stroke-width:0.0000; stroke-opacity:1; 
stroke-linecap:round; stroke-linejoin:round;fill-rule:evenodd;"
d="M 2.2500,8.1500
2.2500,6.4500
3.9500,6.4500
3.9500,8.1500
Z" /> 
<circle cx="3.1000" cy="9.8400" r="0.8500" /> 
<circle cx="3.1000" cy="12.3800" r="0.8500" /> 
<circle cx="3.1000" cy="14.9200" r="0.8500" /> 
<circle cx="3.1000" cy="17.4600" r="0.8500" /> 
<circle cx="3.1000" cy="20.0000" r="0.8500" /> 
<circle cx="3.1000" cy="22.5400" r="0.8500" /> 
</g>
<g >
</g>
<g style="fill:#37CBCB; fill-opacity:1.0000; 
stroke:#37CBCB; stroke-width:0.0000; stroke-opacity:1; 
stroke-linecap:round; stroke-linejoin:round;">
<path style="fill:#37CBCB; fill-opacity:1.0000; 
stroke:#37CBCB; stroke-width:0.0000; stroke-opacity:1; 
stroke-linecap:round; stroke-linejoin:round;fill-rule:evenodd;"
d="M 30.6100,3.8500
28.9100,3.8500
28.9100,2.1500
30.6100,2.1500
Z" /> 
<circle cx="32.3000" cy="3.0000" r="0.8500" /> 
<circle cx="34.8400" cy="3.0000" r="0.8500" /> 
<circle cx="37.3800" cy="3.0000" r="0.8500" /> 
<circle cx="39.9200" cy="3.0000" r="0.8500" /> 
<circle cx="42.4600" cy="3.0000" r="0.8500" /> 
<circle cx="45.0000" cy="3.0000" r="0.8500" /> 
<circle cx="47.5400" cy="3.0000" r="0.8500" /> 
</g>
<g >
</g>
<g style="fill:#121212; fill-opacity:1.0000; 
stroke:#121212; stroke-width:0.0000; stroke-opacity:1; 
stroke-linecap:round; stroke-linejoin:round;">
<circle cx="0.0800" cy="29.2100" r="0.7500" /> 
</g>
<g style="fill:#121212; fill-opacity:1.0000; 
stroke:#121212; stroke-width:0.0212; stroke-opacity:1; 
stroke-linecap:round; stroke-linejoin:round;">
</g>
<g style="fill:#121212; fill-opacity:1.0000; 
stroke:#121212; stroke-width:0.0000; stroke-opacity:1; 
stroke-linecap:round; stroke-linejoin:round;">
<circle cx="18.3680" cy="28.4480" r="0.7500" /> 
</g>
<g style="fill:#121212; fill-opacity:1.0000; 
stroke:#121212; stroke-width:0.0212; stroke-opacity:1; 
stroke-linecap:round; stroke-linejoin:round;">
</g>
<g style="fill:#121212; fill-opacity:1.0000; 
stroke:#121212; stroke-width:0.0000; stroke-opacity:1; 
stroke-linecap:round; stroke-linejoin:round;">
<circle cx="18.3680" cy="30.9880" r="0.7500" /> 
</g>
<g style="fill:#121212; fill-opacity:1.0000; 
stroke:#121212; stroke-width:0.0212; stroke-opacity:1; 
stroke-linecap:round; stroke-linejoin:round;">
</g>
<g style="fill:#121212; fill-opacity:1.0000; 
stroke:#121212; stroke-width:0.0000; stroke-opacity:1; 
stroke-linecap:round; stroke-linejoin:round;">
<circle cx="6.9380" cy="31.2420" r="0.7500" /> 
</g>
<g style="fill:#121212; fill-opacity:1.0000; 
stroke:#121212; stroke-width:0.0212; stroke-opacity:1; 
stroke-linecap:round; stroke-linejoin:round;">
</g>
<g style="fill:#121212; fill-opacity:1.0000; 
stroke:#121212; stroke-width:0.0000; stroke-opacity:1; 
stroke-linecap:round; stroke-linejoin:round;">
<circle cx="5.6680" cy="6.6040" r="0.7500" /> 
</g>
<g style="fill:#121212; fill-opacity:1.0000; 
stroke:#121212; stroke-width:0.0212; stroke-opacity:1; 
stroke-linecap:round; stroke-linejoin:round;">
</g>
<g style="fill:#121212; fill-opacity:1.0000; 
stroke:#121212; stroke-width:0.0000; stroke-opacity:1; 
stroke-linecap:round; stroke-linejoin:round;">
<circle cx="5.9220" cy="19.3040" r="0.7500" /> 
</g>
<g style="fill:#121212; fill-opacity:1.0000; 
stroke:#121212; stroke-width:0.0212; stroke-opacity:1; 
stroke-linecap:round; stroke-linejoin:round;">
</g>
<g style="fill:#121212; fill-opacity:1.0000; 
stroke:#121212; stroke-width:0.0000; stroke-opacity:1; 
stroke-linecap:round; stroke-linejoin:round;">
<circle cx="19.6380" cy="39.6240" r="0.7500" /> 
</g>
<g style="fill:#121212; fill-opacity:1.0000; 
stroke:#121212; stroke-width:0.0212; stroke-opacity:1; 
stroke-linecap:round; stroke-linejoin:round;">
</g>
<g style="fill:#121212; fill-opacity:1.0000; 
stroke:#121212; stroke-width:0.0000; stroke-opacity:1; 
stroke-linecap:round; stroke-linejoin:round;">
<circle cx="9.9860" cy="39.6240" r="0.7500" /> 
</g>
<g style="fill:#121212; fill-opacity:1.0000; 
stroke:#121212; stroke-width:0.0212; stroke-opacity:1; 
stroke-linecap:round; stroke-linejoin:round;">
</g>
<g style="fill:#121212; fill-opacity:1.0000; 
stroke:#121212; stroke-width:0.0000; stroke-opacity:1; 
stroke-linecap:round; stroke-linejoin:round;">
<circle cx="27.2580" cy="28.1940" r="0.7500" /> 
</g>
<g style="fill:#121212; fill-opacity:1.0000; 
stroke:#121212; stroke-width:0.0212; stroke-opacity:1; 
stroke-linecap:round; stroke-linejoin:round;">
</g>
<g style="fill:#121212; fill-opacity:1.0000; 
stroke:#121212; stroke-width:0.0000; stroke-opacity:1; 
stroke-linecap:round; stroke-linejoin:round;">
<circle cx="8.7160" cy="19.5580" r="0.7500" /> 
</g>
<g style="fill:#121212; fill-opacity:1.0000; 
stroke:#121212; stroke-width:0.0212; stroke-opacity:1; 
stroke-linecap:round; stroke-linejoin:round;">
</g>
<g style="fill:#121212; fill-opacity:1.0000; 
stroke:#121212; stroke-width:0.0000; stroke-opacity:1; 
stroke-linecap:round; stroke-linejoin:round;">
<circle cx="8.7160" cy="11.6840" r="0.7500" /> 
</g>
<g style="fill:#121212; fill-opacity:1.0000; 
stroke:#121212; stroke-width:0.0212; stroke-opacity:1; 
stroke-linecap:round; stroke-linejoin:round;">
</g>
<g style="fill:#121212; fill-opacity:1.0000; 
stroke:#121212; stroke-width:0.0000; stroke-opacity:1; 
stroke-linecap:round; stroke-linejoin:round;">
<circle cx="27.7660" cy="8.6360" r="0.7500" /> 
</g>
<g style="fill:#121212; fill-opacity:1.0000; 
stroke:#121212; stroke-width:0.0212; stroke-opacity:1; 
stroke-linecap:round; stroke-linejoin:round;">
</g>
<g style="fill:#121212; fill-opacity:1.0000; 
stroke:#121212; stroke-width:0.0000; stroke-opacity:1; 
stroke-linecap:round; stroke-linejoin:round;">
<circle cx="10.9413" cy="12.1312" r="0.7500" /> 
</g>
<g style="fill:#121212; fill-opacity:1.0000; 
stroke:#121212; stroke-width:0.0212; stroke-opacity:1; 
stroke-linecap:round; stroke-linejoin:round;">
</g>
<g style="fill:#121212; fill-opacity:1.0000; 
stroke:#121212; stroke-width:0.0000; stroke-opacity:1; 
stroke-linecap:round; stroke-linejoin:round;">
<circle cx="25.9880" cy="10.1600" r="0.7500" /> 
</g>
<g style="fill:#121212; fill-opacity:1.0000; 
stroke:#121212; stroke-width:0.0212; stroke-opacity:1; 
stroke-linecap:round; stroke-linejoin:round;">
</g>
<g style="fill:#121212; fill-opacity:1.0000; 
stroke:#121212; stroke-width:0.0000; stroke-opacity:1; 
stroke-linecap:round; stroke-linejoin:round;">
<circle cx="25.9880" cy="26.1620" r="0.7500" /> 
</g>
<g style="fill:#121212; fill-opacity:1.0000; 
stroke:#121212; stroke-width:0.0212; stroke-opacity:1; 
stroke-linecap:round; stroke-linejoin:round;">
</g>
<g style="fill:#121212; fill-opacity:1.0000; 
stroke:#121212; stroke-width:0.0000; stroke-opacity:1; 
stroke-linecap:round; stroke-linejoin:round;">
<circle cx="11.0020" cy="19.5580" r="0.7500" /> 
</g>
<g style="fill:#121212; fill-opacity:1.0000; 
stroke:#121212; stroke-width:0.0212; stroke-opacity:1; 
stroke-linecap:round; stroke-linejoin:round;">
</g>
<g style="fill:#121212; fill-opacity:1.0000; 
stroke:#121212; stroke-width:0.0000; stroke-opacity:1; 
stroke-linecap:round; stroke-linejoin:round;">
<circle cx="8.1497" cy="5.9162" r="0.7500" /> 
</g>
<g style="fill:#121212; fill-opacity:1.0000; 
stroke:#121212; stroke-width:0.0212; stroke-opacity:1; 
stroke-linecap:round; stroke-linejoin:round;">
</g>
<g style="fill:#121212; fill-opacity:1.0000; 
stroke:#121212; stroke-width:0.0000; stroke-opacity:1; 
stroke-linecap:round; stroke-linejoin:round;">
<circle cx="15.8280" cy="15.2400" r="0.7500" /> 
</g>
<g style="fill:#121212; fill-opacity:1.0000; 
stroke:#121212; stroke-width:0.0212; stroke-opacity:1; 
stroke-linecap:round; stroke-linejoin:round;">
</g>
<g style="fill:#121212; fill-opacity:1.0000; 
stroke:#121212; stroke-width:0.0000; stroke-opacity:1; 
stroke-linecap:round; stroke-linejoin:round;">
<circle cx="51.1340" cy="3.0480" r="0.7500" /> 
</g>
<g style="fill:#121212; fill-opacity:1.0000; 
stroke:#121212; stroke-width:0.0212; stroke-opacity:1; 
stroke-linecap:round; stroke-linejoin:round;">
</g>
<g style="fill:#121212; fill-opacity:1.0000; 
stroke:#121212; stroke-width:0.0000; stroke-opacity:1; 
stroke-linecap:round; stroke-linejoin:round;">
<circle cx="55.7060" cy="3.0480" r="0.7500" /> 
</g>
<g style="fill:#121212; fill-opacity:1.0000; 
stroke:#121212; stroke-width:0.0212; stroke-opacity:1; 
stroke-linecap:round; stroke-linejoin:round;">
</g>
<g style="fill:#121212; fill-opacity:1.0000; 
stroke:#121212; stroke-width:0.0000; stroke-opacity:1; 
stroke-linecap:round; stroke-linejoin:round;">
<circle cx="44.5300" cy="41.4020" r="0.7500" /> 
</g>
<g style="fill:#121212; fill-opacity:1.0000; 
stroke:#121212; stroke-width:0.0212; stroke-opacity:1; 
stroke-linecap:round; stroke-linejoin:round;">
</g>
<g style="fill:#121212; fill-opacity:1.0000; 
stroke:#121212; stroke-width:0.0000; stroke-opacity:1; 
stroke-linecap:round; stroke-linejoin:round;">
<circle cx="44.5300" cy="32.0040" r="0.7500" /> 
</g>
<g style="fill:#121212; fill-opacity:1.0000; 
stroke:#121212; stroke-width:0.0212; stroke-opacity:1; 
stroke-linecap:round; stroke-linejoin:round;">
</g>
<g style="fill:#121212; fill-opacity:1.0000; 
stroke:#121212; stroke-width:0.0000; stroke-opacity:1; 
stroke-linecap:round; stroke-linejoin:round;">
<circle cx="46.3080" cy="40.2065" r="0.7500" /> 
</g>
<g style="fill:#121212; fill-opacity:1.0000; 
stroke:#121212; stroke-width:0.0212; stroke-opacity:1; 
stroke-linecap:round; stroke-linejoin:round;">
</g>
<g style="fill:#121212; fill-opacity:1.0000; 
stroke:#121212; stroke-width:0.0000; stroke-opacity:1; 
stroke-linecap:round; stroke-linejoin:round;">
<circle cx="46.3080" cy="30.2260" r="0.7500" /> 
</g>
<g style="fill:#121212; fill-opacity:1.0000; 
stroke:#121212; stroke-width:0.0212; stroke-opacity:1; 
stroke-linecap:round; stroke-linejoin:round;">
</g>
<g style="fill:#121212; fill-opacity:1.0000; 
stroke:#121212; stroke-width:0.0000; stroke-opacity:1; 
stroke-linecap:round; stroke-linejoin:round;">
<circle cx="19.6380" cy="37.3380" r="0.7500" /> 
</g>
<g style="fill:#121212; fill-opacity:1.0000; 
stroke:#121212; stroke-width:0.0212; stroke-opacity:1; 
stroke-linecap:round; stroke-linejoin:round;">
</g>
<g style="fill:#121212; fill-opacity:1.0000; 
stroke:#121212; stroke-width:0.0000; stroke-opacity:1; 
stroke-linecap:round; stroke-linejoin:round;">
<circle cx="6.6840" cy="38.1000" r="0.7500" /> 
</g>
<g style="fill:#121212; fill-opacity:1.0000; 
stroke:#121212; stroke-width:0.0212; stroke-opacity:1; 
stroke-linecap:round; stroke-linejoin:round;">
</g>
<g >
</g>
<g style="fill:#37CBCB; fill-opacity:1.0000; 
stroke:#37CBCB; stroke-width:0.0212; stroke-opacity:1; 
stroke-linecap:round; stroke-linejoin:round;">
</g>
<g style="fill:#37CBCB; fill-opacity:1.0000; 
stroke:#37CBCB; stroke-width:1.0000; stroke-opacity:1; 
stroke-linecap:round; stroke-linejoin:round;">
</g>
<g style="fill:#37CBCB; fill-opacity:0.0; 
stroke:#37CBCB; stroke-width:1.0000; stroke-opacity:1; 
stroke-linecap:round; stroke-linejoin:round;">
<path d="M27.5120 4.5120
L28.0000 5.0000
" />
<path d="M55.7060 -11.9380
L47.2380 -11.9380
" />
<path d="M56.4680 28.4480
L55.7060 27.6860
" />
<path d="M53.4091 -5.5771
L57.7380 -9.9060
" />
<path d="M-4.2380 25.1460
L-0.8527 25.1460
" />
<path d="M55.7060 26.8407
L48.3396 19.4742
" />
<path d="M56.5950 35.4330
L56.1940 35.8340
" />
<path d="M0.0800 32.0040
L2.1120 34.0360
" />
<path d="M-4.2380 38.1000
L-4.2380 25.1460
" />
<path d="M0.0800 26.9240
L0.0800 28.1940
" />
<path d="M3.1000 9.8400
L-1.9800 9.8400
" />
<path d="M18.3680 28.4480
L23.9310 22.8850
" />
<path d="M0.0800 28.1940
L0.0800 32.0040
" />
<path d="M23.9310 22.8850
L41.7975 22.8850
" />
<path d="M43.5572 21.1252
L45.2082 19.4742
" />
<path d="M56.4680 35.3060
L56.5950 35.4330
" />
<path d="M55.7060 27.6860
L55.7060 26.8407
" />
<path d="M0.0800 26.0787
L0.0800 26.9240
" />
<path d="M-2.4600 39.8780
L-4.2380 38.1000
" />
<path d="M0.0800 29.2100
L0.0800 26.9240
" />
<path d="M47.2380 -11.9380
L32.3000 3.0000
" />
<path d="M48.3396 19.4742
L45.2082 19.4742
" />
<path d="M43.8489 36.3220
L32.0840 36.3220
" />
<path d="M-0.8527 25.1460
L0.0800 26.0787
" />
<path d="M53.9480 30.9880
L53.9280 31.0080
" />
<path d="M14.0160 -1.0160
L25.9880 -1.0160
" />
<path d="M30.4499 5.0000
L32.3000 3.1500
" />
<path d="M2.1120 34.0360
L4.3980 34.0360
" />
<path d="M11.1200 1.8800
L14.0160 -1.0160
" />
<path d="M25.9880 -1.0160
L27.5120 0.5080
" />
<path d="M56.4680 30.9880
L56.4680 35.3060
" />
<path d="M26.7500 41.6560
L26.7500 41.9100
" />
<path d="M3.1000 9.8400
L7.5120 9.8400
" />
<path d="M32.3000 3.1500
L32.3000 3.0000
" />
<path d="M61.0400 30.9880
L56.5950 35.4330
" />
<path d="M32.0840 36.3220
L26.7500 41.6560
" />
<path d="M53.4091 11.2734
L53.4091 -5.5771
" />
<path d="M57.7380 -9.9060
L55.7060 -11.9380
" />
<path d="M41.7975 22.8850
L43.5572 21.1252
" />
<path d="M56.1940 35.8340
L53.9280 35.8340
" />
<path d="M56.4680 30.9880
L53.9480 30.9880
" />
<path d="M27.5120 0.5080
L27.5120 4.5120
" />
<path d="M45.2082 19.4742
L53.4091 11.2734
" />
<path d="M11.1200 6.2320
L11.1200 1.8800
" />
<path d="M56.4680 30.9880
L56.4680 28.4480
" />
<path d="M49.1629 31.0080
L43.8489 36.3220
" />
<path d="M7.5120 9.8400
L11.1200 6.2320
" />
<path d="M53.9280 31.0080
L49.1629 31.0080
" />
<path d="M28.0000 5.0000
L30.4499 5.0000
" />
<path d="M6.0000 6.2720
L5.6680 6.6040
" />
<path d="M5.9220 31.2420
L4.6520 31.2420
" />
<path d="M29.7600 3.0000
L29.7980 2.9620
" />
<path d="M6.0000 0.0000
L6.0000 6.2720
" />
<path d="M9.9860 39.6240
L9.9860 40.8940
" />
<path d="M9.9860 38.1000
L6.9380 35.0520
" />
<path d="M21.9240 39.6240
L19.6380 39.6240
" />
<path d="M29.7980 -0.2020
L27.0000 -3.0000
" />
<path d="M-1.9800 7.3000
L3.1000 7.3000
" />
<path d="M5.3960 6.6040
L5.6680 6.6040
" />
<path d="M9.0000 -3.0000
L6.0000 0.0000
" />
<path d="M24.7180 24.6380
L18.3680 30.9880
" />
<path d="M51.2610 24.6380
L24.7180 24.6380
" />
<path d="M29.7980 2.9620
L29.7980 -0.2020
" />
<path d="M3.1000 7.3000
L4.7000 7.3000
" />
<path d="M9.9860 39.6240
L9.9860 38.1000
" />
<path d="M9.9860 40.8940
L8.9700 41.9100
" />
<path d="M6.9380 34.0360
L4.3980 31.4960
" />
<path d="M53.1660 26.5430
L51.2610 24.6380
" />
<path d="M53.1660 27.6860
L53.1660 26.5430
" />
<path d="M27.0000 -3.0000
L9.0000 -3.0000
" />
<path d="M5.9220 31.2420
L5.9220 19.3040
" />
<path d="M4.7000 7.3000
L5.3960 6.6040
" />
<path d="M24.2100 41.9100
L21.9240 39.6240
" />
<path d="M6.9380 31.2420
L5.9220 31.2420
" />
<path d="M5.1600 41.9100
L8.9700 41.9100
" />
<path d="M4.6520 31.2420
L4.3980 31.4960
" />
<path d="M6.9380 35.0520
L6.9380 34.0360
" />
<path d="M13.6600 6.7400
L13.6600 2.8262
" />
<path d="M22.0295 1.0000
L27.5120 6.4825
" />
<path d="M-1.9800 12.3800
L3.1000 12.3800
" />
<path d="M34.8400 3.5940
L31.5977 6.8362
" />
<path d="M27.5120 8.3820
L27.5120 6.8362
" />
<path d="M15.4863 1.0000
L22.0295 1.0000
" />
<path d="M31.5977 6.8362
L27.5120 6.8362
" />
<path d="M34.8400 3.0000
L47.7460 -9.9060
" />
<path d="M3.1000 12.3800
L8.0200 12.3800
" />
<path d="M13.6600 2.8262
L15.4863 1.0000
" />
<path d="M8.9700 19.8120
L8.7160 19.5580
" />
<path d="M8.9700 34.2900
L8.9700 19.8120
" />
<path d="M8.0200 12.3800
L13.6600 6.7400
" />
<path d="M34.8400 3.0000
L34.8400 3.5940
" />
<path d="M46.5620 27.6860
L46.0540 28.1940
" />
<path d="M46.0540 28.1940
L27.2580 28.1940
" />
<path d="M27.5120 6.4825
L27.5120 6.8362
" />
<path d="M27.7660 8.6360
L27.5120 8.3820
" />
<path d="M47.7460 -9.9060
L52.6580 -9.9060
" />
<path d="M12.8462 10.2263
L15.0362 8.0362
" />
<path d="M37.3800 3.0000
L37.3800 7.4040
" />
<path d="M49.3560 27.9400
L49.3560 26.9240
" />
<path d="M3.1000 14.9200
L8.1525 14.9200
" />
<path d="M48.5940 26.1620
L25.9880 26.1620
" />
<path d="M11.5100 34.2900
L11.5100 20.0660
" />
<path d="M8.1525 14.9200
L15.0362 8.0362
" />
<path d="M15.0362 8.0362
L18.7400 4.3325
" />
<path d="M18.7400 4.3325
L18.7400 3.5000
" />
<path d="M52.9120 -7.6200
L55.1980 -9.9060
" />
<path d="M49.3560 26.9240
L48.5940 26.1620
" />
<path d="M34.5577 10.2263
L12.8462 10.2263
" />
<path d="M37.3800 7.4040
L34.5577 10.2263
" />
<path d="M48.0000 -7.6200
L52.9120 -7.6200
" />
<path d="M37.3800 3.0000
L48.0000 -7.6200
" />
<path d="M11.5100 20.0660
L11.0020 19.5580
" />
<path d="M3.1000 14.9200
L-1.9800 14.9200
" />
<path d="M2.1120 36.5760
L4.3980 36.5760
" />
<path d="M-2.4600 32.0040
L2.1120 36.5760
" />
<path d="M-2.4600 26.9240
L-2.4600 32.0040
" />
<path d="M14.0500 41.9100
L14.0500 39.8780
" />
<path d="M41.7975 20.3450
L17.5810 20.3450
" />
<path d="M14.0500 39.8780
L16.5900 37.3380
" />
<path d="M-1.9800 22.5400
L3.1000 22.5400
" />
<path d="M16.5900 37.3380
L16.5900 34.2900
" />
<path d="M16.5900 34.2900
L16.5900 21.3360
" />
<path d="M16.5900 21.3360
L17.5810 20.3450
" />
<path d="M15.2950 17.8050
L41.7975 17.8050
" />
<path d="M11.5100 41.9100
L11.5100 38.8620
" />
<path d="M14.0500 19.0500
L15.2950 17.8050
" />
<path d="M11.5100 38.8620
L14.0500 36.3220
" />
<path d="M14.0500 34.2900
L14.0500 19.0500
" />
<path d="M14.0500 36.3220
L14.0500 34.2900
" />
<path d="M3.1000 20.0000
L-1.9800 20.0000
" />
<path d="M8.1497 5.9162
L8.5000 5.5660
" />
<path d="M55.7060 3.0480
L60.2780 -1.5240
" />
<path d="M51.1340 5.9285
L51.1340 3.0480
" />
<path d="M13.5670 15.2650
L15.8030 15.2650
" />
<path d="M15.8030 15.2650
L15.8280 15.2400
" />
<path d="M41.7975 15.2650
L51.1340 5.9285
" />
<path d="M-1.9800 17.4600
L3.1000 17.4600
" />
<path d="M13.5420 15.2400
L13.5670 15.2650
" />
<path d="M8.5000 5.5660
L8.5000 3.5800
" />
<path d="M15.8280 15.2400
L15.8530 15.2650
" />
<path d="M60.2780 -1.5240
L60.2780 -9.9060
" />
<path d="M15.8530 15.2650
L41.7975 15.2650
" />
<path d="M11.3220 17.4600
L13.5420 15.2400
" />
<path d="M8.5000 3.5800
L8.5800 3.5000
" />
<path d="M3.1000 17.4600
L11.3220 17.4600
" />
<path d="M63.7840 28.6520
L62.8180 27.6860
" />
<path d="M63.5300 30.9880
L63.5300 28.9060
" />
<path d="M63.5300 28.9060
L63.7840 28.6520
" />
<path d="M60.2780 27.6860
L58.7540 29.2100
" />
<path d="M58.7540 29.2100
L58.7540 30.9880
" />
<path d="M59.2620 41.6560
L62.3100 38.6080
" />
<path d="M44.2760 31.7500
L24.2100 31.7500
" />
<path d="M44.5300 32.0040
L44.2760 31.7500
" />
<path d="M62.3100 38.6080
L61.0400 38.6080
" />
<path d="M63.5300 38.6080
L62.3100 38.6080
" />
<path d="M44.7840 41.6560
L59.2620 41.6560
" />
<path d="M24.2100 31.7500
L21.6700 34.2900
" />
<path d="M44.5300 41.4020
L44.7840 41.6560
" />
<path d="M46.3080 40.2065
L46.3825 40.1320
" />
<path d="M58.7540 38.6080
L56.4680 38.6080
" />
<path d="M54.9440 40.1320
L56.4680 38.6080
" />
<path d="M46.3080 30.2260
L23.1940 30.2260
" />
<path d="M46.3825 40.1320
L54.9440 40.1320
" />
<path d="M23.1940 30.2260
L19.1300 34.2900
" />
<path d="M33.1000 38.1000
L29.2900 41.9100
" />
<path d="M45.0380 37.0840
L44.0220 38.1000
" />
<path d="M44.0220 38.1000
L33.1000 38.1000
" />
<path d="M49.8640 33.5280
L49.8640 35.0520
" />
<path d="M53.9080 33.5280
L53.9280 33.5080
" />
<path d="M49.8640 35.0520
L47.8320 37.0840
" />
<path d="M49.8640 33.5280
L53.9080 33.5280
" />
<path d="M47.8320 37.0840
L45.0380 37.0840
" />
<path d="M49.8640 38.4280
L45.7074 38.4280
" />
<path d="M45.7074 38.4280
L44.5114 39.6240
" />
<path d="M34.1160 39.6240
L31.8300 41.9100
" />
<path d="M44.5114 39.6240
L34.1160 39.6240
" />
<path d="M49.9580 38.3340
L49.8640 38.4280
" />
<path d="M53.9280 38.3340
L49.9580 38.3340
" />
<path d="M19.6380 37.3380
L23.7020 37.3380
" />
<path d="M1.0960 41.9100
L3.1280 39.8780
" />
<path d="M5.1600 39.6240
L6.6840 38.1000
" />
<path d="M5.1600 39.8780
L5.1600 39.6240
" />
<path d="M-2.4600 41.9100
L1.0960 41.9100
" />
<path d="M3.1280 39.8780
L5.1600 39.8780
" />
<path d="M23.7020 37.3380
L26.7500 34.2900
" />
</g>
<g >
</g>
</g>
<g style="fill:#FFFFFF; fill-opacity:0.0; 
stroke:#FFFFFF; stroke-width:1.0000; stroke-opacity:1; 
stroke-linecap:round; stroke-linejoin:round;">
</g>
<g style="fill:#2F2D31; fill-opacity:0.0; 
stroke:#2F2D31; stroke-width:1.0000; stroke-opacity:1; 
stroke-linecap:round; stroke-linejoin:round;">
</g>
<g style="fill:#2F2D31; fill-opacity:0.0; 
stroke:#2F2D31; stroke-width:0.1000; stroke-opacity:1; 
stroke-linecap:round; stroke-linejoin:round;">
<circle cx="3.5000" cy="3.5000" r="1.2500" /> 
</g>
<g style="fill:#2F2D31; fill-opacity:0.0; 
stroke:#2F2D31; stroke-width:0.2000; stroke-opacity:1; 
stroke-linecap:round; stroke-linejoin:round;">
<path style="fill:#2F2D31; fill-opacity:0.0; 
stroke:#2F2D31; stroke-width:0.2000; stroke-opacity:1; 
stroke-linecap:round; stroke-linejoin:round;fill:none"
d="M -5.0000,-13.0000
65.0000,-13.0000
65.0000,43.0000
-5.0000,43.0000
Z" /> 
</g>
<g style="fill:#2F2D31; fill-opacity:0.0; 
stroke:#2F2D31; stroke-width:0.1000; stroke-opacity:1; 
stroke-linecap:round; stroke-linejoin:round;">
<circle cx="61.5000" cy="3.5000" r="1.2500" /> 
<circle cx="3.5000" cy="26.5000" r="1.2500" /> 
<g >
</g>
<g >
</g>
<g >
</g>
<g >
</g>
<g >
</g>
<g >
</g>
<g >
</g>
<g >
</g>
<g >
</g>
<g >
</g>
<g >
</g>
<g >
</g>
<g >
</g>
<g >
</g>
<g >
</g>
<g >
</g>
<g >
</g>
<g >
</g>
<g >
</g>
<g >
</g>
<g >
</g>
<g >
</g>
<g >
</g>
<g >
</g>
<g >
</g>
</g> 
</svg>
