%TF.GenerationSoftware,KiCad,Pcbnew,7.0.8*%
%TF.CreationDate,2023-10-23T02:42:37-06:00*%
%TF.ProjectId,Piso_12,5069736f-5f31-4322-9e6b-696361645f70,rev?*%
%TF.SameCoordinates,Original*%
%TF.FileFunction,Copper,L1,Top*%
%TF.FilePolarity,Positive*%
%FSLAX46Y46*%
G04 Gerber Fmt 4.6, Leading zero omitted, Abs format (unit mm)*
G04 Created by KiCad (PCBNEW 7.0.8) date 2023-10-23 02:42:37*
%MOMM*%
%LPD*%
G01*
G04 APERTURE LIST*
%TA.AperFunction,ComponentPad*%
%ADD10R,1.700000X1.700000*%
%TD*%
%TA.AperFunction,ComponentPad*%
%ADD11O,1.700000X1.700000*%
%TD*%
%TA.AperFunction,ComponentPad*%
%ADD12C,1.400000*%
%TD*%
%TA.AperFunction,ComponentPad*%
%ADD13O,1.400000X1.400000*%
%TD*%
%TA.AperFunction,ComponentPad*%
%ADD14R,2.000000X1.905000*%
%TD*%
%TA.AperFunction,ComponentPad*%
%ADD15O,2.000000X1.905000*%
%TD*%
%TA.AperFunction,ComponentPad*%
%ADD16R,1.600000X1.600000*%
%TD*%
%TA.AperFunction,ComponentPad*%
%ADD17O,1.600000X1.600000*%
%TD*%
%TA.AperFunction,ComponentPad*%
%ADD18C,1.500000*%
%TD*%
%TA.AperFunction,ComponentPad*%
%ADD19C,1.600000*%
%TD*%
%TA.AperFunction,ViaPad*%
%ADD20C,1.500000*%
%TD*%
%TA.AperFunction,Conductor*%
%ADD21C,1.000000*%
%TD*%
G04 APERTURE END LIST*
D10*
%TO.P,J4,1,Pin_1*%
%TO.N,/SCL*%
X46816000Y-27940000D03*
D11*
%TO.P,J4,2,Pin_2*%
%TO.N,/SDA*%
X49356000Y-27940000D03*
%TD*%
D12*
%TO.P,R3,1*%
%TO.N,/SHUNT*%
X58754000Y-30988000D03*
D13*
%TO.P,R3,2*%
%TO.N,/ADC3*%
X58754000Y-38608000D03*
%TD*%
D12*
%TO.P,R4,1*%
%TO.N,/ADC3*%
X56468000Y-38608000D03*
D13*
%TO.P,R4,2*%
%TO.N,/GND*%
X56468000Y-30988000D03*
%TD*%
D14*
%TO.P,U1,1,VI*%
%TO.N,/VBAT*%
X4398000Y-36576000D03*
D15*
%TO.P,U1,2,GND*%
%TO.N,/GND*%
X4398000Y-34036000D03*
%TO.P,U1,3,VO*%
%TO.N,/VCC*%
X4398000Y-31496000D03*
%TD*%
D10*
%TO.P,J10,1,Pin_1*%
%TO.N,/VCC*%
X-1980000Y-7300000D03*
D11*
%TO.P,J10,2,Pin_2*%
%TO.N,/GND*%
X-1980000Y-9840000D03*
%TO.P,J10,3,Pin_3*%
%TO.N,/SCL*%
X-1980000Y-12380000D03*
%TO.P,J10,4,Pin_4*%
%TO.N,/SDA*%
X-1980000Y-14920000D03*
%TO.P,J10,5,Pin_5*%
%TO.N,/3Vo*%
X-1980000Y-17460000D03*
%TO.P,J10,6,Pin_6*%
%TO.N,unconnected-(J10-Pin_6-Pad6)*%
X-1980000Y-20000000D03*
%TO.P,J10,7,Pin_7*%
%TO.N,unconnected-(J10-Pin_7-Pad7)*%
X-1980000Y-22540000D03*
%TD*%
D12*
%TO.P,R6,1*%
%TO.N,/AREF*%
X5160000Y-39878000D03*
D13*
%TO.P,R6,2*%
%TO.N,/GND*%
X-2460000Y-39878000D03*
%TD*%
D12*
%TO.P,R2,1*%
%TO.N,/ADC2*%
X61040000Y-38608000D03*
D13*
%TO.P,R2,2*%
%TO.N,/GND*%
X61040000Y-30988000D03*
%TD*%
D10*
%TO.P,J1,1,Pin_1*%
%TO.N,/VCC*%
X6040000Y-3500000D03*
D11*
%TO.P,J1,2,Pin_2*%
%TO.N,/3Vo*%
X8580000Y-3500000D03*
%TO.P,J1,3,Pin_3*%
%TO.N,/GND*%
X11120000Y-3500000D03*
%TO.P,J1,4,Pin_4*%
%TO.N,/SCL*%
X13660000Y-3500000D03*
%TO.P,J1,5,Pin_5*%
%TO.N,unconnected-(J1-Pin_5-Pad5)*%
X16200000Y-3500000D03*
%TO.P,J1,6,Pin_6*%
%TO.N,/SDA*%
X18740000Y-3500000D03*
%TO.P,J1,7,Pin_7*%
%TO.N,unconnected-(J1-Pin_7-Pad7)*%
X21280000Y-3500000D03*
%TD*%
D16*
%TO.P,U4,1,~{RESET}/PC6*%
%TO.N,/VCC*%
X8970000Y-41910000D03*
D17*
%TO.P,U4,2,PD0*%
%TO.N,/RX*%
X11510000Y-41910000D03*
%TO.P,U4,3,PD1*%
%TO.N,/TX*%
X14050000Y-41910000D03*
%TO.P,U4,4,PD2*%
%TO.N,unconnected-(U4-PD2-Pad4)*%
X16590000Y-41910000D03*
%TO.P,U4,5,PD3*%
%TO.N,unconnected-(U4-PD3-Pad5)*%
X19130000Y-41910000D03*
%TO.P,U4,6,PD4*%
%TO.N,unconnected-(U4-PD4-Pad6)*%
X21670000Y-41910000D03*
%TO.P,U4,7,VCC*%
%TO.N,/VCC*%
X24210000Y-41910000D03*
%TO.P,U4,8,GND*%
%TO.N,/GND*%
X26750000Y-41910000D03*
%TO.P,U4,9,XTAL1/PB6*%
%TO.N,Net-(U4-XTAL1{slash}PB6)*%
X29290000Y-41910000D03*
%TO.P,U4,10,XTAL2/PB7*%
%TO.N,Net-(U4-XTAL2{slash}PB7)*%
X31830000Y-41910000D03*
%TO.P,U4,11,PD5*%
%TO.N,unconnected-(U4-PD5-Pad11)*%
X34370000Y-41910000D03*
%TO.P,U4,12,PD6*%
%TO.N,unconnected-(U4-PD6-Pad12)*%
X36910000Y-41910000D03*
%TO.P,U4,13,PD7*%
%TO.N,unconnected-(U4-PD7-Pad13)*%
X39450000Y-41910000D03*
%TO.P,U4,14,PB0*%
%TO.N,unconnected-(U4-PB0-Pad14)*%
X41990000Y-41910000D03*
%TO.P,U4,15,PB1*%
%TO.N,unconnected-(U4-PB1-Pad15)*%
X41990000Y-34290000D03*
%TO.P,U4,16,PB2*%
%TO.N,unconnected-(U4-PB2-Pad16)*%
X39450000Y-34290000D03*
%TO.P,U4,17,PB3*%
%TO.N,unconnected-(U4-PB3-Pad17)*%
X36910000Y-34290000D03*
%TO.P,U4,18,PB4*%
%TO.N,unconnected-(U4-PB4-Pad18)*%
X34370000Y-34290000D03*
%TO.P,U4,19,PB5*%
%TO.N,unconnected-(U4-PB5-Pad19)*%
X31830000Y-34290000D03*
%TO.P,U4,20,AVCC*%
%TO.N,unconnected-(U4-AVCC-Pad20)*%
X29290000Y-34290000D03*
%TO.P,U4,21,AREF*%
%TO.N,/AREF*%
X26750000Y-34290000D03*
%TO.P,U4,22,GND*%
%TO.N,/GND*%
X24210000Y-34290000D03*
%TO.P,U4,23,PC0*%
%TO.N,/ADC2*%
X21670000Y-34290000D03*
%TO.P,U4,24,PC1*%
%TO.N,/ADC3*%
X19130000Y-34290000D03*
%TO.P,U4,25,PC2*%
%TO.N,unconnected-(U4-PC2-Pad25)*%
X16590000Y-34290000D03*
%TO.P,U4,26,PC3*%
%TO.N,unconnected-(U4-PC3-Pad26)*%
X14050000Y-34290000D03*
%TO.P,U4,27,PC4*%
%TO.N,/SDA*%
X11510000Y-34290000D03*
%TO.P,U4,28,PC5*%
%TO.N,/SCL*%
X8970000Y-34290000D03*
%TD*%
D18*
%TO.P,Y1,1,1*%
%TO.N,Net-(U4-XTAL2{slash}PB7)*%
X49864000Y-38428000D03*
%TO.P,Y1,2,2*%
%TO.N,Net-(U4-XTAL1{slash}PB6)*%
X49864000Y-33528000D03*
%TD*%
D19*
%TO.P,C1,1*%
%TO.N,/GND*%
X53928000Y-35834000D03*
%TO.P,C1,2*%
%TO.N,Net-(U4-XTAL2{slash}PB7)*%
X53928000Y-38334000D03*
%TD*%
D10*
%TO.P,J9,1,Pin_1*%
%TO.N,/BAT*%
X62818000Y-27686000D03*
D11*
%TO.P,J9,2,Pin_2*%
%TO.N,/SHUNT*%
X60278000Y-27686000D03*
%TD*%
D12*
%TO.P,R5,1*%
%TO.N,/VCC*%
X5160000Y-41910000D03*
D13*
%TO.P,R5,2*%
%TO.N,/AREF*%
X-2460000Y-41910000D03*
%TD*%
D19*
%TO.P,C2,1*%
%TO.N,/GND*%
X53928000Y-31008000D03*
%TO.P,C2,2*%
%TO.N,Net-(U4-XTAL1{slash}PB6)*%
X53928000Y-33508000D03*
%TD*%
D10*
%TO.P,J3,1,Pin_1*%
%TO.N,/VCC*%
X53166000Y-27686000D03*
D11*
%TO.P,J3,2,Pin_2*%
%TO.N,/GND*%
X55706000Y-27686000D03*
%TD*%
D10*
%TO.P,J7,1,Pin_1*%
%TO.N,/GND*%
X41797500Y-22885000D03*
D11*
%TO.P,J7,2,Pin_2*%
%TO.N,/TX*%
X41797500Y-20345000D03*
%TO.P,J7,3,Pin_3*%
%TO.N,/RX*%
X41797500Y-17805000D03*
%TO.P,J7,4,Pin_4*%
%TO.N,/3Vo*%
X41797500Y-15265000D03*
%TD*%
D10*
%TO.P,J6,1,Pin_1*%
%TO.N,/VBAT*%
X-2460000Y-26924000D03*
D11*
%TO.P,J6,2,Pin_2*%
%TO.N,/GND*%
X80000Y-26924000D03*
%TD*%
D12*
%TO.P,R1,1*%
%TO.N,/BAT*%
X63530000Y-30988000D03*
D13*
%TO.P,R1,2*%
%TO.N,/ADC2*%
X63530000Y-38608000D03*
%TD*%
D10*
%TO.P,J8,1,Pin_1*%
%TO.N,/3Vo*%
X60278000Y9906000D03*
D11*
%TO.P,J8,2,Pin_2*%
%TO.N,/GND*%
X57738000Y9906000D03*
%TO.P,J8,3,Pin_3*%
%TO.N,/SDA*%
X55198000Y9906000D03*
%TO.P,J8,4,Pin_4*%
%TO.N,/SCL*%
X52658000Y9906000D03*
%TD*%
D10*
%TO.P,J5,1,Pin_1*%
%TO.N,/VCC*%
X3100000Y-7300000D03*
D11*
%TO.P,J5,2,Pin_2*%
%TO.N,/GND*%
X3100000Y-9840000D03*
%TO.P,J5,3,Pin_3*%
%TO.N,/SCL*%
X3100000Y-12380000D03*
%TO.P,J5,4,Pin_4*%
%TO.N,/SDA*%
X3100000Y-14920000D03*
%TO.P,J5,5,Pin_5*%
%TO.N,/3Vo*%
X3100000Y-17460000D03*
%TO.P,J5,6,Pin_6*%
%TO.N,unconnected-(J5-Pin_6-Pad6)*%
X3100000Y-20000000D03*
%TO.P,J5,7,Pin_7*%
%TO.N,unconnected-(J5-Pin_7-Pad7)*%
X3100000Y-22540000D03*
%TD*%
D10*
%TO.P,J2,1,Pin_1*%
%TO.N,/VCC*%
X29760000Y-3000000D03*
D11*
%TO.P,J2,2,Pin_2*%
%TO.N,/GND*%
X32300000Y-3000000D03*
%TO.P,J2,3,Pin_3*%
%TO.N,/SCL*%
X34840000Y-3000000D03*
%TO.P,J2,4,Pin_4*%
%TO.N,/SDA*%
X37380000Y-3000000D03*
%TO.P,J2,5,Pin_5*%
%TO.N,unconnected-(J2-Pin_5-Pad5)*%
X39920000Y-3000000D03*
%TO.P,J2,6,Pin_6*%
%TO.N,unconnected-(J2-Pin_6-Pad6)*%
X42460000Y-3000000D03*
%TO.P,J2,7,Pin_7*%
%TO.N,unconnected-(J2-Pin_7-Pad7)*%
X45000000Y-3000000D03*
%TO.P,J2,8,Pin_8*%
%TO.N,unconnected-(J2-Pin_8-Pad8)*%
X47540000Y-3000000D03*
%TD*%
D20*
%TO.N,/GND*%
X80000Y-29210000D03*
X18368000Y-28448000D03*
%TO.N,/VCC*%
X18368000Y-30988000D03*
X6938000Y-31242000D03*
X5668000Y-6604000D03*
X5922000Y-19304000D03*
X19638000Y-39624000D03*
X9986000Y-39624000D03*
%TO.N,/SCL*%
X27258000Y-28194000D03*
X8716000Y-19558000D03*
X8716000Y-11684000D03*
X27766000Y-8636000D03*
%TO.N,/SDA*%
X10941250Y-12131250D03*
X25988000Y-10160000D03*
X25988000Y-26162000D03*
X11002000Y-19558000D03*
%TO.N,/3Vo*%
X8149750Y-5916250D03*
X15828000Y-15240000D03*
X51134000Y-3048000D03*
X55706000Y-3048000D03*
%TO.N,/ADC2*%
X44530000Y-41402000D03*
X44530000Y-32004000D03*
%TO.N,/ADC3*%
X46308000Y-40206500D03*
X46308000Y-30226000D03*
%TO.N,/AREF*%
X19638000Y-37338000D03*
X6684000Y-38100000D03*
%TD*%
D21*
%TO.N,/GND*%
X27512000Y-4512000D02*
X28000000Y-5000000D01*
X55706000Y11938000D02*
X47238000Y11938000D01*
X56468000Y-28448000D02*
X55706000Y-27686000D01*
X53409056Y5577056D02*
X57738000Y9906000D01*
X-4238000Y-25146000D02*
X-852656Y-25146000D01*
X55706000Y-26840656D02*
X48339594Y-19474250D01*
X56595000Y-35433000D02*
X56194000Y-35834000D01*
X80000Y-32004000D02*
X2112000Y-34036000D01*
X-4238000Y-38100000D02*
X-4238000Y-25146000D01*
X80000Y-26924000D02*
X80000Y-28194000D01*
X3100000Y-9840000D02*
X-1980000Y-9840000D01*
X18368000Y-28448000D02*
X23931000Y-22885000D01*
X80000Y-28194000D02*
X80000Y-32004000D01*
X23931000Y-22885000D02*
X41797500Y-22885000D01*
X43557250Y-21125250D02*
X45208250Y-19474250D01*
X56468000Y-35306000D02*
X56595000Y-35433000D01*
X55706000Y-27686000D02*
X55706000Y-26840656D01*
X80000Y-26078656D02*
X80000Y-26924000D01*
X-2460000Y-39878000D02*
X-4238000Y-38100000D01*
X80000Y-29210000D02*
X80000Y-26924000D01*
X47238000Y11938000D02*
X32300000Y-3000000D01*
X48339594Y-19474250D02*
X45208250Y-19474250D01*
X43848944Y-36322000D02*
X32084000Y-36322000D01*
X-852656Y-25146000D02*
X80000Y-26078656D01*
X53948000Y-30988000D02*
X53928000Y-31008000D01*
X14016000Y1016000D02*
X25988000Y1016000D01*
X30449950Y-5000000D02*
X32300000Y-3149950D01*
X2112000Y-34036000D02*
X4398000Y-34036000D01*
X11120000Y-1880000D02*
X14016000Y1016000D01*
X25988000Y1016000D02*
X27512000Y-508000D01*
X56468000Y-30988000D02*
X56468000Y-35306000D01*
X26750000Y-41656000D02*
X26750000Y-41910000D01*
X3100000Y-9840000D02*
X7512000Y-9840000D01*
X32300000Y-3149950D02*
X32300000Y-3000000D01*
X61040000Y-30988000D02*
X56595000Y-35433000D01*
X32084000Y-36322000D02*
X26750000Y-41656000D01*
X53409056Y-11273444D02*
X53409056Y5577056D01*
X57738000Y9906000D02*
X55706000Y11938000D01*
X41797500Y-22885000D02*
X43557250Y-21125250D01*
X56194000Y-35834000D02*
X53928000Y-35834000D01*
X56468000Y-30988000D02*
X53948000Y-30988000D01*
X27512000Y-508000D02*
X27512000Y-4512000D01*
X45208250Y-19474250D02*
X53409056Y-11273444D01*
X11120000Y-6232000D02*
X11120000Y-1880000D01*
X56468000Y-30988000D02*
X56468000Y-28448000D01*
X49162944Y-31008000D02*
X43848944Y-36322000D01*
X7512000Y-9840000D02*
X11120000Y-6232000D01*
X53928000Y-31008000D02*
X49162944Y-31008000D01*
X28000000Y-5000000D02*
X30449950Y-5000000D01*
%TO.N,/VCC*%
X6000000Y-6272000D02*
X5668000Y-6604000D01*
X5922000Y-31242000D02*
X4652000Y-31242000D01*
X29760000Y-3000000D02*
X29798000Y-2962000D01*
X6000000Y0D02*
X6000000Y-6272000D01*
X9986000Y-39624000D02*
X9986000Y-40894000D01*
X9986000Y-38100000D02*
X6938000Y-35052000D01*
X21924000Y-39624000D02*
X19638000Y-39624000D01*
X29798000Y202000D02*
X27000000Y3000000D01*
X-1980000Y-7300000D02*
X3100000Y-7300000D01*
X5396000Y-6604000D02*
X5668000Y-6604000D01*
X9000000Y3000000D02*
X6000000Y0D01*
X24718000Y-24638000D02*
X18368000Y-30988000D01*
X51261000Y-24638000D02*
X24718000Y-24638000D01*
X29798000Y-2962000D02*
X29798000Y202000D01*
X3100000Y-7300000D02*
X4700000Y-7300000D01*
X9986000Y-39624000D02*
X9986000Y-38100000D01*
X9986000Y-40894000D02*
X8970000Y-41910000D01*
X6938000Y-34036000D02*
X4398000Y-31496000D01*
X53166000Y-26543000D02*
X51261000Y-24638000D01*
X53166000Y-27686000D02*
X53166000Y-26543000D01*
X27000000Y3000000D02*
X9000000Y3000000D01*
X5922000Y-31242000D02*
X5922000Y-19304000D01*
X4700000Y-7300000D02*
X5396000Y-6604000D01*
X24210000Y-41910000D02*
X21924000Y-39624000D01*
X6938000Y-31242000D02*
X5922000Y-31242000D01*
X5160000Y-41910000D02*
X8970000Y-41910000D01*
X4652000Y-31242000D02*
X4398000Y-31496000D01*
X6938000Y-35052000D02*
X6938000Y-34036000D01*
%TO.N,/SCL*%
X13660000Y-6740000D02*
X13660000Y-2826250D01*
X22029500Y-1000000D02*
X27512000Y-6482500D01*
X-1980000Y-12380000D02*
X3100000Y-12380000D01*
X34840000Y-3594000D02*
X31597750Y-6836250D01*
X27512000Y-8382000D02*
X27512000Y-6836250D01*
X15486250Y-1000000D02*
X22029500Y-1000000D01*
X31597750Y-6836250D02*
X27512000Y-6836250D01*
X34840000Y-3000000D02*
X47746000Y9906000D01*
X3100000Y-12380000D02*
X8020000Y-12380000D01*
X13660000Y-2826250D02*
X15486250Y-1000000D01*
X8970000Y-19812000D02*
X8716000Y-19558000D01*
X8970000Y-34290000D02*
X8970000Y-19812000D01*
X8020000Y-12380000D02*
X13660000Y-6740000D01*
X34840000Y-3000000D02*
X34840000Y-3594000D01*
X46562000Y-27686000D02*
X46054000Y-28194000D01*
X46054000Y-28194000D02*
X27258000Y-28194000D01*
X27512000Y-6482500D02*
X27512000Y-6836250D01*
X27766000Y-8636000D02*
X27512000Y-8382000D01*
X47746000Y9906000D02*
X52658000Y9906000D01*
%TO.N,/SDA*%
X12846250Y-10226250D02*
X15036250Y-8036250D01*
X37380000Y-3000000D02*
X37380000Y-7404000D01*
X49356000Y-27940000D02*
X49356000Y-26924000D01*
X3100000Y-14920000D02*
X8152500Y-14920000D01*
X48594000Y-26162000D02*
X25988000Y-26162000D01*
X11510000Y-34290000D02*
X11510000Y-20066000D01*
X8152500Y-14920000D02*
X15036250Y-8036250D01*
X15036250Y-8036250D02*
X18740000Y-4332500D01*
X18740000Y-4332500D02*
X18740000Y-3500000D01*
X52912000Y7620000D02*
X55198000Y9906000D01*
X49356000Y-26924000D02*
X48594000Y-26162000D01*
X34557750Y-10226250D02*
X12846250Y-10226250D01*
X37380000Y-7404000D02*
X34557750Y-10226250D01*
X48000000Y7620000D02*
X52912000Y7620000D01*
X37380000Y-3000000D02*
X48000000Y7620000D01*
X11510000Y-20066000D02*
X11002000Y-19558000D01*
X3100000Y-14920000D02*
X-1980000Y-14920000D01*
%TO.N,/VBAT*%
X2112000Y-36576000D02*
X4398000Y-36576000D01*
X-2460000Y-32004000D02*
X2112000Y-36576000D01*
X-2460000Y-26924000D02*
X-2460000Y-32004000D01*
%TO.N,/TX*%
X14050000Y-41910000D02*
X14050000Y-39878000D01*
X41797500Y-20345000D02*
X17581000Y-20345000D01*
X14050000Y-39878000D02*
X16590000Y-37338000D01*
X-1980000Y-22540000D02*
X3100000Y-22540000D01*
X16590000Y-37338000D02*
X16590000Y-34290000D01*
X16590000Y-34290000D02*
X16590000Y-21336000D01*
X16590000Y-21336000D02*
X17581000Y-20345000D01*
%TO.N,/RX*%
X15295000Y-17805000D02*
X41797500Y-17805000D01*
X11510000Y-41910000D02*
X11510000Y-38862000D01*
X14050000Y-19050000D02*
X15295000Y-17805000D01*
X11510000Y-38862000D02*
X14050000Y-36322000D01*
X14050000Y-34290000D02*
X14050000Y-19050000D01*
X14050000Y-36322000D02*
X14050000Y-34290000D01*
X3100000Y-20000000D02*
X-1980000Y-20000000D01*
%TO.N,/3Vo*%
X8149750Y-5916250D02*
X8500000Y-5566000D01*
X55706000Y-3048000D02*
X60278000Y1524000D01*
X51134000Y-5928500D02*
X51134000Y-3048000D01*
X13567000Y-15265000D02*
X15803000Y-15265000D01*
X15803000Y-15265000D02*
X15828000Y-15240000D01*
X41797500Y-15265000D02*
X51134000Y-5928500D01*
X-1980000Y-17460000D02*
X3100000Y-17460000D01*
X13542000Y-15240000D02*
X13567000Y-15265000D01*
X8500000Y-5566000D02*
X8500000Y-3580000D01*
X15828000Y-15240000D02*
X15853000Y-15265000D01*
X60278000Y1524000D02*
X60278000Y9906000D01*
X15853000Y-15265000D02*
X41797500Y-15265000D01*
X11322000Y-17460000D02*
X13542000Y-15240000D01*
X8500000Y-3580000D02*
X8580000Y-3500000D01*
X3100000Y-17460000D02*
X11322000Y-17460000D01*
%TO.N,/BAT*%
X63784000Y-28652000D02*
X62818000Y-27686000D01*
X63530000Y-30988000D02*
X63530000Y-28906000D01*
X63530000Y-28906000D02*
X63784000Y-28652000D01*
%TO.N,/SHUNT*%
X60278000Y-27686000D02*
X58754000Y-29210000D01*
X58754000Y-29210000D02*
X58754000Y-30988000D01*
%TO.N,/ADC2*%
X59262000Y-41656000D02*
X62310000Y-38608000D01*
X44276000Y-31750000D02*
X24210000Y-31750000D01*
X44530000Y-32004000D02*
X44276000Y-31750000D01*
X62310000Y-38608000D02*
X61040000Y-38608000D01*
X63530000Y-38608000D02*
X62310000Y-38608000D01*
X44784000Y-41656000D02*
X59262000Y-41656000D01*
X24210000Y-31750000D02*
X21670000Y-34290000D01*
X44530000Y-41402000D02*
X44784000Y-41656000D01*
%TO.N,/ADC3*%
X46308000Y-40206500D02*
X46382500Y-40132000D01*
X58754000Y-38608000D02*
X56468000Y-38608000D01*
X54944000Y-40132000D02*
X56468000Y-38608000D01*
X46308000Y-30226000D02*
X23194000Y-30226000D01*
X46382500Y-40132000D02*
X54944000Y-40132000D01*
X23194000Y-30226000D02*
X19130000Y-34290000D01*
%TO.N,Net-(U4-XTAL1{slash}PB6)*%
X33100000Y-38100000D02*
X29290000Y-41910000D01*
X45038000Y-37084000D02*
X44022000Y-38100000D01*
X44022000Y-38100000D02*
X33100000Y-38100000D01*
X49864000Y-33528000D02*
X49864000Y-35052000D01*
X53908000Y-33528000D02*
X53928000Y-33508000D01*
X49864000Y-35052000D02*
X47832000Y-37084000D01*
X49864000Y-33528000D02*
X53908000Y-33528000D01*
X47832000Y-37084000D02*
X45038000Y-37084000D01*
%TO.N,Net-(U4-XTAL2{slash}PB7)*%
X49864000Y-38428000D02*
X45707390Y-38428000D01*
X45707390Y-38428000D02*
X44511390Y-39624000D01*
X34116000Y-39624000D02*
X31830000Y-41910000D01*
X44511390Y-39624000D02*
X34116000Y-39624000D01*
X49958000Y-38334000D02*
X49864000Y-38428000D01*
X53928000Y-38334000D02*
X49958000Y-38334000D01*
%TO.N,/AREF*%
X19638000Y-37338000D02*
X23702000Y-37338000D01*
X1096000Y-41910000D02*
X3128000Y-39878000D01*
X5160000Y-39624000D02*
X6684000Y-38100000D01*
X5160000Y-39878000D02*
X5160000Y-39624000D01*
X-2460000Y-41910000D02*
X1096000Y-41910000D01*
X3128000Y-39878000D02*
X5160000Y-39878000D01*
X23702000Y-37338000D02*
X26750000Y-34290000D01*
%TD*%
M02*
