<?xml version="1.0" standalone="no"?>
 <!DOCTYPE svg PUBLIC "-//W3C//DTD SVG 1.1//EN" 
 "http://www.w3.org/Graphics/SVG/1.1/DTD/svg11.dtd"> 
<svg
  xmlns:svg="http://www.w3.org/2000/svg"
  xmlns="http://www.w3.org/2000/svg"
  xmlns:xlink="http://www.w3.org/1999/xlink"
  version="1.1"
  width="297.0022mm" height="210.0072mm" viewBox="0.0000 0.0000 297.0022 210.0072">
<title>SVG Image created as Piso_12-F_Silkscreen.svg date 2023/10/23 02:48:21 </title>
  <desc>Image generated by PCBNEW </desc>
<g style="fill:#000000; fill-opacity:1.0000;stroke:#000000; stroke-opacity:1.0000;
stroke-linecap:round; stroke-linejoin:round;"
 transform="translate(0 0) scale(1 1)">
</g>
<g style="fill:#000000; fill-opacity:0.0; 
stroke:#000000; stroke-width:0.0000; stroke-opacity:1; 
stroke-linecap:round; stroke-linejoin:round;">
</g>
<g style="fill:#000000; fill-opacity:1.0000; 
stroke:#000000; stroke-width:0.0212; stroke-opacity:1; 
stroke-linecap:round; stroke-linejoin:round;">
<rect x="-10.638250" y="-18.100000" width="81.936500" height="67.778250" rx="0.000000" />
</g>
<g style="fill:#FFFFFF; fill-opacity:1.0000; 
stroke:#FFFFFF; stroke-width:0.0212; stroke-opacity:1; 
stroke-linecap:round; stroke-linejoin:round;">
</g>
<g style="fill:#0D115E; fill-opacity:1.0000; 
stroke:#0D115E; stroke-width:0.0212; stroke-opacity:1; 
stroke-linecap:round; stroke-linejoin:round;">
</g>
<g style="fill:#0D115E; fill-opacity:1.0000; 
stroke:#0D115E; stroke-width:0.0000; stroke-opacity:1; 
stroke-linecap:round; stroke-linejoin:round;">
<circle cx="-5.0000" cy="0.0000" r="0.0750" /> 
<circle cx="-4.4000" cy="0.0000" r="0.0750" /> 
<circle cx="-3.8000" cy="0.0000" r="0.0750" /> 
<circle cx="-3.2000" cy="0.0000" r="0.0750" /> 
<circle cx="-2.6000" cy="0.0000" r="0.0750" /> 
<circle cx="-2.0000" cy="0.0000" r="0.0750" /> 
<circle cx="-1.4000" cy="0.0000" r="0.0750" /> 
<circle cx="-0.8000" cy="0.0000" r="0.0750" /> 
<circle cx="-0.2000" cy="0.0000" r="0.0750" /> 
<circle cx="0.4000" cy="0.0000" r="0.0750" /> 
<circle cx="1.0000" cy="0.0000" r="0.0750" /> 
<circle cx="1.6000" cy="0.0000" r="0.0750" /> 
<circle cx="2.2000" cy="0.0000" r="0.0750" /> 
<circle cx="2.8000" cy="0.0000" r="0.0750" /> 
<circle cx="3.4000" cy="0.0000" r="0.0750" /> 
<circle cx="4.0000" cy="0.0000" r="0.0750" /> 
<circle cx="4.6000" cy="0.0000" r="0.0750" /> 
<circle cx="5.2000" cy="0.0000" r="0.0750" /> 
<circle cx="5.8000" cy="0.0000" r="0.0750" /> 
<circle cx="6.4000" cy="0.0000" r="0.0750" /> 
<circle cx="7.0000" cy="0.0000" r="0.0750" /> 
<circle cx="7.6000" cy="0.0000" r="0.0750" /> 
<circle cx="8.2000" cy="0.0000" r="0.0750" /> 
<circle cx="8.8000" cy="0.0000" r="0.0750" /> 
<circle cx="9.4000" cy="0.0000" r="0.0750" /> 
<circle cx="10.0000" cy="0.0000" r="0.0750" /> 
<circle cx="10.6000" cy="0.0000" r="0.0750" /> 
<circle cx="11.2000" cy="0.0000" r="0.0750" /> 
<circle cx="11.8000" cy="0.0000" r="0.0750" /> 
<circle cx="12.4000" cy="0.0000" r="0.0750" /> 
<circle cx="13.0000" cy="0.0000" r="0.0750" /> 
<circle cx="13.6000" cy="0.0000" r="0.0750" /> 
<circle cx="14.2000" cy="0.0000" r="0.0750" /> 
<circle cx="14.8000" cy="0.0000" r="0.0750" /> 
<circle cx="15.4000" cy="0.0000" r="0.0750" /> 
<circle cx="16.0000" cy="0.0000" r="0.0750" /> 
<circle cx="16.6000" cy="0.0000" r="0.0750" /> 
<circle cx="17.2000" cy="0.0000" r="0.0750" /> 
<circle cx="17.8000" cy="0.0000" r="0.0750" /> 
<circle cx="18.4000" cy="0.0000" r="0.0750" /> 
<circle cx="19.0000" cy="0.0000" r="0.0750" /> 
<circle cx="19.6000" cy="0.0000" r="0.0750" /> 
<circle cx="20.2000" cy="0.0000" r="0.0750" /> 
<circle cx="20.8000" cy="0.0000" r="0.0750" /> 
<circle cx="21.4000" cy="0.0000" r="0.0750" /> 
<circle cx="22.0000" cy="0.0000" r="0.0750" /> 
<circle cx="22.6000" cy="0.0000" r="0.0750" /> 
<circle cx="23.2000" cy="0.0000" r="0.0750" /> 
<circle cx="23.8000" cy="0.0000" r="0.0750" /> 
<circle cx="24.4000" cy="0.0000" r="0.0750" /> 
<circle cx="25.0000" cy="0.0000" r="0.0750" /> 
<circle cx="25.6000" cy="0.0000" r="0.0750" /> 
<circle cx="26.2000" cy="0.0000" r="0.0750" /> 
<circle cx="26.8000" cy="0.0000" r="0.0750" /> 
<circle cx="27.4000" cy="0.0000" r="0.0750" /> 
<circle cx="28.0000" cy="0.0000" r="0.0750" /> 
<circle cx="28.6000" cy="0.0000" r="0.0750" /> 
<circle cx="29.2000" cy="0.0000" r="0.0750" /> 
<circle cx="29.8000" cy="0.0000" r="0.0750" /> 
<circle cx="30.4000" cy="0.0000" r="0.0750" /> 
<circle cx="31.0000" cy="0.0000" r="0.0750" /> 
<circle cx="31.6000" cy="0.0000" r="0.0750" /> 
<circle cx="32.2000" cy="0.0000" r="0.0750" /> 
<circle cx="32.8000" cy="0.0000" r="0.0750" /> 
<circle cx="33.4000" cy="0.0000" r="0.0750" /> 
<circle cx="34.0000" cy="0.0000" r="0.0750" /> 
<circle cx="34.6000" cy="0.0000" r="0.0750" /> 
<circle cx="35.2000" cy="0.0000" r="0.0750" /> 
<circle cx="35.8000" cy="0.0000" r="0.0750" /> 
<circle cx="36.4000" cy="0.0000" r="0.0750" /> 
<circle cx="37.0000" cy="0.0000" r="0.0750" /> 
<circle cx="37.6000" cy="0.0000" r="0.0750" /> 
<circle cx="38.2000" cy="0.0000" r="0.0750" /> 
<circle cx="38.8000" cy="0.0000" r="0.0750" /> 
<circle cx="39.4000" cy="0.0000" r="0.0750" /> 
<circle cx="40.0000" cy="0.0000" r="0.0750" /> 
<circle cx="40.6000" cy="0.0000" r="0.0750" /> 
<circle cx="41.2000" cy="0.0000" r="0.0750" /> 
<circle cx="41.8000" cy="0.0000" r="0.0750" /> 
<circle cx="42.4000" cy="0.0000" r="0.0750" /> 
<circle cx="43.0000" cy="0.0000" r="0.0750" /> 
<circle cx="43.6000" cy="0.0000" r="0.0750" /> 
<circle cx="44.2000" cy="0.0000" r="0.0750" /> 
<circle cx="44.8000" cy="0.0000" r="0.0750" /> 
<circle cx="45.4000" cy="0.0000" r="0.0750" /> 
<circle cx="46.0000" cy="0.0000" r="0.0750" /> 
<circle cx="46.6000" cy="0.0000" r="0.0750" /> 
<circle cx="47.2000" cy="0.0000" r="0.0750" /> 
<circle cx="47.8000" cy="0.0000" r="0.0750" /> 
<circle cx="48.4000" cy="0.0000" r="0.0750" /> 
<circle cx="49.0000" cy="0.0000" r="0.0750" /> 
<circle cx="49.6000" cy="0.0000" r="0.0750" /> 
<circle cx="50.2000" cy="0.0000" r="0.0750" /> 
<circle cx="50.8000" cy="0.0000" r="0.0750" /> 
<circle cx="51.4000" cy="0.0000" r="0.0750" /> 
<circle cx="52.0000" cy="0.0000" r="0.0750" /> 
<circle cx="52.6000" cy="0.0000" r="0.0750" /> 
<circle cx="53.2000" cy="0.0000" r="0.0750" /> 
<circle cx="53.8000" cy="0.0000" r="0.0750" /> 
<circle cx="54.4000" cy="0.0000" r="0.0750" /> 
<circle cx="55.0000" cy="0.0000" r="0.0750" /> 
<circle cx="55.6000" cy="0.0000" r="0.0750" /> 
<circle cx="56.2000" cy="0.0000" r="0.0750" /> 
<circle cx="56.8000" cy="0.0000" r="0.0750" /> 
<circle cx="57.4000" cy="0.0000" r="0.0750" /> 
<circle cx="58.0000" cy="0.0000" r="0.0750" /> 
<circle cx="58.6000" cy="0.0000" r="0.0750" /> 
<circle cx="59.2000" cy="0.0000" r="0.0750" /> 
<circle cx="59.8000" cy="0.0000" r="0.0750" /> 
<circle cx="60.4000" cy="0.0000" r="0.0750" /> 
<circle cx="61.0000" cy="0.0000" r="0.0750" /> 
<circle cx="61.6000" cy="0.0000" r="0.0750" /> 
<circle cx="62.2000" cy="0.0000" r="0.0750" /> 
<circle cx="62.8000" cy="0.0000" r="0.0750" /> 
<circle cx="63.4000" cy="0.0000" r="0.0750" /> 
<circle cx="64.0000" cy="0.0000" r="0.0750" /> 
<circle cx="64.6000" cy="0.0000" r="0.0750" /> 
<circle cx="65.0000" cy="0.0000" r="0.0750" /> 
<circle cx="65.0000" cy="0.6000" r="0.0750" /> 
<circle cx="65.0000" cy="1.2000" r="0.0750" /> 
<circle cx="65.0000" cy="1.8000" r="0.0750" /> 
<circle cx="65.0000" cy="2.4000" r="0.0750" /> 
<circle cx="65.0000" cy="3.0000" r="0.0750" /> 
<circle cx="65.0000" cy="3.6000" r="0.0750" /> 
<circle cx="65.0000" cy="4.2000" r="0.0750" /> 
<circle cx="65.0000" cy="4.8000" r="0.0750" /> 
<circle cx="65.0000" cy="5.4000" r="0.0750" /> 
<circle cx="65.0000" cy="6.0000" r="0.0750" /> 
<circle cx="65.0000" cy="6.6000" r="0.0750" /> 
<circle cx="65.0000" cy="7.2000" r="0.0750" /> 
<circle cx="65.0000" cy="7.8000" r="0.0750" /> 
<circle cx="65.0000" cy="8.4000" r="0.0750" /> 
<circle cx="65.0000" cy="9.0000" r="0.0750" /> 
<circle cx="65.0000" cy="9.6000" r="0.0750" /> 
<circle cx="65.0000" cy="10.2000" r="0.0750" /> 
<circle cx="65.0000" cy="10.8000" r="0.0750" /> 
<circle cx="65.0000" cy="11.4000" r="0.0750" /> 
<circle cx="65.0000" cy="12.0000" r="0.0750" /> 
<circle cx="65.0000" cy="12.6000" r="0.0750" /> 
<circle cx="65.0000" cy="13.2000" r="0.0750" /> 
<circle cx="65.0000" cy="13.8000" r="0.0750" /> 
<circle cx="65.0000" cy="14.4000" r="0.0750" /> 
<circle cx="65.0000" cy="15.0000" r="0.0750" /> 
<circle cx="65.0000" cy="15.6000" r="0.0750" /> 
<circle cx="65.0000" cy="16.2000" r="0.0750" /> 
<circle cx="65.0000" cy="16.8000" r="0.0750" /> 
<circle cx="65.0000" cy="17.4000" r="0.0750" /> 
<circle cx="65.0000" cy="18.0000" r="0.0750" /> 
<circle cx="65.0000" cy="18.6000" r="0.0750" /> 
<circle cx="65.0000" cy="19.2000" r="0.0750" /> 
<circle cx="65.0000" cy="19.8000" r="0.0750" /> 
<circle cx="65.0000" cy="20.4000" r="0.0750" /> 
<circle cx="65.0000" cy="21.0000" r="0.0750" /> 
<circle cx="65.0000" cy="21.6000" r="0.0750" /> 
<circle cx="65.0000" cy="22.2000" r="0.0750" /> 
<circle cx="65.0000" cy="22.8000" r="0.0750" /> 
<circle cx="65.0000" cy="23.4000" r="0.0750" /> 
<circle cx="65.0000" cy="24.0000" r="0.0750" /> 
<circle cx="65.0000" cy="24.6000" r="0.0750" /> 
<circle cx="65.0000" cy="25.2000" r="0.0750" /> 
<circle cx="65.0000" cy="25.8000" r="0.0750" /> 
<circle cx="65.0000" cy="26.4000" r="0.0750" /> 
<circle cx="65.0000" cy="27.0000" r="0.0750" /> 
<circle cx="65.0000" cy="27.6000" r="0.0750" /> 
<circle cx="65.0000" cy="28.2000" r="0.0750" /> 
<circle cx="65.0000" cy="28.8000" r="0.0750" /> 
<circle cx="65.0000" cy="29.4000" r="0.0750" /> 
<circle cx="65.0000" cy="30.0000" r="0.0750" /> 
<circle cx="65.0000" cy="30.0000" r="0.0750" /> 
<circle cx="64.4000" cy="30.0000" r="0.0750" /> 
<circle cx="63.8000" cy="30.0000" r="0.0750" /> 
<circle cx="63.2000" cy="30.0000" r="0.0750" /> 
<circle cx="62.6000" cy="30.0000" r="0.0750" /> 
<circle cx="62.0000" cy="30.0000" r="0.0750" /> 
<circle cx="61.4000" cy="30.0000" r="0.0750" /> 
<circle cx="60.8000" cy="30.0000" r="0.0750" /> 
<circle cx="60.2000" cy="30.0000" r="0.0750" /> 
<circle cx="59.6000" cy="30.0000" r="0.0750" /> 
<circle cx="59.0000" cy="30.0000" r="0.0750" /> 
<circle cx="58.4000" cy="30.0000" r="0.0750" /> 
<circle cx="57.8000" cy="30.0000" r="0.0750" /> 
<circle cx="57.2000" cy="30.0000" r="0.0750" /> 
<circle cx="56.6000" cy="30.0000" r="0.0750" /> 
<circle cx="56.0000" cy="30.0000" r="0.0750" /> 
<circle cx="55.4000" cy="30.0000" r="0.0750" /> 
<circle cx="54.8000" cy="30.0000" r="0.0750" /> 
<circle cx="54.2000" cy="30.0000" r="0.0750" /> 
<circle cx="53.6000" cy="30.0000" r="0.0750" /> 
<circle cx="53.0000" cy="30.0000" r="0.0750" /> 
<circle cx="52.4000" cy="30.0000" r="0.0750" /> 
<circle cx="51.8000" cy="30.0000" r="0.0750" /> 
<circle cx="51.2000" cy="30.0000" r="0.0750" /> 
<circle cx="50.6000" cy="30.0000" r="0.0750" /> 
<circle cx="50.0000" cy="30.0000" r="0.0750" /> 
<circle cx="49.4000" cy="30.0000" r="0.0750" /> 
<circle cx="48.8000" cy="30.0000" r="0.0750" /> 
<circle cx="48.2000" cy="30.0000" r="0.0750" /> 
<circle cx="47.6000" cy="30.0000" r="0.0750" /> 
<circle cx="47.0000" cy="30.0000" r="0.0750" /> 
<circle cx="46.4000" cy="30.0000" r="0.0750" /> 
<circle cx="45.8000" cy="30.0000" r="0.0750" /> 
<circle cx="45.2000" cy="30.0000" r="0.0750" /> 
<circle cx="44.6000" cy="30.0000" r="0.0750" /> 
<circle cx="44.0000" cy="30.0000" r="0.0750" /> 
<circle cx="43.4000" cy="30.0000" r="0.0750" /> 
<circle cx="42.8000" cy="30.0000" r="0.0750" /> 
<circle cx="42.2000" cy="30.0000" r="0.0750" /> 
<circle cx="41.6000" cy="30.0000" r="0.0750" /> 
<circle cx="41.0000" cy="30.0000" r="0.0750" /> 
<circle cx="40.4000" cy="30.0000" r="0.0750" /> 
<circle cx="39.8000" cy="30.0000" r="0.0750" /> 
<circle cx="39.2000" cy="30.0000" r="0.0750" /> 
<circle cx="38.6000" cy="30.0000" r="0.0750" /> 
<circle cx="38.0000" cy="30.0000" r="0.0750" /> 
<circle cx="37.4000" cy="30.0000" r="0.0750" /> 
<circle cx="36.8000" cy="30.0000" r="0.0750" /> 
<circle cx="36.2000" cy="30.0000" r="0.0750" /> 
<circle cx="35.6000" cy="30.0000" r="0.0750" /> 
<circle cx="35.0000" cy="30.0000" r="0.0750" /> 
<circle cx="34.4000" cy="30.0000" r="0.0750" /> 
<circle cx="33.8000" cy="30.0000" r="0.0750" /> 
<circle cx="33.2000" cy="30.0000" r="0.0750" /> 
<circle cx="32.6000" cy="30.0000" r="0.0750" /> 
<circle cx="32.0000" cy="30.0000" r="0.0750" /> 
<circle cx="31.4000" cy="30.0000" r="0.0750" /> 
<circle cx="30.8000" cy="30.0000" r="0.0750" /> 
<circle cx="30.2000" cy="30.0000" r="0.0750" /> 
<circle cx="29.6000" cy="30.0000" r="0.0750" /> 
<circle cx="29.0000" cy="30.0000" r="0.0750" /> 
<circle cx="28.4000" cy="30.0000" r="0.0750" /> 
<circle cx="27.8000" cy="30.0000" r="0.0750" /> 
<circle cx="27.2000" cy="30.0000" r="0.0750" /> 
<circle cx="26.6000" cy="30.0000" r="0.0750" /> 
<circle cx="26.0000" cy="30.0000" r="0.0750" /> 
<circle cx="25.4000" cy="30.0000" r="0.0750" /> 
<circle cx="24.8000" cy="30.0000" r="0.0750" /> 
<circle cx="24.2000" cy="30.0000" r="0.0750" /> 
<circle cx="23.6000" cy="30.0000" r="0.0750" /> 
<circle cx="23.0000" cy="30.0000" r="0.0750" /> 
<circle cx="22.4000" cy="30.0000" r="0.0750" /> 
<circle cx="21.8000" cy="30.0000" r="0.0750" /> 
<circle cx="21.2000" cy="30.0000" r="0.0750" /> 
<circle cx="20.6000" cy="30.0000" r="0.0750" /> 
<circle cx="20.0000" cy="30.0000" r="0.0750" /> 
<circle cx="19.4000" cy="30.0000" r="0.0750" /> 
<circle cx="18.8000" cy="30.0000" r="0.0750" /> 
<circle cx="18.2000" cy="30.0000" r="0.0750" /> 
<circle cx="17.6000" cy="30.0000" r="0.0750" /> 
<circle cx="17.0000" cy="30.0000" r="0.0750" /> 
<circle cx="16.4000" cy="30.0000" r="0.0750" /> 
<circle cx="15.8000" cy="30.0000" r="0.0750" /> 
<circle cx="15.2000" cy="30.0000" r="0.0750" /> 
<circle cx="14.6000" cy="30.0000" r="0.0750" /> 
<circle cx="14.0000" cy="30.0000" r="0.0750" /> 
<circle cx="13.4000" cy="30.0000" r="0.0750" /> 
<circle cx="12.8000" cy="30.0000" r="0.0750" /> 
<circle cx="12.2000" cy="30.0000" r="0.0750" /> 
<circle cx="11.6000" cy="30.0000" r="0.0750" /> 
<circle cx="11.0000" cy="30.0000" r="0.0750" /> 
<circle cx="10.4000" cy="30.0000" r="0.0750" /> 
<circle cx="9.8000" cy="30.0000" r="0.0750" /> 
<circle cx="9.2000" cy="30.0000" r="0.0750" /> 
<circle cx="8.6000" cy="30.0000" r="0.0750" /> 
<circle cx="8.0000" cy="30.0000" r="0.0750" /> 
<circle cx="7.4000" cy="30.0000" r="0.0750" /> 
<circle cx="6.8000" cy="30.0000" r="0.0750" /> 
<circle cx="6.2000" cy="30.0000" r="0.0750" /> 
<circle cx="5.6000" cy="30.0000" r="0.0750" /> 
<circle cx="5.0000" cy="30.0000" r="0.0750" /> 
<circle cx="4.4000" cy="30.0000" r="0.0750" /> 
<circle cx="3.8000" cy="30.0000" r="0.0750" /> 
<circle cx="3.2000" cy="30.0000" r="0.0750" /> 
<circle cx="2.6000" cy="30.0000" r="0.0750" /> 
<circle cx="2.0000" cy="30.0000" r="0.0750" /> 
<circle cx="1.4000" cy="30.0000" r="0.0750" /> 
<circle cx="0.8000" cy="30.0000" r="0.0750" /> 
<circle cx="0.2000" cy="30.0000" r="0.0750" /> 
<circle cx="-0.4000" cy="30.0000" r="0.0750" /> 
<circle cx="-1.0000" cy="30.0000" r="0.0750" /> 
<circle cx="-1.6000" cy="30.0000" r="0.0750" /> 
<circle cx="-2.2000" cy="30.0000" r="0.0750" /> 
<circle cx="-2.8000" cy="30.0000" r="0.0750" /> 
<circle cx="-3.4000" cy="30.0000" r="0.0750" /> 
<circle cx="-4.0000" cy="30.0000" r="0.0750" /> 
<circle cx="-4.6000" cy="30.0000" r="0.0750" /> 
<circle cx="-5.0000" cy="30.0000" r="0.0750" /> 
<circle cx="-5.0000" cy="29.4000" r="0.0750" /> 
<circle cx="-5.0000" cy="28.8000" r="0.0750" /> 
<circle cx="-5.0000" cy="28.2000" r="0.0750" /> 
<circle cx="-5.0000" cy="27.6000" r="0.0750" /> 
<circle cx="-5.0000" cy="27.0000" r="0.0750" /> 
<circle cx="-5.0000" cy="26.4000" r="0.0750" /> 
<circle cx="-5.0000" cy="25.8000" r="0.0750" /> 
<circle cx="-5.0000" cy="25.2000" r="0.0750" /> 
<circle cx="-5.0000" cy="24.6000" r="0.0750" /> 
<circle cx="-5.0000" cy="24.0000" r="0.0750" /> 
<circle cx="-5.0000" cy="23.4000" r="0.0750" /> 
<circle cx="-5.0000" cy="22.8000" r="0.0750" /> 
<circle cx="-5.0000" cy="22.2000" r="0.0750" /> 
<circle cx="-5.0000" cy="21.6000" r="0.0750" /> 
<circle cx="-5.0000" cy="21.0000" r="0.0750" /> 
<circle cx="-5.0000" cy="20.4000" r="0.0750" /> 
<circle cx="-5.0000" cy="19.8000" r="0.0750" /> 
<circle cx="-5.0000" cy="19.2000" r="0.0750" /> 
<circle cx="-5.0000" cy="18.6000" r="0.0750" /> 
<circle cx="-5.0000" cy="18.0000" r="0.0750" /> 
<circle cx="-5.0000" cy="17.4000" r="0.0750" /> 
<circle cx="-5.0000" cy="16.8000" r="0.0750" /> 
<circle cx="-5.0000" cy="16.2000" r="0.0750" /> 
<circle cx="-5.0000" cy="15.6000" r="0.0750" /> 
<circle cx="-5.0000" cy="15.0000" r="0.0750" /> 
<circle cx="-5.0000" cy="14.4000" r="0.0750" /> 
<circle cx="-5.0000" cy="13.8000" r="0.0750" /> 
<circle cx="-5.0000" cy="13.2000" r="0.0750" /> 
<circle cx="-5.0000" cy="12.6000" r="0.0750" /> 
<circle cx="-5.0000" cy="12.0000" r="0.0750" /> 
<circle cx="-5.0000" cy="11.4000" r="0.0750" /> 
<circle cx="-5.0000" cy="10.8000" r="0.0750" /> 
<circle cx="-5.0000" cy="10.2000" r="0.0750" /> 
<circle cx="-5.0000" cy="9.6000" r="0.0750" /> 
<circle cx="-5.0000" cy="9.0000" r="0.0750" /> 
<circle cx="-5.0000" cy="8.4000" r="0.0750" /> 
<circle cx="-5.0000" cy="7.8000" r="0.0750" /> 
<circle cx="-5.0000" cy="7.2000" r="0.0750" /> 
<circle cx="-5.0000" cy="6.6000" r="0.0750" /> 
<circle cx="-5.0000" cy="6.0000" r="0.0750" /> 
<circle cx="-5.0000" cy="5.4000" r="0.0750" /> 
<circle cx="-5.0000" cy="4.8000" r="0.0750" /> 
<circle cx="-5.0000" cy="4.2000" r="0.0750" /> 
<circle cx="-5.0000" cy="3.6000" r="0.0750" /> 
<circle cx="-5.0000" cy="3.0000" r="0.0750" /> 
<circle cx="-5.0000" cy="2.4000" r="0.0750" /> 
<circle cx="-5.0000" cy="1.8000" r="0.0750" /> 
<circle cx="-5.0000" cy="1.2000" r="0.0750" /> 
<circle cx="-5.0000" cy="0.6000" r="0.0750" /> 
<circle cx="-5.0000" cy="0.0000" r="0.0750" /> 
</g>
<g style="fill:#0D115E; fill-opacity:1.0000; 
stroke:#0D115E; stroke-width:0.1500; stroke-opacity:1; 
stroke-linecap:round; stroke-linejoin:round;">
</g>
<g style="fill:#0D115E; fill-opacity:0.0; 
stroke:#0D115E; stroke-width:0.1500; stroke-opacity:1; 
stroke-linecap:round; stroke-linejoin:round;">
<g transform="rotate(-90.000000 60.6740 34.7980)">
<text x="60.6740" y="35.2980"
textLength="2.2024" font-size="1.3333" lengthAdjust="spacingAndGlyphs"
text-anchor="middle" opacity="0">R3</text>
</g>
<g class="stroked-text"><desc>R3</desc>
<path d="M61.1288 34.9647
L60.6526 35.2980
" />
<path d="M61.1288 35.5361
L60.1288 35.5361
" />
<path d="M60.1288 35.5361
L60.1288 35.1551
" />
<path d="M60.1288 35.1551
L60.1764 35.0599
" />
<path d="M60.1764 35.0599
L60.2241 35.0123
" />
<path d="M60.2241 35.0123
L60.3193 34.9647
" />
<path d="M60.3193 34.9647
L60.4622 34.9647
" />
<path d="M60.4622 34.9647
L60.5574 35.0123
" />
<path d="M60.5574 35.0123
L60.6050 35.0599
" />
<path d="M60.6050 35.0599
L60.6526 35.1551
" />
<path d="M60.6526 35.1551
L60.6526 35.5361
" />
<path d="M60.1288 34.6313
L60.1288 34.0123
" />
<path d="M60.1288 34.0123
L60.5098 34.3456
" />
<path d="M60.5098 34.3456
L60.5098 34.2028
" />
<path d="M60.5098 34.2028
L60.5574 34.1075
" />
<path d="M60.5574 34.1075
L60.6050 34.0599
" />
<path d="M60.6050 34.0599
L60.7002 34.0123
" />
<path d="M60.7002 34.0123
L60.9383 34.0123
" />
<path d="M60.9383 34.0123
L61.0336 34.0599
" />
<path d="M61.0336 34.0599
L61.0812 34.1075
" />
<path d="M61.0812 34.1075
L61.1288 34.2028
" />
<path d="M61.1288 34.2028
L61.1288 34.4885
" />
<path d="M61.1288 34.4885
L61.0812 34.5837
" />
<path d="M61.0812 34.5837
L61.0336 34.6313
" />
</g><g transform="rotate(-90.000000 54.5480 34.7980)">
<text x="54.5480" y="35.2980"
textLength="2.2024" font-size="1.3333" lengthAdjust="spacingAndGlyphs"
text-anchor="middle" opacity="0">R4</text>
</g>
<g class="stroked-text"><desc>R4</desc>
<path d="M55.0028 34.9647
L54.5266 35.2980
" />
<path d="M55.0028 35.5361
L54.0028 35.5361
" />
<path d="M54.0028 35.5361
L54.0028 35.1551
" />
<path d="M54.0028 35.1551
L54.0504 35.0599
" />
<path d="M54.0504 35.0599
L54.0981 35.0123
" />
<path d="M54.0981 35.0123
L54.1933 34.9647
" />
<path d="M54.1933 34.9647
L54.3362 34.9647
" />
<path d="M54.3362 34.9647
L54.4314 35.0123
" />
<path d="M54.4314 35.0123
L54.4790 35.0599
" />
<path d="M54.4790 35.0599
L54.5266 35.1551
" />
<path d="M54.5266 35.1551
L54.5266 35.5361
" />
<path d="M54.3362 34.1075
L55.0028 34.1075
" />
<path d="M53.9552 34.3456
L54.6695 34.5837
" />
<path d="M54.6695 34.5837
L54.6695 33.9647
" />
</g><text x="-1.9800" y="5.4700"
textLength="2.9167" font-size="1.3333" lengthAdjust="spacingAndGlyphs"
text-anchor="middle" opacity="0">J10</text>
<g class="stroked-text"><desc>J10</desc>
<path d="M-2.7895 4.4248
L-2.7895 5.1391
" />
<path d="M-2.7895 5.1391
L-2.8371 5.2820
" />
<path d="M-2.8371 5.2820
L-2.9324 5.3772
" />
<path d="M-2.9324 5.3772
L-3.0752 5.4248
" />
<path d="M-3.0752 5.4248
L-3.1705 5.4248
" />
<path d="M-1.7895 5.4248
L-2.3610 5.4248
" />
<path d="M-2.0752 5.4248
L-2.0752 4.4248
" />
<path d="M-2.0752 4.4248
L-2.1705 4.5677
" />
<path d="M-2.1705 4.5677
L-2.2657 4.6629
" />
<path d="M-2.2657 4.6629
L-2.3610 4.7105
" />
<path d="M-1.1705 4.4248
L-1.0752 4.4248
" />
<path d="M-1.0752 4.4248
L-0.9800 4.4724
" />
<path d="M-0.9800 4.4724
L-0.9324 4.5201
" />
<path d="M-0.9324 4.5201
L-0.8848 4.6153
" />
<path d="M-0.8848 4.6153
L-0.8371 4.8058
" />
<path d="M-0.8371 4.8058
L-0.8371 5.0439
" />
<path d="M-0.8371 5.0439
L-0.8848 5.2343
" />
<path d="M-0.8848 5.2343
L-0.9324 5.3296
" />
<path d="M-0.9324 5.3296
L-0.9800 5.3772
" />
<path d="M-0.9800 5.3772
L-1.0752 5.4248
" />
<path d="M-1.0752 5.4248
L-1.1705 5.4248
" />
<path d="M-1.1705 5.4248
L-1.2657 5.3772
" />
<path d="M-1.2657 5.3772
L-1.3133 5.3296
" />
<path d="M-1.3133 5.3296
L-1.3610 5.2343
" />
<path d="M-1.3610 5.2343
L-1.4086 5.0439
" />
<path d="M-1.4086 5.0439
L-1.4086 4.8058
" />
<path d="M-1.4086 4.8058
L-1.3610 4.6153
" />
<path d="M-1.3610 4.6153
L-1.3133 4.5201
" />
<path d="M-1.3133 4.5201
L-1.2657 4.4724
" />
<path d="M-1.2657 4.4724
L-1.1705 4.4248
" />
</g><text x="1.3500" y="42.2980"
textLength="2.2024" font-size="1.3333" lengthAdjust="spacingAndGlyphs"
text-anchor="middle" opacity="0">R6</text>
<g class="stroked-text"><desc>R6</desc>
<path d="M1.1833 42.2528
L0.8500 41.7766
" />
<path d="M0.6119 42.2528
L0.6119 41.2528
" />
<path d="M0.6119 41.2528
L0.9929 41.2528
" />
<path d="M0.9929 41.2528
L1.0881 41.3004
" />
<path d="M1.0881 41.3004
L1.1357 41.3481
" />
<path d="M1.1357 41.3481
L1.1833 41.4433
" />
<path d="M1.1833 41.4433
L1.1833 41.5862
" />
<path d="M1.1833 41.5862
L1.1357 41.6814
" />
<path d="M1.1357 41.6814
L1.0881 41.7290
" />
<path d="M1.0881 41.7290
L0.9929 41.7766
" />
<path d="M0.9929 41.7766
L0.6119 41.7766
" />
<path d="M2.0405 41.2528
L1.8500 41.2528
" />
<path d="M1.8500 41.2528
L1.7548 41.3004
" />
<path d="M1.7548 41.3004
L1.7071 41.3481
" />
<path d="M1.7071 41.3481
L1.6119 41.4909
" />
<path d="M1.6119 41.4909
L1.5643 41.6814
" />
<path d="M1.5643 41.6814
L1.5643 42.0623
" />
<path d="M1.5643 42.0623
L1.6119 42.1576
" />
<path d="M1.6119 42.1576
L1.6595 42.2052
" />
<path d="M1.6595 42.2052
L1.7548 42.2528
" />
<path d="M1.7548 42.2528
L1.9452 42.2528
" />
<path d="M1.9452 42.2528
L2.0405 42.2052
" />
<path d="M2.0405 42.2052
L2.0881 42.1576
" />
<path d="M2.0881 42.1576
L2.1357 42.0623
" />
<path d="M2.1357 42.0623
L2.1357 41.8242
" />
<path d="M2.1357 41.8242
L2.0881 41.7290
" />
<path d="M2.0881 41.7290
L2.0405 41.6814
" />
<path d="M2.0405 41.6814
L1.9452 41.6338
" />
<path d="M1.9452 41.6338
L1.7548 41.6338
" />
<path d="M1.7548 41.6338
L1.6595 41.6814
" />
<path d="M1.6595 41.6814
L1.6119 41.7290
" />
<path d="M1.6119 41.7290
L1.5643 41.8242
" />
</g><g transform="rotate(-90.000000 59.1200 34.7980)">
<text x="59.1200" y="35.2980"
textLength="2.2024" font-size="1.3333" lengthAdjust="spacingAndGlyphs"
text-anchor="middle" opacity="0">R2</text>
</g>
<g class="stroked-text"><desc>R2</desc>
<path d="M59.5748 34.9647
L59.0986 35.2980
" />
<path d="M59.5748 35.5361
L58.5748 35.5361
" />
<path d="M58.5748 35.5361
L58.5748 35.1551
" />
<path d="M58.5748 35.1551
L58.6224 35.0599
" />
<path d="M58.6224 35.0599
L58.6701 35.0123
" />
<path d="M58.6701 35.0123
L58.7653 34.9647
" />
<path d="M58.7653 34.9647
L58.9082 34.9647
" />
<path d="M58.9082 34.9647
L59.0034 35.0123
" />
<path d="M59.0034 35.0123
L59.0510 35.0599
" />
<path d="M59.0510 35.0599
L59.0986 35.1551
" />
<path d="M59.0986 35.1551
L59.0986 35.5361
" />
<path d="M58.6701 34.5837
L58.6224 34.5361
" />
<path d="M58.6224 34.5361
L58.5748 34.4409
" />
<path d="M58.5748 34.4409
L58.5748 34.2028
" />
<path d="M58.5748 34.2028
L58.6224 34.1075
" />
<path d="M58.6224 34.1075
L58.6701 34.0599
" />
<path d="M58.6701 34.0599
L58.7653 34.0123
" />
<path d="M58.7653 34.0123
L58.8605 34.0123
" />
<path d="M58.8605 34.0123
L59.0034 34.0599
" />
<path d="M59.0034 34.0599
L59.5748 34.6313
" />
<path d="M59.5748 34.6313
L59.5748 34.0123
" />
</g><g transform="rotate(-90.000000 3.7100 3.5000)">
<text x="3.7100" y="4.0000"
textLength="1.9643" font-size="1.3333" lengthAdjust="spacingAndGlyphs"
text-anchor="middle" opacity="0">J1</text>
</g>
<g class="stroked-text"><desc>J1</desc>
<path d="M3.1648 3.8333
L3.8791 3.8333
" />
<path d="M3.8791 3.8333
L4.0220 3.8810
" />
<path d="M4.0220 3.8810
L4.1172 3.9762
" />
<path d="M4.1172 3.9762
L4.1648 4.1190
" />
<path d="M4.1648 4.1190
L4.1648 4.2143
" />
<path d="M4.1648 2.8333
L4.1648 3.4048
" />
<path d="M4.1648 3.1190
L3.1648 3.1190
" />
<path d="M3.1648 3.1190
L3.3077 3.2143
" />
<path d="M3.3077 3.2143
L3.4029 3.3095
" />
<path d="M3.4029 3.3095
L3.4505 3.4048
" />
</g><g transform="rotate(-90.000000 6.6400 38.1000)">
<text x="6.6400" y="38.6000"
textLength="2.2500" font-size="1.3333" lengthAdjust="spacingAndGlyphs"
text-anchor="middle" opacity="0">U4</text>
</g>
<g class="stroked-text"><desc>U4</desc>
<path d="M6.0948 38.8619
L6.9043 38.8619
" />
<path d="M6.9043 38.8619
L6.9996 38.8143
" />
<path d="M6.9996 38.8143
L7.0472 38.7667
" />
<path d="M7.0472 38.7667
L7.0948 38.6714
" />
<path d="M7.0948 38.6714
L7.0948 38.4810
" />
<path d="M7.0948 38.4810
L7.0472 38.3857
" />
<path d="M7.0472 38.3857
L6.9996 38.3381
" />
<path d="M6.9996 38.3381
L6.9043 38.2905
" />
<path d="M6.9043 38.2905
L6.0948 38.2905
" />
<path d="M6.4282 37.3857
L7.0948 37.3857
" />
<path d="M6.0472 37.6238
L6.7615 37.8619
" />
<path d="M6.7615 37.8619
L6.7615 37.2429
" />
</g><g transform="rotate(-90.000000 46.3390 35.9780)">
<text x="46.3390" y="36.4780"
textLength="2.0595" font-size="1.3333" lengthAdjust="spacingAndGlyphs"
text-anchor="middle" opacity="0">Y1</text>
</g>
<g class="stroked-text"><desc>Y1</desc>
<path d="M46.3176 36.4542
L46.7938 36.4542
" />
<path d="M45.7938 36.7875
L46.3176 36.4542
" />
<path d="M46.3176 36.4542
L45.7938 36.1209
" />
<path d="M46.7938 35.2637
L46.7938 35.8351
" />
<path d="M46.7938 35.5494
L45.7938 35.5494
" />
<path d="M45.7938 35.5494
L45.9367 35.6447
" />
<path d="M45.9367 35.6447
L46.0319 35.7399
" />
<path d="M46.0319 35.7399
L46.0795 35.8351
" />
</g><g transform="rotate(-90.000000 55.9780 37.0840)">
<text x="55.9780" y="37.5840"
textLength="2.2024" font-size="1.3333" lengthAdjust="spacingAndGlyphs"
text-anchor="middle" opacity="0">C1</text>
</g>
<g class="stroked-text"><desc>C1</desc>
<path d="M56.3376 37.2507
L56.3852 37.2983
" />
<path d="M56.3852 37.2983
L56.4328 37.4411
" />
<path d="M56.4328 37.4411
L56.4328 37.5364
" />
<path d="M56.4328 37.5364
L56.3852 37.6792
" />
<path d="M56.3852 37.6792
L56.2900 37.7745
" />
<path d="M56.2900 37.7745
L56.1947 37.8221
" />
<path d="M56.1947 37.8221
L56.0042 37.8697
" />
<path d="M56.0042 37.8697
L55.8614 37.8697
" />
<path d="M55.8614 37.8697
L55.6709 37.8221
" />
<path d="M55.6709 37.8221
L55.5757 37.7745
" />
<path d="M55.5757 37.7745
L55.4804 37.6792
" />
<path d="M55.4804 37.6792
L55.4328 37.5364
" />
<path d="M55.4328 37.5364
L55.4328 37.4411
" />
<path d="M55.4328 37.4411
L55.4804 37.2983
" />
<path d="M55.4804 37.2983
L55.5281 37.2507
" />
<path d="M56.4328 36.2983
L56.4328 36.8697
" />
<path d="M56.4328 36.5840
L55.4328 36.5840
" />
<path d="M55.4328 36.5840
L55.5757 36.6792
" />
<path d="M55.5757 36.6792
L55.6709 36.7745
" />
<path d="M55.6709 36.7745
L55.7185 36.8697
" />
</g><g transform="rotate(-90.000000 65.1480 27.6860)">
<text x="65.1480" y="28.1860"
textLength="1.9643" font-size="1.3333" lengthAdjust="spacingAndGlyphs"
text-anchor="middle" opacity="0">J9</text>
</g>
<g class="stroked-text"><desc>J9</desc>
<path d="M64.6028 28.0193
L65.3171 28.0193
" />
<path d="M65.3171 28.0193
L65.4600 28.0670
" />
<path d="M65.4600 28.0670
L65.5552 28.1622
" />
<path d="M65.5552 28.1622
L65.6028 28.3050
" />
<path d="M65.6028 28.3050
L65.6028 28.4003
" />
<path d="M65.6028 27.4955
L65.6028 27.3050
" />
<path d="M65.6028 27.3050
L65.5552 27.2098
" />
<path d="M65.5552 27.2098
L65.5076 27.1622
" />
<path d="M65.5076 27.1622
L65.3647 27.0670
" />
<path d="M65.3647 27.0670
L65.1742 27.0193
" />
<path d="M65.1742 27.0193
L64.7933 27.0193
" />
<path d="M64.7933 27.0193
L64.6981 27.0670
" />
<path d="M64.6981 27.0670
L64.6504 27.1146
" />
<path d="M64.6504 27.1146
L64.6028 27.2098
" />
<path d="M64.6028 27.2098
L64.6028 27.4003
" />
<path d="M64.6028 27.4003
L64.6504 27.4955
" />
<path d="M64.6504 27.4955
L64.6981 27.5431
" />
<path d="M64.6981 27.5431
L64.7933 27.5908
" />
<path d="M64.7933 27.5908
L65.0314 27.5908
" />
<path d="M65.0314 27.5908
L65.1266 27.5431
" />
<path d="M65.1266 27.5431
L65.1742 27.4955
" />
<path d="M65.1742 27.4955
L65.2219 27.4003
" />
<path d="M65.2219 27.4003
L65.2219 27.2098
" />
<path d="M65.2219 27.2098
L65.1742 27.1146
" />
<path d="M65.1742 27.1146
L65.1266 27.0670
" />
<path d="M65.1266 27.0670
L65.0314 27.0193
" />
</g><text x="1.3500" y="44.3300"
textLength="2.2024" font-size="1.3333" lengthAdjust="spacingAndGlyphs"
text-anchor="middle" opacity="0">R5</text>
<g class="stroked-text"><desc>R5</desc>
<path d="M1.1833 44.2848
L0.8500 43.8086
" />
<path d="M0.6119 44.2848
L0.6119 43.2848
" />
<path d="M0.6119 43.2848
L0.9929 43.2848
" />
<path d="M0.9929 43.2848
L1.0881 43.3324
" />
<path d="M1.0881 43.3324
L1.1357 43.3801
" />
<path d="M1.1357 43.3801
L1.1833 43.4753
" />
<path d="M1.1833 43.4753
L1.1833 43.6182
" />
<path d="M1.1833 43.6182
L1.1357 43.7134
" />
<path d="M1.1357 43.7134
L1.0881 43.7610
" />
<path d="M1.0881 43.7610
L0.9929 43.8086
" />
<path d="M0.9929 43.8086
L0.6119 43.8086
" />
<path d="M2.0881 43.2848
L1.6119 43.2848
" />
<path d="M1.6119 43.2848
L1.5643 43.7610
" />
<path d="M1.5643 43.7610
L1.6119 43.7134
" />
<path d="M1.6119 43.7134
L1.7071 43.6658
" />
<path d="M1.7071 43.6658
L1.9452 43.6658
" />
<path d="M1.9452 43.6658
L2.0405 43.7134
" />
<path d="M2.0405 43.7134
L2.0881 43.7610
" />
<path d="M2.0881 43.7610
L2.1357 43.8562
" />
<path d="M2.1357 43.8562
L2.1357 44.0943
" />
<path d="M2.1357 44.0943
L2.0881 44.1896
" />
<path d="M2.0881 44.1896
L2.0405 44.2372
" />
<path d="M2.0405 44.2372
L1.9452 44.2848
" />
<path d="M1.9452 44.2848
L1.7071 44.2848
" />
<path d="M1.7071 44.2848
L1.6119 44.2372
" />
<path d="M1.6119 44.2372
L1.5643 44.1896
" />
</g></g>
<g style="fill:#0D115E; fill-opacity:0.0; 
stroke:#0D115E; stroke-width:0.1000; stroke-opacity:1; 
stroke-linecap:round; stroke-linejoin:round;">
<g transform="rotate(-90.000000 53.6820 15.2400)">
<text x="53.6820" y="15.7400"
textLength="2.1000" font-size="1.3333" lengthAdjust="spacingAndGlyphs"
text-anchor="middle" opacity="0">U3</text>
</g>
<g class="stroked-text"><desc>U3</desc>
<path d="M53.1394 16.0019
L53.9489 16.0019
" />
<path d="M53.9489 16.0019
L54.0442 15.9543
" />
<path d="M54.0442 15.9543
L54.0918 15.9067
" />
<path d="M54.0918 15.9067
L54.1394 15.8114
" />
<path d="M54.1394 15.8114
L54.1394 15.6210
" />
<path d="M54.1394 15.6210
L54.0918 15.5257
" />
<path d="M54.0918 15.5257
L54.0442 15.4781
" />
<path d="M54.0442 15.4781
L53.9489 15.4305
" />
<path d="M53.9489 15.4305
L53.1394 15.4305
" />
<path d="M53.1394 15.0495
L53.1394 14.4305
" />
<path d="M53.1394 14.4305
L53.5204 14.7638
" />
<path d="M53.5204 14.7638
L53.5204 14.6210
" />
<path d="M53.5204 14.6210
L53.5680 14.5257
" />
<path d="M53.5680 14.5257
L53.6156 14.4781
" />
<path d="M53.6156 14.4781
L53.7108 14.4305
" />
<path d="M53.7108 14.4305
L53.9489 14.4305
" />
<path d="M53.9489 14.4305
L54.0442 14.4781
" />
<path d="M54.0442 14.4781
L54.0918 14.5257
" />
<path d="M54.0918 14.5257
L54.1394 14.6210
" />
<path d="M54.1394 14.6210
L54.1394 14.9067
" />
<path d="M54.1394 14.9067
L54.0918 15.0019
" />
<path d="M54.0918 15.0019
L54.0442 15.0495
" />
</g></g>
<g style="fill:#0D115E; fill-opacity:0.0; 
stroke:#0D115E; stroke-width:0.1500; stroke-opacity:1; 
stroke-linecap:round; stroke-linejoin:round;">
<g transform="rotate(-90.000000 -4.7900 26.9240)">
<text x="-4.7900" y="27.4240"
textLength="1.9643" font-size="1.3333" lengthAdjust="spacingAndGlyphs"
text-anchor="middle" opacity="0">J6</text>
</g>
<g class="stroked-text"><desc>J6</desc>
<path d="M-5.3352 27.2573
L-4.6209 27.2573
" />
<path d="M-4.6209 27.2573
L-4.4780 27.3050
" />
<path d="M-4.4780 27.3050
L-4.3828 27.4002
" />
<path d="M-4.3828 27.4002
L-4.3352 27.5430
" />
<path d="M-4.3352 27.5430
L-4.3352 27.6383
" />
<path d="M-5.3352 26.3526
L-5.3352 26.5430
" />
<path d="M-5.3352 26.5430
L-5.2876 26.6383
" />
<path d="M-5.2876 26.6383
L-5.2399 26.6859
" />
<path d="M-5.2399 26.6859
L-5.0971 26.7811
" />
<path d="M-5.0971 26.7811
L-4.9066 26.8288
" />
<path d="M-4.9066 26.8288
L-4.5257 26.8288
" />
<path d="M-4.5257 26.8288
L-4.4304 26.7811
" />
<path d="M-4.4304 26.7811
L-4.3828 26.7335
" />
<path d="M-4.3828 26.7335
L-4.3352 26.6383
" />
<path d="M-4.3352 26.6383
L-4.3352 26.4478
" />
<path d="M-4.3352 26.4478
L-4.3828 26.3526
" />
<path d="M-4.3828 26.3526
L-4.4304 26.3050
" />
<path d="M-4.4304 26.3050
L-4.5257 26.2573
" />
<path d="M-4.5257 26.2573
L-4.7638 26.2573
" />
<path d="M-4.7638 26.2573
L-4.8590 26.3050
" />
<path d="M-4.8590 26.3050
L-4.9066 26.3526
" />
<path d="M-4.9066 26.3526
L-4.9542 26.4478
" />
<path d="M-4.9542 26.4478
L-4.9542 26.6383
" />
<path d="M-4.9542 26.6383
L-4.9066 26.7335
" />
<path d="M-4.9066 26.7335
L-4.8590 26.7811
" />
<path d="M-4.8590 26.7811
L-4.7638 26.8288
" />
</g><g transform="rotate(-90.000000 65.4500 34.7980)">
<text x="65.4500" y="35.2980"
textLength="2.2024" font-size="1.3333" lengthAdjust="spacingAndGlyphs"
text-anchor="middle" opacity="0">R1</text>
</g>
<g class="stroked-text"><desc>R1</desc>
<path d="M65.9048 34.9647
L65.4286 35.2980
" />
<path d="M65.9048 35.5361
L64.9048 35.5361
" />
<path d="M64.9048 35.5361
L64.9048 35.1551
" />
<path d="M64.9048 35.1551
L64.9524 35.0599
" />
<path d="M64.9524 35.0599
L65.0001 35.0123
" />
<path d="M65.0001 35.0123
L65.0953 34.9647
" />
<path d="M65.0953 34.9647
L65.2382 34.9647
" />
<path d="M65.2382 34.9647
L65.3334 35.0123
" />
<path d="M65.3334 35.0123
L65.3810 35.0599
" />
<path d="M65.3810 35.0599
L65.4286 35.1551
" />
<path d="M65.4286 35.1551
L65.4286 35.5361
" />
<path d="M65.9048 34.0123
L65.9048 34.5837
" />
<path d="M65.9048 34.2980
L64.9048 34.2980
" />
<path d="M64.9048 34.2980
L65.0477 34.3932
" />
<path d="M65.0477 34.3932
L65.1429 34.4885
" />
<path d="M65.1429 34.4885
L65.1905 34.5837
" />
</g><g transform="rotate(-90.000000 62.6080 -9.9060)">
<text x="62.6080" y="-9.4060"
textLength="1.9643" font-size="1.3333" lengthAdjust="spacingAndGlyphs"
text-anchor="middle" opacity="0">J8</text>
</g>
<g class="stroked-text"><desc>J8</desc>
<path d="M62.0628 -9.5727
L62.7771 -9.5727
" />
<path d="M62.7771 -9.5727
L62.9200 -9.5250
" />
<path d="M62.9200 -9.5250
L63.0152 -9.4298
" />
<path d="M63.0152 -9.4298
L63.0628 -9.2870
" />
<path d="M63.0628 -9.2870
L63.0628 -9.1917
" />
<path d="M62.4914 -10.1917
L62.4438 -10.0965
" />
<path d="M62.4438 -10.0965
L62.3962 -10.0489
" />
<path d="M62.3962 -10.0489
L62.3009 -10.0012
" />
<path d="M62.3009 -10.0012
L62.2533 -10.0012
" />
<path d="M62.2533 -10.0012
L62.1581 -10.0489
" />
<path d="M62.1581 -10.0489
L62.1104 -10.0965
" />
<path d="M62.1104 -10.0965
L62.0628 -10.1917
" />
<path d="M62.0628 -10.1917
L62.0628 -10.3822
" />
<path d="M62.0628 -10.3822
L62.1104 -10.4774
" />
<path d="M62.1104 -10.4774
L62.1581 -10.5250
" />
<path d="M62.1581 -10.5250
L62.2533 -10.5727
" />
<path d="M62.2533 -10.5727
L62.3009 -10.5727
" />
<path d="M62.3009 -10.5727
L62.3962 -10.5250
" />
<path d="M62.3962 -10.5250
L62.4438 -10.4774
" />
<path d="M62.4438 -10.4774
L62.4914 -10.3822
" />
<path d="M62.4914 -10.3822
L62.4914 -10.1917
" />
<path d="M62.4914 -10.1917
L62.5390 -10.0965
" />
<path d="M62.5390 -10.0965
L62.5866 -10.0489
" />
<path d="M62.5866 -10.0489
L62.6819 -10.0012
" />
<path d="M62.6819 -10.0012
L62.8723 -10.0012
" />
<path d="M62.8723 -10.0012
L62.9676 -10.0489
" />
<path d="M62.9676 -10.0489
L63.0152 -10.0965
" />
<path d="M63.0152 -10.0965
L63.0628 -10.1917
" />
<path d="M63.0628 -10.1917
L63.0628 -10.3822
" />
<path d="M63.0628 -10.3822
L63.0152 -10.4774
" />
<path d="M63.0152 -10.4774
L62.9676 -10.5250
" />
<path d="M62.9676 -10.5250
L62.8723 -10.5727
" />
<path d="M62.8723 -10.5727
L62.6819 -10.5727
" />
<path d="M62.6819 -10.5727
L62.5866 -10.5250
" />
<path d="M62.5866 -10.5250
L62.5390 -10.4774
" />
<path d="M62.5390 -10.4774
L62.4914 -10.3822
" />
</g><text x="3.1000" y="5.4700"
textLength="1.9643" font-size="1.3333" lengthAdjust="spacingAndGlyphs"
text-anchor="middle" opacity="0">J5</text>
<g class="stroked-text"><desc>J5</desc>
<path d="M2.7667 4.4248
L2.7667 5.1391
" />
<path d="M2.7667 5.1391
L2.7190 5.2820
" />
<path d="M2.7190 5.2820
L2.6238 5.3772
" />
<path d="M2.6238 5.3772
L2.4810 5.4248
" />
<path d="M2.4810 5.4248
L2.3857 5.4248
" />
<path d="M3.7190 4.4248
L3.2429 4.4248
" />
<path d="M3.2429 4.4248
L3.1952 4.9010
" />
<path d="M3.1952 4.9010
L3.2429 4.8534
" />
<path d="M3.2429 4.8534
L3.3381 4.8058
" />
<path d="M3.3381 4.8058
L3.5762 4.8058
" />
<path d="M3.5762 4.8058
L3.6714 4.8534
" />
<path d="M3.6714 4.8534
L3.7190 4.9010
" />
<path d="M3.7190 4.9010
L3.7667 4.9962
" />
<path d="M3.7667 4.9962
L3.7667 5.2343
" />
<path d="M3.7667 5.2343
L3.7190 5.3296
" />
<path d="M3.7190 5.3296
L3.6714 5.3772
" />
<path d="M3.6714 5.3772
L3.5762 5.4248
" />
<path d="M3.5762 5.4248
L3.3381 5.4248
" />
<path d="M3.3381 5.4248
L3.2429 5.3772
" />
<path d="M3.2429 5.3772
L3.1952 5.3296
" />
</g><g transform="rotate(-90.000000 27.4300 3.0000)">
<text x="27.4300" y="3.5000"
textLength="1.9643" font-size="1.3333" lengthAdjust="spacingAndGlyphs"
text-anchor="middle" opacity="0">J2</text>
</g>
<g class="stroked-text"><desc>J2</desc>
<path d="M26.8848 3.3333
L27.5991 3.3333
" />
<path d="M27.5991 3.3333
L27.7420 3.3810
" />
<path d="M27.7420 3.3810
L27.8372 3.4762
" />
<path d="M27.8372 3.4762
L27.8848 3.6190
" />
<path d="M27.8848 3.6190
L27.8848 3.7143
" />
<path d="M26.9801 2.9048
L26.9324 2.8571
" />
<path d="M26.9324 2.8571
L26.8848 2.7619
" />
<path d="M26.8848 2.7619
L26.8848 2.5238
" />
<path d="M26.8848 2.5238
L26.9324 2.4286
" />
<path d="M26.9324 2.4286
L26.9801 2.3810
" />
<path d="M26.9801 2.3810
L27.0753 2.3333
" />
<path d="M27.0753 2.3333
L27.1705 2.3333
" />
<path d="M27.1705 2.3333
L27.3134 2.3810
" />
<path d="M27.3134 2.3810
L27.8848 2.9524
" />
<path d="M27.8848 2.9524
L27.8848 2.3333
" />
</g></g>
<g style="fill:#0D115E; fill-opacity:0.0; 
stroke:#0D115E; stroke-width:0.1200; stroke-opacity:1; 
stroke-linecap:round; stroke-linejoin:round;">
<path d="M45.4860 29.2700
L45.4860 27.9400
" />
<path d="M46.8160 29.2700
L45.4860 29.2700
" />
<path d="M48.0860 29.2700
L50.6860 29.2700
" />
<path d="M48.0860 29.2700
L48.0860 26.6100
" />
<path d="M50.6860 29.2700
L50.6860 26.6100
" />
<path d="M48.0860 26.6100
L50.6860 26.6100
" />
<path d="M58.7540 31.9280
L58.7540 32.8780
" />
<path d="M59.6740 32.8780
L57.8340 32.8780
" />
<path d="M57.8340 32.8780
L57.8340 36.7180
" />
<path d="M59.6740 36.7180
L59.6740 32.8780
" />
<path d="M57.8340 36.7180
L59.6740 36.7180
" />
<path d="M58.7540 37.6680
L58.7540 36.7180
" />
<path d="M56.4680 37.6680
L56.4680 36.7180
" />
<path d="M55.5480 36.7180
L57.3880 36.7180
" />
<path d="M57.3880 36.7180
L57.3880 32.8780
" />
<path d="M55.5480 32.8780
L55.5480 36.7180
" />
<path d="M57.3880 32.8780
L55.5480 32.8780
" />
<path d="M56.4680 31.9280
L56.4680 32.8780
" />
<path d="M1.1280 39.1560
L5.7690 39.1560
" />
<path d="M1.1280 39.1560
L1.1280 28.9160
" />
<path d="M2.6380 39.1560
L2.6380 28.9160
" />
<path d="M5.7690 39.1560
L5.7690 28.9160
" />
<path d="M1.1280 35.8860
L2.6380 35.8860
" />
<path d="M1.1280 32.1850
L2.6380 32.1850
" />
<path d="M1.1280 28.9160
L5.7690 28.9160
" />
<path d="M-3.3100 5.9700
L-1.9800 5.9700
" />
<path d="M-3.3100 7.3000
L-3.3100 5.9700
" />
<path d="M-3.3100 8.5700
L-3.3100 23.8700
" />
<path d="M-3.3100 8.5700
L-0.6500 8.5700
" />
<path d="M-3.3100 23.8700
L-0.6500 23.8700
" />
<path d="M-0.6500 8.5700
L-0.6500 23.8700
" />
<path d="M4.2200 39.8780
L3.2700 39.8780
" />
<path d="M3.2700 40.7980
L3.2700 38.9580
" />
<path d="M3.2700 38.9580
L-0.5700 38.9580
" />
<path d="M-0.5700 40.7980
L3.2700 40.7980
" />
<path d="M-0.5700 38.9580
L-0.5700 40.7980
" />
<path d="M-1.5200 39.8780
L-0.5700 39.8780
" />
<path d="M61.0400 37.6680
L61.0400 36.7180
" />
<path d="M60.1200 36.7180
L61.9600 36.7180
" />
<path d="M61.9600 36.7180
L61.9600 32.8780
" />
<path d="M60.1200 32.8780
L60.1200 36.7180
" />
<path d="M61.9600 32.8780
L60.1200 32.8780
" />
<path d="M61.0400 31.9280
L61.0400 32.8780
" />
<path d="M4.7100 4.8300
L4.7100 3.5000
" />
<path d="M6.0400 4.8300
L4.7100 4.8300
" />
<path d="M7.3100 4.8300
L22.6100 4.8300
" />
<path d="M7.3100 4.8300
L7.3150 -11.6000
" />
<path d="M22.6100 4.8300
L22.6400 -11.6000
" />
<path d="M7.3150 -11.6000
L22.6400 -11.6000
" />
</g>
<g style="fill:#0D115E; fill-opacity:0.0; 
stroke:#0D115E; stroke-width:0.1000; stroke-opacity:1; 
stroke-linecap:round; stroke-linejoin:round;">
<circle cx="3.5000" cy="3.5000" r="1.2700" /> 
<circle cx="23.8200" cy="3.5000" r="1.2700" /> 
</g>
<g style="fill:#0D115E; fill-opacity:0.0; 
stroke:#0D115E; stroke-width:0.1200; stroke-opacity:1; 
stroke-linecap:round; stroke-linejoin:round;">
<path d="M7.6400 40.7500
L43.3200 40.7500
" />
<path d="M43.3200 40.7500
L43.3200 35.4500
" />
<path d="M7.6400 39.1000
L7.6400 40.7500
" />
<path d="M7.6400 35.4500
L7.6400 37.1000
" />
<path d="M43.3200 35.4500
L7.6400 35.4500
" />
<path d="M7.6400 39.1000 A1.0000 1.0000 0.0 0 0 7.6400 37.1000" />
<path d="M47.3390 39.1030
L47.3390 32.8530
" />
<path d="M52.3890 39.1030
L52.3890 32.8530
" />
<path d="M47.3390 39.1030 A2.5250 2.5250 0.0 0 0 52.3890 39.1030" />
<path d="M52.3890 32.8530 A2.5250 2.5250 0.0 0 0 47.3390 32.8530" />
<path d="M54.8480 36.4550
L54.8480 37.7130
" />
<path d="M53.0080 36.4550
L53.0080 37.7130
" />
<path d="M64.1480 26.3560
L64.1480 27.6860
" />
<path d="M62.8180 26.3560
L64.1480 26.3560
" />
<path d="M61.5480 26.3560
L58.9480 26.3560
" />
<path d="M61.5480 26.3560
L61.5480 29.0160
" />
<path d="M58.9480 26.3560
L58.9480 29.0160
" />
<path d="M61.5480 29.0160
L58.9480 29.0160
" />
<path d="M4.2200 41.9100
L3.2700 41.9100
" />
<path d="M3.2700 42.8300
L3.2700 40.9900
" />
<path d="M3.2700 40.9900
L-0.5700 40.9900
" />
<path d="M-0.5700 42.8300
L3.2700 42.8300
" />
<path d="M-0.5700 40.9900
L-0.5700 42.8300
" />
<path d="M-1.5200 41.9100
L-0.5700 41.9100
" />
<path d="M54.8480 31.6290
L54.8480 32.8870
" />
<path d="M53.0080 31.6290
L53.0080 32.8870
" />
<path d="M51.8360 29.0160
L51.8360 27.6860
" />
<path d="M53.1660 29.0160
L51.8360 29.0160
" />
<path d="M54.4360 29.0160
L57.0360 29.0160
" />
<path d="M54.4360 29.0160
L54.4360 26.3560
" />
<path d="M57.0360 29.0160
L57.0360 26.3560
" />
<path d="M54.4360 26.3560
L57.0360 26.3560
" />
</g>
<g style="fill:#0D115E; fill-opacity:0.0; 
stroke:#0D115E; stroke-width:0.1000; stroke-opacity:1; 
stroke-linecap:round; stroke-linejoin:round;">
<path d="M44.1820 25.2400
L64.1820 25.2400
" />
<path d="M64.1820 25.2400
L64.1820 5.2400
" />
<path d="M64.1820 5.2400
L44.1820 5.2400
" />
<path d="M44.1820 5.2400
L44.1820 25.2400
" />
</g>
<g style="fill:#0D115E; fill-opacity:0.0; 
stroke:#0D115E; stroke-width:0.1200; stroke-opacity:1; 
stroke-linecap:round; stroke-linejoin:round;">
<path d="M43.1275 32.4100
L6.8725 32.4100
" />
<path d="M43.1275 22.8850
L43.1275 32.4100
" />
<path d="M43.1275 21.6150
L43.1275 5.5400
" />
<path d="M43.1275 5.5400
L6.8725 5.5700
" />
<path d="M6.8725 32.4100
L6.8725 5.5700
" />
<path d="M-3.7900 28.2540
L-3.7900 26.9240
" />
<path d="M-2.4600 28.2540
L-3.7900 28.2540
" />
<path d="M-1.1900 28.2540
L1.4100 28.2540
" />
<path d="M-1.1900 28.2540
L-1.1900 25.5940
" />
<path d="M1.4100 28.2540
L1.4100 25.5940
" />
<path d="M-1.1900 25.5940
L1.4100 25.5940
" />
<path d="M63.5300 31.9280
L63.5300 32.8780
" />
<path d="M64.4500 32.8780
L62.6100 32.8780
" />
<path d="M62.6100 32.8780
L62.6100 36.7180
" />
<path d="M64.4500 36.7180
L64.4500 32.8780
" />
<path d="M62.6100 36.7180
L64.4500 36.7180
" />
<path d="M63.5300 37.6680
L63.5300 36.7180
" />
<path d="M61.6080 -11.2360
L61.6080 -9.9060
" />
<path d="M60.2780 -11.2360
L61.6080 -11.2360
" />
<path d="M59.0080 -11.2360
L51.3280 -11.2360
" />
<path d="M59.0080 -11.2360
L58.9980 1.3080
" />
<path d="M51.3280 -11.2360
L51.3180 1.3080
" />
<path d="M58.9980 1.3080
L51.3180 1.3080
" />
<path d="M1.7700 5.9700
L3.1000 5.9700
" />
<path d="M1.7700 7.3000
L1.7700 5.9700
" />
<path d="M1.7700 8.5700
L1.7700 23.8700
" />
<path d="M1.7700 8.5700
L4.4300 8.5700
" />
<path d="M1.7700 23.8700
L4.4300 23.8700
" />
<path d="M4.4300 8.5700
L4.4300 23.8700
" />
<path d="M28.4900 4.3300
L48.8700 4.3300
" />
<path d="M28.4900 4.3300
L28.4900 -12.2400
" />
<path d="M48.8700 4.3300
L48.8700 -12.2400
" />
<path d="M28.4900 -12.2400
L48.8700 -12.2400
" />
<g >
</g>
<g >
</g>
<g >
</g>
<g >
</g>
<g >
</g>
<g >
</g>
<g >
</g>
<g >
</g>
<g >
</g>
<g >
</g>
<g >
</g>
<g >
</g>
<g >
</g>
<g >
</g>
<g >
</g>
<g >
</g>
<g >
</g>
<g >
</g>
<g >
</g>
<g >
</g>
<g >
</g>
<g >
</g>
<g >
</g>
<g >
</g>
<g >
</g>
</g>
<g style="fill:#FFFFFF; fill-opacity:0.0; 
stroke:#FFFFFF; stroke-width:0.1200; stroke-opacity:1; 
stroke-linecap:round; stroke-linejoin:round;">
</g>
<g style="fill:#2F2D31; fill-opacity:0.0; 
stroke:#2F2D31; stroke-width:0.1200; stroke-opacity:1; 
stroke-linecap:round; stroke-linejoin:round;">
</g>
<g style="fill:#2F2D31; fill-opacity:0.0; 
stroke:#2F2D31; stroke-width:0.1000; stroke-opacity:1; 
stroke-linecap:round; stroke-linejoin:round;">
<circle cx="3.5000" cy="3.5000" r="1.2500" /> 
</g>
<g style="fill:#2F2D31; fill-opacity:0.0; 
stroke:#2F2D31; stroke-width:0.2000; stroke-opacity:1; 
stroke-linecap:round; stroke-linejoin:round;">
<path style="fill:#2F2D31; fill-opacity:0.0; 
stroke:#2F2D31; stroke-width:0.2000; stroke-opacity:1; 
stroke-linecap:round; stroke-linejoin:round;fill:none"
d="M -5.0000,-13.0000
65.0000,-13.0000
65.0000,43.0000
-5.0000,43.0000
Z" /> 
</g>
<g style="fill:#2F2D31; fill-opacity:0.0; 
stroke:#2F2D31; stroke-width:0.1000; stroke-opacity:1; 
stroke-linecap:round; stroke-linejoin:round;">
<circle cx="61.5000" cy="3.5000" r="1.2500" /> 
<circle cx="3.5000" cy="26.5000" r="1.2500" /> 
<g >
</g>
<g >
</g>
<g >
</g>
<g >
</g>
<g >
</g>
<g >
</g>
<g >
</g>
<g >
</g>
<g >
</g>
<g >
</g>
<g >
</g>
<g >
</g>
<g >
</g>
<g >
</g>
<g >
</g>
<g >
</g>
<g >
</g>
<g >
</g>
<g >
</g>
<g >
</g>
<g >
</g>
<g >
</g>
<g >
</g>
<g >
</g>
<g >
</g>
</g> 
</svg>
